<svg xmlns="http://www.w3.org/2000/svg" version="1.2" viewBox="0 0 750 500" width="750" height="500">
	<title>3386852</title>
	<defs fill="#000000">
		<clipPath clipPathUnits="userSpaceOnUse" id="cp1" fill="#000000">
			<path d="m750 0v500h-750v-500z" fill="#000000"/>
		</clipPath>
		<linearGradient id="g1" x2="1" gradientUnits="userSpaceOnUse" gradientTransform="matrix(282.158,-282.158,274.529,274.529,366.104,59.15)" fill="#000000">
			<stop offset="0" stop-color="#6a63ff" stop-opacity="0" fill="#000000"/>
			<stop offset="1" stop-color="#001659" fill="#000000"/>
		</linearGradient>
		<linearGradient id="g2" x2="1" gradientUnits="userSpaceOnUse" gradientTransform="matrix(-399.684,399.684,-696.111,-696.111,818.495,547.506)" fill="#000000">
			<stop offset=".503" stop-color="#321d80" stop-opacity="0" fill="#000000"/>
			<stop offset="1" stop-color="#321d80" fill="#000000"/>
		</linearGradient>
		<linearGradient id="g3" x2="1" gradientUnits="userSpaceOnUse" gradientTransform="matrix(332.254,-332.254,323.271,323.271,-227.418,478.572)" fill="#000000">
			<stop offset="0" stop-color="#6a63ff" stop-opacity="0" fill="#000000"/>
			<stop offset="1" stop-color="#6a63ff" fill="#000000"/>
		</linearGradient>
		<linearGradient id="g4" x2="1" gradientUnits="userSpaceOnUse" gradientTransform="matrix(-51.312,51.312,-34.393,-34.393,91.688,87.288)" fill="#000000">
			<stop offset="0" stop-color="#6a63ff" fill="#000000"/>
			<stop offset="1" stop-color="#6a63ff" stop-opacity="0" fill="#000000"/>
		</linearGradient>
		<linearGradient id="g5" x2="1" gradientUnits="userSpaceOnUse" gradientTransform="matrix(-77.318,77.318,-51.828,-51.828,358.836,360.316)" fill="#000000">
			<stop offset="0" stop-color="#6a63ff" fill="#000000"/>
			<stop offset="1" stop-color="#6a63ff" stop-opacity="0" fill="#000000"/>
		</linearGradient>
		<linearGradient id="g6" x2="1" gradientUnits="userSpaceOnUse" gradientTransform="matrix(-51.312,51.312,-34.418,-34.418,514.47,461.524)" fill="#000000">
			<stop offset="0" stop-color="#6a63ff" fill="#000000"/>
			<stop offset="1" stop-color="#6a63ff" stop-opacity="0" fill="#000000"/>
		</linearGradient>
		<linearGradient id="g7" x2="1" gradientUnits="userSpaceOnUse" gradientTransform="matrix(-66.879,66.879,-66.879,-66.879,585.112,373.243)" fill="#000000">
			<stop offset="0" stop-color="#321d80" stop-opacity="0" fill="#000000"/>
			<stop offset="1" stop-color="#6a63ff" fill="#000000"/>
		</linearGradient>
		<linearGradient id="g8" x2="1" gradientUnits="userSpaceOnUse" gradientTransform="matrix(-106.786,106.786,-106.786,-106.786,605.73,78.788)" fill="#000000">
			<stop offset="0" stop-color="#321d80" stop-opacity="0" fill="#000000"/>
			<stop offset="1" stop-color="#6a63ff" fill="#000000"/>
		</linearGradient>
		<linearGradient id="g9" x2="1" gradientUnits="userSpaceOnUse" gradientTransform="matrix(-145.618,145.618,-145.617,-145.617,278.044,216.482)" fill="#000000">
			<stop offset="0" stop-color="#6a63ff" stop-opacity="0" fill="#000000"/>
			<stop offset="1" stop-color="#c2c3ff" fill="#000000"/>
		</linearGradient>
	</defs>
	<style>
		.s0 { fill: url(#g1) } 
		.s1 { opacity: .5;fill: url(#g2) } 
		.s2 { fill: url(#g3) } 
		.s3 { fill: none;stroke: #6a63ff;stroke-miterlimit:10;stroke-width: 2 } 
		.s4 { fill: none;stroke: #6a63ff;stroke-miterlimit:10;stroke-width: 1.8 } 
		.s5 { fill: none;stroke: #6a63ff;stroke-miterlimit:10;stroke-width: 1.6 } 
		.s6 { fill: none;stroke: #6a63ff;stroke-miterlimit:10;stroke-width: 1.4 } 
		.s7 { fill: none;stroke: #6a63ff;stroke-miterlimit:10;stroke-width: 1.2 } 
		.s8 { fill: none;stroke: #6a63ff;stroke-miterlimit:10;stroke-width: 1 } 
		.s9 { fill: none;stroke: #6a63ff;stroke-miterlimit:10;stroke-width: .8 } 
		.s10 { fill: none;stroke: #6a63ff;stroke-miterlimit:10;stroke-width: .6 } 
		.s11 { fill: none;stroke: #6a63ff;stroke-miterlimit:10;stroke-width: .4 } 
		.s12 { fill: none;stroke: #6a63ff;stroke-miterlimit:10;stroke-width: 2.6 } 
		.s13 { fill: none;stroke: #6a63ff;stroke-miterlimit:10;stroke-width: 2.4 } 
		.s14 { fill: none;stroke: #6a63ff;stroke-miterlimit:10;stroke-width: 2.1 } 
		.s15 { fill: none;stroke: #6a63ff;stroke-miterlimit:10;stroke-width: 1.3 } 
		.s16 { fill: none;stroke: #6a63ff;stroke-miterlimit:10;stroke-width: .5 } 
		.s17 { fill: none;stroke: #6a63ff;stroke-miterlimit:10;stroke-width: 1.5 } 
		.s18 { fill: none;stroke: #6a63ff;stroke-miterlimit:10;stroke-width: .9 } 
		.s19 { fill: none;stroke: #6a63ff;stroke-miterlimit:10;stroke-width: .7 } 
		.s20 { fill: none;stroke: #6a63ff;stroke-miterlimit:10;stroke-width: .3 } 
		.s21 { fill: none;stroke: #6a63ff;stroke-miterlimit:10;stroke-width: .1 } 
		.s22 { fill: none;stroke: #6a63ff;stroke-miterlimit:10;stroke-width: .2 } 
		.s23 { fill: none;stroke: #6a63ff;stroke-miterlimit:10;stroke-width: 1.1 } 
		.s24 { fill: none;stroke: #6a63ff;stroke-miterlimit:10;stroke-width: 1.7 } 
		.s25 { fill: none;stroke: #6a63ff;stroke-miterlimit:10;stroke-width: 1.9 } 
		.s26 { fill: none;stroke: #6a63ff;stroke-miterlimit:10;stroke-width: 2.2 } 
		.s27 { fill: none;stroke: #6a63ff;stroke-miterlimit:10;stroke-width: 2.3 } 
		.s28 { fill: none;stroke: #6a63ff;stroke-miterlimit:10;stroke-width: 2.5 } 
		.s29 { fill: none;stroke: #6a63ff;stroke-miterlimit:10;stroke-width: 2.7 } 
		.s30 { fill: none;stroke: #6a63ff;stroke-miterlimit:10;stroke-width: 2.8 } 
		.s31 { fill: url(#g4) } 
		.s32 { fill: url(#g5) } 
		.s33 { fill: url(#g6) } 
		.s34 { fill: url(#g7) } 
		.s35 { fill: none;stroke: #6a63ff;stroke-miterlimit:10;stroke-width: 3 } 
		.s36 { fill: url(#g8) } 
		.s37 { fill: url(#g9) } 
	</style>
	<g id="OBJECTS">
		<g id="New Symbol">
			<g id="New Symbol 3 ">
			</g>
		</g>
		<g id="New Symbol">
		</g>
		<g id="New Symbol 3">
		</g>
		<g id="New Symbol 1">
		</g>
		<g id="New Symbol 2">
		</g>
		<g id="New Symbol 2">
			<g id="New Symbol 2 3 ">
			</g>
		</g>
		<g id="New Symbol 3">
		</g>
		<g id="&lt;Clip Group&gt;" clip-path="url(#cp1)">
			<path id="&lt;Compound Path&gt;" class="s0" d="m619-83.4c-1 0-1.8-0.8-1.8-1.9 0-1 0.8-1.8 1.8-1.8 1.1 0 1.9 0.8 1.9 1.8 0 1.1-0.8 1.9-1.9 1.9zm20.6-1.9c0-1-0.8-1.8-1.8-1.8-1.1 0-1.9 0.8-1.9 1.8 0 1.1 0.8 1.9 1.9 1.9 1 0 1.8-0.8 1.8-1.9zm18.8 0c0-1-0.9-1.8-1.9-1.8-1 0-1.9 0.8-1.9 1.8 0 1.1 0.9 1.9 1.9 1.9 1 0 1.9-0.8 1.9-1.9zm18.7 0c0-1-0.9-1.8-1.9-1.8-1 0-1.9 0.8-1.9 1.8 0 1.1 0.9 1.9 1.9 1.9 1 0 1.9-0.8 1.9-1.9zm-84.3 11.9c0-1-0.8-1.8-1.9-1.8-1 0-1.8 0.8-1.8 1.8 0 1.1 0.8 1.9 1.8 1.9 1.1 0 1.9-0.8 1.9-1.9zm18.7 0c0-1-0.8-1.8-1.8-1.8-1.1 0-1.9 0.8-1.9 1.8 0 1.1 0.8 1.9 1.9 1.9 1 0 1.8-0.8 1.8-1.9zm18.8 0c0-1-0.9-1.8-1.9-1.8-1 0-1.9 0.8-1.9 1.8 0 1.1 0.9 1.9 1.9 1.9 1 0 1.9-0.8 1.9-1.9zm18.7 0c0-1-0.8-1.8-1.9-1.8-1 0-1.8 0.8-1.8 1.8 0 1.1 0.8 1.9 1.8 1.9 1.1 0 1.9-0.8 1.9-1.9zm18.7 0c0-1-0.8-1.8-1.8-1.8-1.1 0-1.9 0.8-1.9 1.8 0 1.1 0.8 1.9 1.9 1.9 1 0 1.8-0.8 1.8-1.9zm18.7 0c0-1-0.8-1.8-1.8-1.8-1.1 0-1.9 0.8-1.9 1.8 0 1.1 0.8 1.9 1.9 1.9 1 0 1.8-0.8 1.8-1.9zm18.8 0c0-1-0.9-1.8-1.9-1.8-1 0-1.9 0.8-1.9 1.8 0 1.1 0.9 1.9 1.9 1.9 1 0 1.9-0.8 1.9-1.9zm-140.5 11.9c0-1-0.8-1.9-1.9-1.9-1 0-1.8 0.9-1.8 1.9 0 1 0.8 1.9 1.8 1.9 1.1 0 1.9-0.9 1.9-1.9zm18.7 0c0-1-0.8-1.9-1.8-1.9-1.1 0-1.9 0.9-1.9 1.9 0 1 0.8 1.9 1.9 1.9 1 0 1.8-0.9 1.8-1.9zm18.8 0c0-1-0.9-1.9-1.9-1.9-1 0-1.9 0.9-1.9 1.9 0 1 0.9 1.9 1.9 1.9 1 0 1.9-0.9 1.9-1.9zm18.7 0c0-1-0.8-1.9-1.9-1.9-1 0-1.8 0.9-1.8 1.9 0 1 0.8 1.9 1.8 1.9 1.1 0 1.9-0.9 1.9-1.9zm18.7 0c0-1-0.8-1.9-1.8-1.9-1.1 0-1.9 0.9-1.9 1.9 0 1 0.8 1.9 1.9 1.9 1 0 1.8-0.9 1.8-1.9zm18.8 0c0-1-0.9-1.9-1.9-1.9-1 0-1.9 0.9-1.9 1.9 0 1 0.9 1.9 1.9 1.9 1 0 1.9-0.9 1.9-1.9zm18.7 0c0-1-0.9-1.9-1.9-1.9-1 0-1.9 0.9-1.9 1.9 0 1 0.9 1.9 1.9 1.9 1 0 1.9-0.9 1.9-1.9zm18.7 0c0-1-0.8-1.9-1.9-1.9-1 0-1.8 0.9-1.8 1.9 0 1 0.8 1.9 1.8 1.9 1.1 0 1.9-0.9 1.9-1.9zm18.7 0c0-1-0.8-1.9-1.8-1.9-1.1 0-1.9 0.9-1.9 1.9 0 1 0.8 1.9 1.9 1.9 1 0 1.8-0.9 1.8-1.9zm18.8 0c0-1-0.9-1.9-1.9-1.9-1 0-1.9 0.9-1.9 1.9 0 1 0.9 1.9 1.9 1.9 1 0 1.9-0.9 1.9-1.9zm-178 11.9c0-1-0.8-1.9-1.8-1.9-1.1 0-1.9 0.9-1.9 1.9 0 1 0.8 1.9 1.9 1.9 1 0 1.8-0.9 1.8-1.9zm18.8 0c0-1-0.9-1.9-1.9-1.9-1 0-1.9 0.9-1.9 1.9 0 1 0.9 1.9 1.9 1.9 1 0 1.9-0.9 1.9-1.9zm18.7 0c0-1-0.8-1.9-1.9-1.9-1 0-1.8 0.9-1.8 1.9 0 1 0.8 1.9 1.8 1.9 1.1 0 1.9-0.9 1.9-1.9zm18.7 0c0-1-0.8-1.9-1.8-1.9-1.1 0-1.9 0.9-1.9 1.9 0 1 0.8 1.9 1.9 1.9 1 0 1.8-0.9 1.8-1.9zm18.8 0c0-1-0.9-1.9-1.9-1.9-1 0-1.9 0.9-1.9 1.9 0 1 0.9 1.9 1.9 1.9 1 0 1.9-0.9 1.9-1.9zm18.7 0c0-1-0.8-1.9-1.9-1.9-1 0-1.8 0.9-1.8 1.9 0 1 0.8 1.9 1.8 1.9 1.1 0 1.9-0.9 1.9-1.9zm18.7 0c0-1-0.8-1.9-1.8-1.9-1.1 0-1.9 0.9-1.9 1.9 0 1 0.8 1.9 1.9 1.9 1 0 1.8-0.9 1.8-1.9zm18.7 0c0-1-0.8-1.9-1.8-1.9-1.1 0-1.9 0.9-1.9 1.9 0 1 0.8 1.9 1.9 1.9 1 0 1.8-0.9 1.8-1.9zm18.8 0c0-1-0.9-1.9-1.9-1.9-1 0-1.9 0.9-1.9 1.9 0 1 0.9 1.9 1.9 1.9 1 0 1.9-0.9 1.9-1.9zm18.7 0c0-1-0.8-1.9-1.9-1.9-1 0-1.8 0.9-1.8 1.9 0 1 0.8 1.9 1.8 1.9 1.1 0 1.9-0.9 1.9-1.9zm18.7 0c0-1-0.8-1.9-1.8-1.9-1.1 0-1.9 0.9-1.9 1.9 0 1 0.8 1.9 1.9 1.9 1 0 1.8-0.9 1.8-1.9zm-196.6 11.9c0-1.1-0.9-1.9-1.9-1.9-1 0-1.9 0.8-1.9 1.9 0 1 0.9 1.8 1.9 1.8 1 0 1.9-0.8 1.9-1.8zm18.7 0c0-1.1-0.8-1.9-1.9-1.9-1 0-1.8 0.8-1.8 1.9 0 1 0.8 1.8 1.8 1.8 1.1 0 1.9-0.8 1.9-1.8zm18.7 0c0-1.1-0.8-1.9-1.8-1.9-1.1 0-1.9 0.8-1.9 1.9 0 1 0.8 1.8 1.9 1.8 1 0 1.8-0.8 1.8-1.8zm18.8 0c0-1.1-0.9-1.9-1.9-1.9-1 0-1.9 0.8-1.9 1.9 0 1 0.9 1.8 1.9 1.8 1 0 1.9-0.8 1.9-1.8zm18.7 0c0-1.1-0.8-1.9-1.9-1.9-1 0-1.8 0.8-1.8 1.9 0 1 0.8 1.8 1.8 1.8 1.1 0 1.9-0.8 1.9-1.8zm18.7 0c0-1.1-0.8-1.9-1.8-1.9-1.1 0-1.9 0.8-1.9 1.9 0 1 0.8 1.8 1.9 1.8 1 0 1.8-0.8 1.8-1.8zm18.8 0c0-1.1-0.9-1.9-1.9-1.9-1 0-1.9 0.8-1.9 1.9 0 1 0.9 1.8 1.9 1.8 1 0 1.9-0.8 1.9-1.8zm18.7 0c0-1.1-0.9-1.9-1.9-1.9-1 0-1.9 0.8-1.9 1.9 0 1 0.9 1.8 1.9 1.8 1 0 1.9-0.8 1.9-1.8zm18.7 0c0-1.1-0.8-1.9-1.9-1.9-1 0-1.8 0.8-1.8 1.9 0 1 0.8 1.8 1.8 1.8 1.1 0 1.9-0.8 1.9-1.8zm18.7 0c0-1.1-0.8-1.9-1.8-1.9-1.1 0-1.9 0.8-1.9 1.9 0 1 0.8 1.8 1.9 1.8 1 0 1.8-0.8 1.8-1.8zm18.8 0c0-1.1-0.9-1.9-1.9-1.9-1 0-1.9 0.8-1.9 1.9 0 1 0.9 1.8 1.9 1.8 1 0 1.9-0.8 1.9-1.8zm18.7 0c0-1.1-0.8-1.9-1.9-1.9-1 0-1.8 0.8-1.8 1.9 0 1 0.8 1.8 1.8 1.8 1.1 0 1.9-0.8 1.9-1.8zm-215.4 11.8c0-1-0.8-1.8-1.9-1.8-1 0-1.8 0.8-1.8 1.8 0 1.1 0.8 1.9 1.8 1.9 1.1 0 1.9-0.8 1.9-1.9zm18.7 0c0-1-0.8-1.8-1.8-1.8-1.1 0-1.9 0.8-1.9 1.8 0 1.1 0.8 1.9 1.9 1.9 1 0 1.8-0.8 1.8-1.9zm18.8 0c0-1-0.9-1.8-1.9-1.8-1 0-1.9 0.8-1.9 1.8 0 1.1 0.9 1.9 1.9 1.9 1 0 1.9-0.8 1.9-1.9zm18.7 0c0-1-0.8-1.8-1.9-1.8-1 0-1.8 0.8-1.8 1.8 0 1.1 0.8 1.9 1.8 1.9 1.1 0 1.9-0.8 1.9-1.9zm18.7 0c0-1-0.8-1.8-1.8-1.8-1.1 0-1.9 0.8-1.9 1.8 0 1.1 0.8 1.9 1.9 1.9 1 0 1.8-0.8 1.8-1.9zm18.8 0c0-1-0.9-1.8-1.9-1.8-1 0-1.9 0.8-1.9 1.8 0 1.1 0.9 1.9 1.9 1.9 1 0 1.9-0.8 1.9-1.9zm18.7 0c0-1-0.8-1.8-1.9-1.8-1 0-1.8 0.8-1.8 1.8 0 1.1 0.8 1.9 1.8 1.9 1.1 0 1.9-0.8 1.9-1.9zm18.7 0c0-1-0.8-1.8-1.8-1.8-1.1 0-1.9 0.8-1.9 1.8 0 1.1 0.8 1.9 1.9 1.9 1 0 1.8-0.8 1.8-1.9zm18.7 0c0-1-0.8-1.8-1.8-1.8-1.1 0-1.9 0.8-1.9 1.8 0 1.1 0.8 1.9 1.9 1.9 1 0 1.8-0.8 1.8-1.9zm18.8 0c0-1-0.9-1.8-1.9-1.8-1 0-1.9 0.8-1.9 1.8 0 1.1 0.9 1.9 1.9 1.9 1 0 1.9-0.8 1.9-1.9zm18.7 0c0-1-0.8-1.8-1.9-1.8-1 0-1.8 0.8-1.8 1.8 0 1.1 0.8 1.9 1.8 1.9 1.1 0 1.9-0.8 1.9-1.9zm18.7 0c0-1-0.8-1.8-1.8-1.8-1.1 0-1.9 0.8-1.9 1.8 0 1.1 0.8 1.9 1.9 1.9 1 0 1.8-0.8 1.8-1.9zm18.8 0c0-1-0.9-1.8-1.9-1.8-1 0-1.9 0.8-1.9 1.8 0 1.1 0.9 1.9 1.9 1.9 1 0 1.9-0.8 1.9-1.9zm-234.2 11.9c0-1-0.8-1.8-1.8-1.8-1.1 0-1.9 0.8-1.9 1.8 0 1.1 0.8 1.9 1.9 1.9 1 0 1.8-0.8 1.8-1.9zm18.8 0c0-1-0.9-1.8-1.9-1.8-1 0-1.9 0.8-1.9 1.8 0 1.1 0.9 1.9 1.9 1.9 1 0 1.9-0.8 1.9-1.9zm18.7 0c0-1-0.8-1.8-1.9-1.8-1 0-1.8 0.8-1.8 1.8 0 1.1 0.8 1.9 1.8 1.9 1.1 0 1.9-0.8 1.9-1.9zm18.7 0c0-1-0.8-1.8-1.8-1.8-1.1 0-1.9 0.8-1.9 1.8 0 1.1 0.8 1.9 1.9 1.9 1 0 1.8-0.8 1.8-1.9zm18.8 0c0-1-0.9-1.8-1.9-1.8-1 0-1.9 0.8-1.9 1.8 0 1.1 0.9 1.9 1.9 1.9 1 0 1.9-0.8 1.9-1.9zm18.7 0c0-1-0.8-1.8-1.9-1.8-1 0-1.8 0.8-1.8 1.8 0 1.1 0.8 1.9 1.8 1.9 1.1 0 1.9-0.8 1.9-1.9zm18.7 0c0-1-0.8-1.8-1.8-1.8-1.1 0-1.9 0.8-1.9 1.8 0 1.1 0.8 1.9 1.9 1.9 1 0 1.8-0.8 1.8-1.9zm18.8 0c0-1-0.9-1.8-1.9-1.8-1 0-1.9 0.8-1.9 1.8 0 1.1 0.9 1.9 1.9 1.9 1 0 1.9-0.8 1.9-1.9zm18.7 0c0-1-0.9-1.8-1.9-1.8-1 0-1.9 0.8-1.9 1.8 0 1.1 0.9 1.9 1.9 1.9 1 0 1.9-0.8 1.9-1.9zm18.7 0c0-1-0.8-1.8-1.9-1.8-1 0-1.8 0.8-1.8 1.8 0 1.1 0.8 1.9 1.8 1.9 1.1 0 1.9-0.8 1.9-1.9zm18.7 0c0-1-0.8-1.8-1.8-1.8-1.1 0-1.9 0.8-1.9 1.8 0 1.1 0.8 1.9 1.9 1.9 1 0 1.8-0.8 1.8-1.9zm18.8 0c0-1-0.9-1.8-1.9-1.8-1 0-1.9 0.8-1.9 1.8 0 1.1 0.9 1.9 1.9 1.9 1 0 1.9-0.8 1.9-1.9zm18.7 0c0-1-0.8-1.8-1.9-1.8-1 0-1.8 0.8-1.8 1.8 0 1.1 0.8 1.9 1.8 1.9 1.1 0 1.9-0.8 1.9-1.9zm18.7 0c0-1-0.8-1.8-1.8-1.8-1.1 0-1.9 0.8-1.9 1.8 0 1.1 0.8 1.9 1.9 1.9 1 0 1.8-0.8 1.8-1.9zm-252.8 11.9c0-1-0.9-1.9-1.9-1.9-1 0-1.9 0.9-1.9 1.9 0 1 0.9 1.9 1.9 1.9 1 0 1.9-0.9 1.9-1.9zm18.7 0c0-1-0.8-1.9-1.9-1.9-1 0-1.8 0.9-1.8 1.9 0 1 0.8 1.9 1.8 1.9 1.1 0 1.9-0.9 1.9-1.9zm18.7 0c0-1-0.8-1.9-1.8-1.9-1.1 0-1.9 0.9-1.9 1.9 0 1 0.8 1.9 1.9 1.9 1 0 1.8-0.9 1.8-1.9zm18.8 0c0-1-0.9-1.9-1.9-1.9-1 0-1.9 0.9-1.9 1.9 0 1 0.9 1.9 1.9 1.9 1 0 1.9-0.9 1.9-1.9zm18.7 0c0-1-0.8-1.9-1.9-1.9-1 0-1.8 0.9-1.8 1.9 0 1 0.8 1.9 1.8 1.9 1.1 0 1.9-0.9 1.9-1.9zm18.7 0c0-1-0.8-1.9-1.8-1.9-1.1 0-1.9 0.9-1.9 1.9 0 1 0.8 1.9 1.9 1.9 1 0 1.8-0.9 1.8-1.9zm18.8 0c0-1-0.9-1.9-1.9-1.9-1 0-1.9 0.9-1.9 1.9 0 1 0.9 1.9 1.9 1.9 1 0 1.9-0.9 1.9-1.9zm18.7 0c0-1-0.8-1.9-1.9-1.9-1 0-1.8 0.9-1.8 1.9 0 1 0.8 1.9 1.8 1.9 1.1 0 1.9-0.9 1.9-1.9zm18.7 0c0-1-0.8-1.9-1.8-1.9-1.1 0-1.9 0.9-1.9 1.9 0 1 0.8 1.9 1.9 1.9 1 0 1.8-0.9 1.8-1.9zm18.7 0c0-1-0.8-1.9-1.8-1.9-1.1 0-1.9 0.9-1.9 1.9 0 1 0.8 1.9 1.9 1.9 1 0 1.8-0.9 1.8-1.9zm18.8 0c0-1-0.9-1.9-1.9-1.9-1 0-1.9 0.9-1.9 1.9 0 1 0.9 1.9 1.9 1.9 1 0 1.9-0.9 1.9-1.9zm18.7 0c0-1-0.8-1.9-1.9-1.9-1 0-1.8 0.9-1.8 1.9 0 1 0.8 1.9 1.8 1.9 1.1 0 1.9-0.9 1.9-1.9zm18.7 0c0-1-0.8-1.9-1.8-1.9-1.1 0-1.9 0.9-1.9 1.9 0 1 0.8 1.9 1.9 1.9 1 0 1.8-0.9 1.8-1.9zm18.8 0c0-1-0.9-1.9-1.9-1.9-1 0-1.9 0.9-1.9 1.9 0 1 0.9 1.9 1.9 1.9 1 0 1.9-0.9 1.9-1.9zm18.7 0c0-1-0.8-1.9-1.9-1.9-1 0-1.8 0.9-1.8 1.9 0 1 0.8 1.9 1.8 1.9 1.1 0 1.9-0.9 1.9-1.9zm-252.9 11.9c0-1-0.8-1.9-1.8-1.9-1.1 0-1.9 0.9-1.9 1.9 0 1 0.8 1.9 1.9 1.9 1 0 1.8-0.9 1.8-1.9zm18.8 0c0-1-0.9-1.9-1.9-1.9-1 0-1.9 0.9-1.9 1.9 0 1 0.9 1.9 1.9 1.9 1 0 1.9-0.9 1.9-1.9zm18.7 0c0-1-0.8-1.9-1.9-1.9-1 0-1.8 0.9-1.8 1.9 0 1 0.8 1.9 1.8 1.9 1.1 0 1.9-0.9 1.9-1.9zm18.7 0c0-1-0.8-1.9-1.8-1.9-1.1 0-1.9 0.9-1.9 1.9 0 1 0.8 1.9 1.9 1.9 1 0 1.8-0.9 1.8-1.9zm18.8 0c0-1-0.9-1.9-1.9-1.9-1 0-1.9 0.9-1.9 1.9 0 1 0.9 1.9 1.9 1.9 1 0 1.9-0.9 1.9-1.9zm18.7 0c0-1-0.8-1.9-1.9-1.9-1 0-1.8 0.9-1.8 1.9 0 1 0.8 1.9 1.8 1.9 1.1 0 1.9-0.9 1.9-1.9zm18.7 0c0-1-0.8-1.9-1.8-1.9-1.1 0-1.9 0.9-1.9 1.9 0 1 0.8 1.9 1.9 1.9 1 0 1.8-0.9 1.8-1.9zm18.8 0c0-1-0.9-1.9-1.9-1.9-1 0-1.9 0.9-1.9 1.9 0 1 0.9 1.9 1.9 1.9 1 0 1.9-0.9 1.9-1.9zm18.7 0c0-1-0.9-1.9-1.9-1.9-1 0-1.9 0.9-1.9 1.9 0 1 0.9 1.9 1.9 1.9 1 0 1.9-0.9 1.9-1.9zm18.7 0c0-1-0.8-1.9-1.9-1.9-1 0-1.8 0.9-1.8 1.9 0 1 0.8 1.9 1.8 1.9 1.1 0 1.9-0.9 1.9-1.9zm18.7 0c0-1-0.8-1.9-1.8-1.9-1.1 0-1.9 0.9-1.9 1.9 0 1 0.8 1.9 1.9 1.9 1 0 1.8-0.9 1.8-1.9zm18.8 0c0-1-0.9-1.9-1.9-1.9-1 0-1.9 0.9-1.9 1.9 0 1 0.9 1.9 1.9 1.9 1 0 1.9-0.9 1.9-1.9zm18.7 0c0-1-0.8-1.9-1.9-1.9-1 0-1.8 0.9-1.8 1.9 0 1 0.8 1.9 1.8 1.9 1.1 0 1.9-0.9 1.9-1.9zm18.7 0c0-1-0.8-1.9-1.8-1.9-1.1 0-1.9 0.9-1.9 1.9 0 1 0.8 1.9 1.9 1.9 1 0 1.8-0.9 1.8-1.9zm-252.8 11.9c0-1.1-0.9-1.9-1.9-1.9-1 0-1.9 0.8-1.9 1.9 0 1 0.9 1.8 1.9 1.8 1 0 1.9-0.8 1.9-1.8zm18.7 0c0-1.1-0.8-1.9-1.9-1.9-1 0-1.8 0.8-1.8 1.9 0 1 0.8 1.8 1.8 1.8 1.1 0 1.9-0.8 1.9-1.8zm18.7 0c0-1.1-0.8-1.9-1.8-1.9-1.1 0-1.9 0.8-1.9 1.9 0 1 0.8 1.8 1.9 1.8 1 0 1.8-0.8 1.8-1.8zm18.8 0c0-1.1-0.9-1.9-1.9-1.9-1 0-1.9 0.8-1.9 1.9 0 1 0.9 1.8 1.9 1.8 1 0 1.9-0.8 1.9-1.8zm18.7 0c0-1.1-0.8-1.9-1.9-1.9-1 0-1.8 0.8-1.8 1.9 0 1 0.8 1.8 1.8 1.8 1.1 0 1.9-0.8 1.9-1.8zm18.7 0c0-1.1-0.8-1.9-1.8-1.9-1.1 0-1.9 0.8-1.9 1.9 0 1 0.8 1.8 1.9 1.8 1 0 1.8-0.8 1.8-1.8zm18.8 0c0-1.1-0.9-1.9-1.9-1.9-1 0-1.9 0.8-1.9 1.9 0 1 0.9 1.8 1.9 1.8 1 0 1.9-0.8 1.9-1.8zm18.7 0c0-1.1-0.8-1.9-1.9-1.9-1 0-1.8 0.8-1.8 1.9 0 1 0.8 1.8 1.8 1.8 1.1 0 1.9-0.8 1.9-1.8zm18.7 0c0-1.1-0.8-1.9-1.8-1.9-1.1 0-1.9 0.8-1.9 1.9 0 1 0.8 1.8 1.9 1.8 1 0 1.8-0.8 1.8-1.8zm18.7 0c0-1.1-0.8-1.9-1.8-1.9-1.1 0-1.9 0.8-1.9 1.9 0 1 0.8 1.8 1.9 1.8 1 0 1.8-0.8 1.8-1.8zm18.8 0c0-1.1-0.9-1.9-1.9-1.9-1 0-1.9 0.8-1.9 1.9 0 1 0.9 1.8 1.9 1.8 1 0 1.9-0.8 1.9-1.8zm18.7 0c0-1.1-0.8-1.9-1.9-1.9-1 0-1.8 0.8-1.8 1.9 0 1 0.8 1.8 1.8 1.8 1.1 0 1.9-0.8 1.9-1.8zm18.7 0c0-1.1-0.8-1.9-1.8-1.9-1.1 0-1.9 0.8-1.9 1.9 0 1 0.8 1.8 1.9 1.8 1 0 1.8-0.8 1.8-1.8zm18.8 0c0-1.1-0.9-1.9-1.9-1.9-1 0-1.9 0.8-1.9 1.9 0 1 0.9 1.8 1.9 1.8 1 0 1.9-0.8 1.9-1.8zm18.7 0c0-1.1-0.8-1.9-1.9-1.9-1 0-1.8 0.8-1.8 1.9 0 1 0.8 1.8 1.8 1.8 1.1 0 1.9-0.8 1.9-1.8zm-271.6 11.9c0-1.1-0.8-1.9-1.9-1.9-1 0-1.8 0.8-1.8 1.9 0 1 0.8 1.8 1.8 1.8 1.1 0 1.9-0.8 1.9-1.8zm18.7 0c0-1.1-0.8-1.9-1.8-1.9-1.1 0-1.9 0.8-1.9 1.9 0 1 0.8 1.8 1.9 1.8 1 0 1.8-0.8 1.8-1.8zm18.8 0c0-1.1-0.9-1.9-1.9-1.9-1 0-1.9 0.8-1.9 1.9 0 1 0.9 1.8 1.9 1.8 1 0 1.9-0.8 1.9-1.8zm18.7 0c0-1.1-0.8-1.9-1.9-1.9-1 0-1.8 0.8-1.8 1.9 0 1 0.8 1.8 1.8 1.8 1.1 0 1.9-0.8 1.9-1.8zm18.7 0c0-1.1-0.8-1.9-1.8-1.9-1.1 0-1.9 0.8-1.9 1.9 0 1 0.8 1.8 1.9 1.8 1 0 1.8-0.8 1.8-1.8zm18.8 0c0-1.1-0.9-1.9-1.9-1.9-1 0-1.9 0.8-1.9 1.9 0 1 0.9 1.8 1.9 1.8 1 0 1.9-0.8 1.9-1.8zm18.7 0c0-1.1-0.8-1.9-1.9-1.9-1 0-1.8 0.8-1.8 1.9 0 1 0.8 1.8 1.8 1.8 1.1 0 1.9-0.8 1.9-1.8zm18.7 0c0-1.1-0.8-1.9-1.8-1.9-1.1 0-1.9 0.8-1.9 1.9 0 1 0.8 1.8 1.9 1.8 1 0 1.8-0.8 1.8-1.8zm18.8 0c0-1.1-0.9-1.9-1.9-1.9-1 0-1.9 0.8-1.9 1.9 0 1 0.9 1.8 1.9 1.8 1 0 1.9-0.8 1.9-1.8zm18.7 0c0-1.1-0.9-1.9-1.9-1.9-1 0-1.9 0.8-1.9 1.9 0 1 0.9 1.8 1.9 1.8 1 0 1.9-0.8 1.9-1.8zm18.7 0c0-1.1-0.8-1.9-1.9-1.9-1 0-1.8 0.8-1.8 1.9 0 1 0.8 1.8 1.8 1.8 1.1 0 1.9-0.8 1.9-1.8zm18.7 0c0-1.1-0.8-1.9-1.8-1.9-1.1 0-1.9 0.8-1.9 1.9 0 1 0.8 1.8 1.9 1.8 1 0 1.8-0.8 1.8-1.8zm18.8 0c0-1.1-0.9-1.9-1.9-1.9-1 0-1.9 0.8-1.9 1.9 0 1 0.9 1.8 1.9 1.8 1 0 1.9-0.8 1.9-1.8zm18.7 0c0-1.1-0.8-1.9-1.9-1.9-1 0-1.8 0.8-1.8 1.9 0 1 0.8 1.8 1.8 1.8 1.1 0 1.9-0.8 1.9-1.8zm18.7 0c0-1.1-0.8-1.9-1.8-1.9-1.1 0-1.9 0.8-1.9 1.9 0 1 0.8 1.8 1.9 1.8 1 0 1.8-0.8 1.8-1.8zm18.8 0c0-1.1-0.9-1.9-1.9-1.9-1 0-1.9 0.8-1.9 1.9 0 1 0.9 1.8 1.9 1.8 1 0 1.9-0.8 1.9-1.8zm-271.6 11.8c0-1-0.9-1.8-1.9-1.8-1 0-1.9 0.8-1.9 1.8 0 1.1 0.9 1.9 1.9 1.9 1 0 1.9-0.8 1.9-1.9zm18.7 0c0-1-0.8-1.8-1.9-1.8-1 0-1.8 0.8-1.8 1.8 0 1.1 0.8 1.9 1.8 1.9 1.1 0 1.9-0.8 1.9-1.9zm18.7 0c0-1-0.8-1.8-1.8-1.8-1.1 0-1.9 0.8-1.9 1.8 0 1.1 0.8 1.9 1.9 1.9 1 0 1.8-0.8 1.8-1.9zm18.8 0c0-1-0.9-1.8-1.9-1.8-1 0-1.9 0.8-1.9 1.8 0 1.1 0.9 1.9 1.9 1.9 1 0 1.9-0.8 1.9-1.9zm18.7 0c0-1-0.8-1.8-1.9-1.8-1 0-1.8 0.8-1.8 1.8 0 1.1 0.8 1.9 1.8 1.9 1.1 0 1.9-0.8 1.9-1.9zm18.7 0c0-1-0.8-1.8-1.8-1.8-1.1 0-1.9 0.8-1.9 1.8 0 1.1 0.8 1.9 1.9 1.9 1 0 1.8-0.8 1.8-1.9zm18.8 0c0-1-0.9-1.8-1.9-1.8-1 0-1.9 0.8-1.9 1.8 0 1.1 0.9 1.9 1.9 1.9 1 0 1.9-0.8 1.9-1.9zm18.7 0c0-1-0.8-1.8-1.9-1.8-1 0-1.8 0.8-1.8 1.8 0 1.1 0.8 1.9 1.8 1.9 1.1 0 1.9-0.8 1.9-1.9zm18.7 0c0-1-0.8-1.8-1.8-1.8-1.1 0-1.9 0.8-1.9 1.8 0 1.1 0.8 1.9 1.9 1.9 1 0 1.8-0.8 1.8-1.9zm18.7 0c0-1-0.8-1.8-1.8-1.8-1.1 0-1.9 0.8-1.9 1.8 0 1.1 0.8 1.9 1.9 1.9 1 0 1.8-0.8 1.8-1.9zm18.8 0c0-1-0.9-1.8-1.9-1.8-1 0-1.9 0.8-1.9 1.8 0 1.1 0.9 1.9 1.9 1.9 1 0 1.9-0.8 1.9-1.9zm18.7 0c0-1-0.8-1.8-1.9-1.8-1 0-1.8 0.8-1.8 1.8 0 1.1 0.8 1.9 1.8 1.9 1.1 0 1.9-0.8 1.9-1.9zm18.7 0c0-1-0.8-1.8-1.8-1.8-1.1 0-1.9 0.8-1.9 1.8 0 1.1 0.8 1.9 1.9 1.9 1 0 1.8-0.8 1.8-1.9zm18.8 0c0-1-0.9-1.8-1.9-1.8-1 0-1.9 0.8-1.9 1.8 0 1.1 0.9 1.9 1.9 1.9 1 0 1.9-0.8 1.9-1.9zm18.7 0c0-1-0.8-1.8-1.9-1.8-1 0-1.8 0.8-1.8 1.8 0 1.1 0.8 1.9 1.8 1.9 1.1 0 1.9-0.8 1.9-1.9zm-271.6 11.9c0-1-0.8-1.9-1.9-1.9-1 0-1.8 0.9-1.8 1.9 0 1 0.8 1.9 1.8 1.9 1.1 0 1.9-0.9 1.9-1.9zm18.7 0c0-1-0.8-1.9-1.8-1.9-1.1 0-1.9 0.9-1.9 1.9 0 1 0.8 1.9 1.9 1.9 1 0 1.8-0.9 1.8-1.9zm18.8 0c0-1-0.9-1.9-1.9-1.9-1 0-1.9 0.9-1.9 1.9 0 1 0.9 1.9 1.9 1.9 1 0 1.9-0.9 1.9-1.9zm18.7 0c0-1-0.8-1.9-1.9-1.9-1 0-1.8 0.9-1.8 1.9 0 1 0.8 1.9 1.8 1.9 1.1 0 1.9-0.9 1.9-1.9zm18.7 0c0-1-0.8-1.9-1.8-1.9-1.1 0-1.9 0.9-1.9 1.9 0 1 0.8 1.9 1.9 1.9 1 0 1.8-0.9 1.8-1.9zm18.8 0c0-1-0.9-1.9-1.9-1.9-1 0-1.9 0.9-1.9 1.9 0 1 0.9 1.9 1.9 1.9 1 0 1.9-0.9 1.9-1.9zm18.7 0c0-1-0.8-1.9-1.9-1.9-1 0-1.8 0.9-1.8 1.9 0 1 0.8 1.9 1.8 1.9 1.1 0 1.9-0.9 1.9-1.9zm18.7 0c0-1-0.8-1.9-1.8-1.9-1.1 0-1.9 0.9-1.9 1.9 0 1 0.8 1.9 1.9 1.9 1 0 1.8-0.9 1.8-1.9zm18.8 0c0-1-0.9-1.9-1.9-1.9-1 0-1.9 0.9-1.9 1.9 0 1 0.9 1.9 1.9 1.9 1 0 1.9-0.9 1.9-1.9zm18.7 0c0-1-0.9-1.9-1.9-1.9-1 0-1.9 0.9-1.9 1.9 0 1 0.9 1.9 1.9 1.9 1 0 1.9-0.9 1.9-1.9zm18.7 0c0-1-0.8-1.9-1.9-1.9-1 0-1.8 0.9-1.8 1.9 0 1 0.8 1.9 1.8 1.9 1.1 0 1.9-0.9 1.9-1.9zm18.7 0c0-1-0.8-1.9-1.8-1.9-1.1 0-1.9 0.9-1.9 1.9 0 1 0.8 1.9 1.9 1.9 1 0 1.8-0.9 1.8-1.9zm18.8 0c0-1-0.9-1.9-1.9-1.9-1 0-1.9 0.9-1.9 1.9 0 1 0.9 1.9 1.9 1.9 1 0 1.9-0.9 1.9-1.9zm18.7 0c0-1-0.8-1.9-1.9-1.9-1 0-1.8 0.9-1.8 1.9 0 1 0.8 1.9 1.8 1.9 1.1 0 1.9-0.9 1.9-1.9zm18.7 0c0-1-0.8-1.9-1.8-1.9-1.1 0-1.9 0.9-1.9 1.9 0 1 0.8 1.9 1.9 1.9 1 0 1.8-0.9 1.8-1.9zm18.8 0c0-1-0.9-1.9-1.9-1.9-1 0-1.9 0.9-1.9 1.9 0 1 0.9 1.9 1.9 1.9 1 0 1.9-0.9 1.9-1.9zm-271.6 11.9c0-1-0.9-1.9-1.9-1.9-1 0-1.9 0.9-1.9 1.9 0 1 0.9 1.9 1.9 1.9 1 0 1.9-0.9 1.9-1.9zm18.7 0c0-1-0.8-1.9-1.9-1.9-1 0-1.8 0.9-1.8 1.9 0 1 0.8 1.9 1.8 1.9 1.1 0 1.9-0.9 1.9-1.9zm18.7 0c0-1-0.8-1.9-1.8-1.9-1.1 0-1.9 0.9-1.9 1.9 0 1 0.8 1.9 1.9 1.9 1 0 1.8-0.9 1.8-1.9zm18.8 0c0-1-0.9-1.9-1.9-1.9-1 0-1.9 0.9-1.9 1.9 0 1 0.9 1.9 1.9 1.9 1 0 1.9-0.9 1.9-1.9zm18.7 0c0-1-0.8-1.9-1.9-1.9-1 0-1.8 0.9-1.8 1.9 0 1 0.8 1.9 1.8 1.9 1.1 0 1.9-0.9 1.9-1.9zm18.7 0c0-1-0.8-1.9-1.8-1.9-1.1 0-1.9 0.9-1.9 1.9 0 1 0.8 1.9 1.9 1.9 1 0 1.8-0.9 1.8-1.9zm18.8 0c0-1-0.9-1.9-1.9-1.9-1 0-1.9 0.9-1.9 1.9 0 1 0.9 1.9 1.9 1.9 1 0 1.9-0.9 1.9-1.9zm18.7 0c0-1-0.8-1.9-1.9-1.9-1 0-1.8 0.9-1.8 1.9 0 1 0.8 1.9 1.8 1.9 1.1 0 1.9-0.9 1.9-1.9zm18.7 0c0-1-0.8-1.9-1.8-1.9-1.1 0-1.9 0.9-1.9 1.9 0 1 0.8 1.9 1.9 1.9 1 0 1.8-0.9 1.8-1.9zm18.7 0c0-1-0.8-1.9-1.8-1.9-1.1 0-1.9 0.9-1.9 1.9 0 1 0.8 1.9 1.9 1.9 1 0 1.8-0.9 1.8-1.9zm18.8 0c0-1-0.9-1.9-1.9-1.9-1 0-1.9 0.9-1.9 1.9 0 1 0.9 1.9 1.9 1.9 1 0 1.9-0.9 1.9-1.9zm18.7 0c0-1-0.8-1.9-1.9-1.9-1 0-1.8 0.9-1.8 1.9 0 1 0.8 1.9 1.8 1.9 1.1 0 1.9-0.9 1.9-1.9zm18.7 0c0-1-0.8-1.9-1.8-1.9-1.1 0-1.9 0.9-1.9 1.9 0 1 0.8 1.9 1.9 1.9 1 0 1.8-0.9 1.8-1.9zm18.8 0c0-1-0.9-1.9-1.9-1.9-1 0-1.9 0.9-1.9 1.9 0 1 0.9 1.9 1.9 1.9 1 0 1.9-0.9 1.9-1.9zm18.7 0c0-1-0.8-1.9-1.9-1.9-1 0-1.8 0.9-1.8 1.9 0 1 0.8 1.9 1.8 1.9 1.1 0 1.9-0.9 1.9-1.9zm-252.9 11.9c0-1.1-0.8-1.9-1.8-1.9-1.1 0-1.9 0.8-1.9 1.9 0 1 0.8 1.8 1.9 1.8 1 0 1.8-0.8 1.8-1.8zm18.8 0c0-1.1-0.9-1.9-1.9-1.9-1 0-1.9 0.8-1.9 1.9 0 1 0.9 1.8 1.9 1.8 1 0 1.9-0.8 1.9-1.8zm18.7 0c0-1.1-0.8-1.9-1.9-1.9-1 0-1.8 0.8-1.8 1.9 0 1 0.8 1.8 1.8 1.8 1.1 0 1.9-0.8 1.9-1.8zm18.7 0c0-1.1-0.8-1.9-1.8-1.9-1.1 0-1.9 0.8-1.9 1.9 0 1 0.8 1.8 1.9 1.8 1 0 1.8-0.8 1.8-1.8zm18.8 0c0-1.1-0.9-1.9-1.9-1.9-1 0-1.9 0.8-1.9 1.9 0 1 0.9 1.8 1.9 1.8 1 0 1.9-0.8 1.9-1.8zm18.7 0c0-1.1-0.8-1.9-1.9-1.9-1 0-1.8 0.8-1.8 1.9 0 1 0.8 1.8 1.8 1.8 1.1 0 1.9-0.8 1.9-1.8zm18.7 0c0-1.1-0.8-1.9-1.8-1.9-1.1 0-1.9 0.8-1.9 1.9 0 1 0.8 1.8 1.9 1.8 1 0 1.8-0.8 1.8-1.8zm18.8 0c0-1.1-0.9-1.9-1.9-1.9-1 0-1.9 0.8-1.9 1.9 0 1 0.9 1.8 1.9 1.8 1 0 1.9-0.8 1.9-1.8zm18.7 0c0-1.1-0.9-1.9-1.9-1.9-1 0-1.9 0.8-1.9 1.9 0 1 0.9 1.8 1.9 1.8 1 0 1.9-0.8 1.9-1.8zm18.7 0c0-1.1-0.8-1.9-1.9-1.9-1 0-1.8 0.8-1.8 1.9 0 1 0.8 1.8 1.8 1.8 1.1 0 1.9-0.8 1.9-1.8zm18.7 0c0-1.1-0.8-1.9-1.8-1.9-1.1 0-1.9 0.8-1.9 1.9 0 1 0.8 1.8 1.9 1.8 1 0 1.8-0.8 1.8-1.8zm18.8 0c0-1.1-0.9-1.9-1.9-1.9-1 0-1.9 0.8-1.9 1.9 0 1 0.9 1.8 1.9 1.8 1 0 1.9-0.8 1.9-1.8zm18.7 0c0-1.1-0.8-1.9-1.9-1.9-1 0-1.8 0.8-1.8 1.9 0 1 0.8 1.8 1.8 1.8 1.1 0 1.9-0.8 1.9-1.8zm18.7 0c0-1.1-0.8-1.9-1.8-1.9-1.1 0-1.9 0.8-1.9 1.9 0 1 0.8 1.8 1.9 1.8 1 0 1.8-0.8 1.8-1.8zm-252.8 11.9c0-1.1-0.9-1.9-1.9-1.9-1 0-1.9 0.8-1.9 1.9 0 1 0.9 1.8 1.9 1.8 1 0 1.9-0.8 1.9-1.8zm18.7 0c0-1.1-0.8-1.9-1.9-1.9-1 0-1.8 0.8-1.8 1.9 0 1 0.8 1.8 1.8 1.8 1.1 0 1.9-0.8 1.9-1.8zm18.7 0c0-1.1-0.8-1.9-1.8-1.9-1.1 0-1.9 0.8-1.9 1.9 0 1 0.8 1.8 1.9 1.8 1 0 1.8-0.8 1.8-1.8zm18.8 0c0-1.1-0.9-1.9-1.9-1.9-1 0-1.9 0.8-1.9 1.9 0 1 0.9 1.8 1.9 1.8 1 0 1.9-0.8 1.9-1.8zm18.7 0c0-1.1-0.8-1.9-1.9-1.9-1 0-1.8 0.8-1.8 1.9 0 1 0.8 1.8 1.8 1.8 1.1 0 1.9-0.8 1.9-1.8zm18.7 0c0-1.1-0.8-1.9-1.8-1.9-1.1 0-1.9 0.8-1.9 1.9 0 1 0.8 1.8 1.9 1.8 1 0 1.8-0.8 1.8-1.8zm18.8 0c0-1.1-0.9-1.9-1.9-1.9-1 0-1.9 0.8-1.9 1.9 0 1 0.9 1.8 1.9 1.8 1 0 1.9-0.8 1.9-1.8zm18.7 0c0-1.1-0.8-1.9-1.9-1.9-1 0-1.8 0.8-1.8 1.9 0 1 0.8 1.8 1.8 1.8 1.1 0 1.9-0.8 1.9-1.8zm18.7 0c0-1.1-0.8-1.9-1.8-1.9-1.1 0-1.9 0.8-1.9 1.9 0 1 0.8 1.8 1.9 1.8 1 0 1.8-0.8 1.8-1.8zm18.7 0c0-1.1-0.8-1.9-1.8-1.9-1.1 0-1.9 0.8-1.9 1.9 0 1 0.8 1.8 1.9 1.8 1 0 1.8-0.8 1.8-1.8zm18.8 0c0-1.1-0.9-1.9-1.9-1.9-1 0-1.9 0.8-1.9 1.9 0 1 0.9 1.8 1.9 1.8 1 0 1.9-0.8 1.9-1.8zm18.7 0c0-1.1-0.8-1.9-1.9-1.9-1 0-1.8 0.8-1.8 1.9 0 1 0.8 1.8 1.8 1.8 1.1 0 1.9-0.8 1.9-1.8zm18.7 0c0-1.1-0.8-1.9-1.8-1.9-1.1 0-1.9 0.8-1.9 1.9 0 1 0.8 1.8 1.9 1.8 1 0 1.8-0.8 1.8-1.8zm18.8 0c0-1.1-0.9-1.9-1.9-1.9-1 0-1.9 0.8-1.9 1.9 0 1 0.9 1.8 1.9 1.8 1 0 1.9-0.8 1.9-1.8zm18.7 0c0-1.1-0.8-1.9-1.9-1.9-1 0-1.8 0.8-1.8 1.9 0 1 0.8 1.8 1.8 1.8 1.1 0 1.9-0.8 1.9-1.8zm-252.9 11.8c0-1-0.8-1.8-1.8-1.8-1.1 0-1.9 0.8-1.9 1.8 0 1.1 0.8 1.9 1.9 1.9 1 0 1.8-0.8 1.8-1.9zm18.8 0c0-1-0.9-1.8-1.9-1.8-1 0-1.9 0.8-1.9 1.8 0 1.1 0.9 1.9 1.9 1.9 1 0 1.9-0.8 1.9-1.9zm18.7 0c0-1-0.8-1.8-1.9-1.8-1 0-1.8 0.8-1.8 1.8 0 1.1 0.8 1.9 1.8 1.9 1.1 0 1.9-0.8 1.9-1.9zm18.7 0c0-1-0.8-1.8-1.8-1.8-1.1 0-1.9 0.8-1.9 1.8 0 1.1 0.8 1.9 1.9 1.9 1 0 1.8-0.8 1.8-1.9zm18.8 0c0-1-0.9-1.8-1.9-1.8-1 0-1.9 0.8-1.9 1.8 0 1.1 0.9 1.9 1.9 1.9 1 0 1.9-0.8 1.9-1.9zm18.7 0c0-1-0.8-1.8-1.9-1.8-1 0-1.8 0.8-1.8 1.8 0 1.1 0.8 1.9 1.8 1.9 1.1 0 1.9-0.8 1.9-1.9zm18.7 0c0-1-0.8-1.8-1.8-1.8-1.1 0-1.9 0.8-1.9 1.8 0 1.1 0.8 1.9 1.9 1.9 1 0 1.8-0.8 1.8-1.9zm18.8 0c0-1-0.9-1.8-1.9-1.8-1 0-1.9 0.8-1.9 1.8 0 1.1 0.9 1.9 1.9 1.9 1 0 1.9-0.8 1.9-1.9zm18.7 0c0-1-0.9-1.8-1.9-1.8-1 0-1.9 0.8-1.9 1.8 0 1.1 0.9 1.9 1.9 1.9 1 0 1.9-0.8 1.9-1.9zm18.7 0c0-1-0.8-1.8-1.9-1.8-1 0-1.8 0.8-1.8 1.8 0 1.1 0.8 1.9 1.8 1.9 1.1 0 1.9-0.8 1.9-1.9zm18.7 0c0-1-0.8-1.8-1.8-1.8-1.1 0-1.9 0.8-1.9 1.8 0 1.1 0.8 1.9 1.9 1.9 1 0 1.8-0.8 1.8-1.9zm18.8 0c0-1-0.9-1.8-1.9-1.8-1 0-1.9 0.8-1.9 1.8 0 1.1 0.9 1.9 1.9 1.9 1 0 1.9-0.8 1.9-1.9zm18.7 0c0-1-0.8-1.8-1.9-1.8-1 0-1.8 0.8-1.8 1.8 0 1.1 0.8 1.9 1.8 1.9 1.1 0 1.9-0.8 1.9-1.9zm18.7 0c0-1-0.8-1.8-1.8-1.8-1.1 0-1.9 0.8-1.9 1.8 0 1.1 0.8 1.9 1.9 1.9 1 0 1.8-0.8 1.8-1.9zm-234.1 11.9c0-1-0.8-1.9-1.9-1.9-1 0-1.8 0.9-1.8 1.9 0 1 0.8 1.9 1.8 1.9 1.1 0 1.9-0.9 1.9-1.9zm18.7 0c0-1-0.8-1.9-1.8-1.9-1.1 0-1.9 0.9-1.9 1.9 0 1 0.8 1.9 1.9 1.9 1 0 1.8-0.9 1.8-1.9zm18.8 0c0-1-0.9-1.9-1.9-1.9-1 0-1.9 0.9-1.9 1.9 0 1 0.9 1.9 1.9 1.9 1 0 1.9-0.9 1.9-1.9zm18.7 0c0-1-0.8-1.9-1.9-1.9-1 0-1.8 0.9-1.8 1.9 0 1 0.8 1.9 1.8 1.9 1.1 0 1.9-0.9 1.9-1.9zm18.7 0c0-1-0.8-1.9-1.8-1.9-1.1 0-1.9 0.9-1.9 1.9 0 1 0.8 1.9 1.9 1.9 1 0 1.8-0.9 1.8-1.9zm18.8 0c0-1-0.9-1.9-1.9-1.9-1 0-1.9 0.9-1.9 1.9 0 1 0.9 1.9 1.9 1.9 1 0 1.9-0.9 1.9-1.9zm18.7 0c0-1-0.8-1.9-1.9-1.9-1 0-1.8 0.9-1.8 1.9 0 1 0.8 1.9 1.8 1.9 1.1 0 1.9-0.9 1.9-1.9zm18.7 0c0-1-0.8-1.9-1.8-1.9-1.1 0-1.9 0.9-1.9 1.9 0 1 0.8 1.9 1.9 1.9 1 0 1.8-0.9 1.8-1.9zm18.7 0c0-1-0.8-1.9-1.8-1.9-1.1 0-1.9 0.9-1.9 1.9 0 1 0.8 1.9 1.9 1.9 1 0 1.8-0.9 1.8-1.9zm18.8 0c0-1-0.9-1.9-1.9-1.9-1 0-1.9 0.9-1.9 1.9 0 1 0.9 1.9 1.9 1.9 1 0 1.9-0.9 1.9-1.9zm18.7 0c0-1-0.8-1.9-1.9-1.9-1 0-1.8 0.9-1.8 1.9 0 1 0.8 1.9 1.8 1.9 1.1 0 1.9-0.9 1.9-1.9zm18.7 0c0-1-0.8-1.9-1.8-1.9-1.1 0-1.9 0.9-1.9 1.9 0 1 0.8 1.9 1.9 1.9 1 0 1.8-0.9 1.8-1.9zm18.8 0c0-1-0.9-1.9-1.9-1.9-1 0-1.9 0.9-1.9 1.9 0 1 0.9 1.9 1.9 1.9 1 0 1.9-0.9 1.9-1.9zm-215.4 11.9c0-1-0.9-1.9-1.9-1.9-1 0-1.9 0.9-1.9 1.9 0 1 0.9 1.9 1.9 1.9 1 0 1.9-0.9 1.9-1.9zm18.7 0c0-1-0.8-1.9-1.9-1.9-1 0-1.8 0.9-1.8 1.9 0 1 0.8 1.9 1.8 1.9 1.1 0 1.9-0.9 1.9-1.9zm18.7 0c0-1-0.8-1.9-1.8-1.9-1.1 0-1.9 0.9-1.9 1.9 0 1 0.8 1.9 1.9 1.9 1 0 1.8-0.9 1.8-1.9zm18.8 0c0-1-0.9-1.9-1.9-1.9-1 0-1.9 0.9-1.9 1.9 0 1 0.9 1.9 1.9 1.9 1 0 1.9-0.9 1.9-1.9zm18.7 0c0-1-0.8-1.9-1.9-1.9-1 0-1.8 0.9-1.8 1.9 0 1 0.8 1.9 1.8 1.9 1.1 0 1.9-0.9 1.9-1.9zm18.7 0c0-1-0.8-1.9-1.8-1.9-1.1 0-1.9 0.9-1.9 1.9 0 1 0.8 1.9 1.9 1.9 1 0 1.8-0.9 1.8-1.9zm18.8 0c0-1-0.9-1.9-1.9-1.9-1 0-1.9 0.9-1.9 1.9 0 1 0.9 1.9 1.9 1.9 1 0 1.9-0.9 1.9-1.9zm18.7 0c0-1-0.9-1.9-1.9-1.9-1 0-1.9 0.9-1.9 1.9 0 1 0.9 1.9 1.9 1.9 1 0 1.9-0.9 1.9-1.9zm18.7 0c0-1-0.8-1.9-1.9-1.9-1 0-1.8 0.9-1.8 1.9 0 1 0.8 1.9 1.8 1.9 1.1 0 1.9-0.9 1.9-1.9zm18.7 0c0-1-0.8-1.9-1.8-1.9-1.1 0-1.9 0.9-1.9 1.9 0 1 0.8 1.9 1.9 1.9 1 0 1.8-0.9 1.8-1.9zm18.8 0c0-1-0.9-1.9-1.9-1.9-1 0-1.9 0.9-1.9 1.9 0 1 0.9 1.9 1.9 1.9 1 0 1.9-0.9 1.9-1.9zm18.7 0c0-1-0.8-1.9-1.9-1.9-1 0-1.8 0.9-1.8 1.9 0 1 0.8 1.9 1.8 1.9 1.1 0 1.9-0.9 1.9-1.9zm-196.7 11.9c0-1.1-0.8-1.9-1.8-1.9-1.1 0-1.9 0.8-1.9 1.9 0 1 0.8 1.8 1.9 1.8 1 0 1.8-0.8 1.8-1.8zm18.8 0c0-1.1-0.9-1.9-1.9-1.9-1 0-1.9 0.8-1.9 1.9 0 1 0.9 1.8 1.9 1.8 1 0 1.9-0.8 1.9-1.8zm18.7 0c0-1.1-0.8-1.9-1.9-1.9-1 0-1.8 0.8-1.8 1.9 0 1 0.8 1.8 1.8 1.8 1.1 0 1.9-0.8 1.9-1.8zm18.7 0c0-1.1-0.8-1.9-1.8-1.9-1.1 0-1.9 0.8-1.9 1.9 0 1 0.8 1.8 1.9 1.8 1 0 1.8-0.8 1.8-1.8zm18.8 0c0-1.1-0.9-1.9-1.9-1.9-1 0-1.9 0.8-1.9 1.9 0 1 0.9 1.8 1.9 1.8 1 0 1.9-0.8 1.9-1.8zm18.7 0c0-1.1-0.8-1.9-1.9-1.9-1 0-1.8 0.8-1.8 1.9 0 1 0.8 1.8 1.8 1.8 1.1 0 1.9-0.8 1.9-1.8zm18.7 0c0-1.1-0.8-1.9-1.8-1.9-1.1 0-1.9 0.8-1.9 1.9 0 1 0.8 1.8 1.9 1.8 1 0 1.8-0.8 1.8-1.8zm18.7 0c0-1.1-0.8-1.9-1.8-1.9-1.1 0-1.9 0.8-1.9 1.9 0 1 0.8 1.8 1.9 1.8 1 0 1.8-0.8 1.8-1.8zm18.8 0c0-1.1-0.9-1.9-1.9-1.9-1 0-1.9 0.8-1.9 1.9 0 1 0.9 1.8 1.9 1.8 1 0 1.9-0.8 1.9-1.8zm18.7 0c0-1.1-0.8-1.9-1.9-1.9-1 0-1.8 0.8-1.8 1.9 0 1 0.8 1.8 1.8 1.8 1.1 0 1.9-0.8 1.9-1.8zm18.7 0c0-1.1-0.8-1.9-1.8-1.9-1.1 0-1.9 0.8-1.9 1.9 0 1 0.8 1.8 1.9 1.8 1 0 1.8-0.8 1.8-1.8zm-177.9 11.9c0-1.1-0.8-1.9-1.9-1.9-1 0-1.8 0.8-1.8 1.9 0 1 0.8 1.8 1.8 1.8 1.1 0 1.9-0.8 1.9-1.8zm18.7 0c0-1.1-0.8-1.9-1.8-1.9-1.1 0-1.9 0.8-1.9 1.9 0 1 0.8 1.8 1.9 1.8 1 0 1.8-0.8 1.8-1.8zm18.8 0c0-1.1-0.9-1.9-1.9-1.9-1 0-1.9 0.8-1.9 1.9 0 1 0.9 1.8 1.9 1.8 1 0 1.9-0.8 1.9-1.8zm18.7 0c0-1.1-0.8-1.9-1.9-1.9-1 0-1.8 0.8-1.8 1.9 0 1 0.8 1.8 1.8 1.8 1.1 0 1.9-0.8 1.9-1.8zm18.7 0c0-1.1-0.8-1.9-1.8-1.9-1.1 0-1.9 0.8-1.9 1.9 0 1 0.8 1.8 1.9 1.8 1 0 1.8-0.8 1.8-1.8zm18.8 0c0-1.1-0.9-1.9-1.9-1.9-1 0-1.9 0.8-1.9 1.9 0 1 0.9 1.8 1.9 1.8 1 0 1.9-0.8 1.9-1.8zm18.7 0c0-1.1-0.9-1.9-1.9-1.9-1 0-1.9 0.8-1.9 1.9 0 1 0.9 1.8 1.9 1.8 1 0 1.9-0.8 1.9-1.8zm18.7 0c0-1.1-0.8-1.9-1.9-1.9-1 0-1.8 0.8-1.8 1.9 0 1 0.8 1.8 1.8 1.8 1.1 0 1.9-0.8 1.9-1.8zm18.7 0c0-1.1-0.8-1.9-1.8-1.9-1.1 0-1.9 0.8-1.9 1.9 0 1 0.8 1.8 1.9 1.8 1 0 1.8-0.8 1.8-1.8zm18.8 0c0-1.1-0.9-1.9-1.9-1.9-1 0-1.9 0.8-1.9 1.9 0 1 0.9 1.8 1.9 1.8 1 0 1.9-0.8 1.9-1.8zm-159.2 11.8c0-1-0.9-1.8-1.9-1.8-1 0-1.9 0.8-1.9 1.8 0 1.1 0.9 1.9 1.9 1.9 1 0 1.9-0.8 1.9-1.9zm18.7 0c0-1-0.8-1.8-1.9-1.8-1 0-1.8 0.8-1.8 1.8 0 1.1 0.8 1.9 1.8 1.9 1.1 0 1.9-0.8 1.9-1.9zm18.7 0c0-1-0.8-1.8-1.8-1.8-1.1 0-1.9 0.8-1.9 1.8 0 1.1 0.8 1.9 1.9 1.9 1 0 1.8-0.8 1.8-1.9zm18.8 0c0-1-0.9-1.8-1.9-1.8-1 0-1.9 0.8-1.9 1.8 0 1.1 0.9 1.9 1.9 1.9 1 0 1.9-0.8 1.9-1.9zm18.7 0c0-1-0.8-1.8-1.9-1.8-1 0-1.8 0.8-1.8 1.8 0 1.1 0.8 1.9 1.8 1.9 1.1 0 1.9-0.8 1.9-1.9zm18.7 0c0-1-0.8-1.8-1.8-1.8-1.1 0-1.9 0.8-1.9 1.8 0 1.1 0.8 1.9 1.9 1.9 1 0 1.8-0.8 1.8-1.9zm18.7 0c0-1-0.8-1.8-1.8-1.8-1.1 0-1.9 0.8-1.9 1.8 0 1.1 0.8 1.9 1.9 1.9 1 0 1.8-0.8 1.8-1.9zm18.8 0c0-1-0.9-1.8-1.9-1.8-1 0-1.9 0.8-1.9 1.8 0 1.1 0.9 1.9 1.9 1.9 1 0 1.9-0.8 1.9-1.9zm18.7 0c0-1-0.8-1.8-1.9-1.8-1 0-1.8 0.8-1.8 1.8 0 1.1 0.8 1.9 1.8 1.9 1.1 0 1.9-0.8 1.9-1.9zm-140.5 11.9c0-1-0.8-1.9-1.8-1.9-1.1 0-1.9 0.9-1.9 1.9 0 1 0.8 1.9 1.9 1.9 1 0 1.8-0.9 1.8-1.9zm18.8 0c0-1-0.9-1.9-1.9-1.9-1 0-1.9 0.9-1.9 1.9 0 1 0.9 1.9 1.9 1.9 1 0 1.9-0.9 1.9-1.9zm18.7 0c0-1-0.8-1.9-1.9-1.9-1 0-1.8 0.9-1.8 1.9 0 1 0.8 1.9 1.8 1.9 1.1 0 1.9-0.9 1.9-1.9zm18.7 0c0-1-0.8-1.9-1.8-1.9-1.1 0-1.9 0.9-1.9 1.9 0 1 0.8 1.9 1.9 1.9 1 0 1.8-0.9 1.8-1.9zm18.8 0c0-1-0.9-1.9-1.9-1.9-1 0-1.9 0.9-1.9 1.9 0 1 0.9 1.9 1.9 1.9 1 0 1.9-0.9 1.9-1.9zm18.7 0c0-1-0.9-1.9-1.9-1.9-1 0-1.9 0.9-1.9 1.9 0 1 0.9 1.9 1.9 1.9 1 0 1.9-0.9 1.9-1.9zm18.7 0c0-1-0.8-1.9-1.9-1.9-1 0-1.8 0.9-1.8 1.9 0 1 0.8 1.9 1.8 1.9 1.1 0 1.9-0.9 1.9-1.9zm18.7 0c0-1-0.8-1.9-1.8-1.9-1.1 0-1.9 0.9-1.9 1.9 0 1 0.8 1.9 1.9 1.9 1 0 1.8-0.9 1.8-1.9zm-103 11.9c0-1-0.8-1.9-1.8-1.9-1.1 0-1.9 0.9-1.9 1.9 0 1 0.8 1.9 1.9 1.9 1 0 1.8-0.9 1.8-1.9zm18.8 0c0-1-0.9-1.9-1.9-1.9-1 0-1.9 0.9-1.9 1.9 0 1 0.9 1.9 1.9 1.9 1 0 1.9-0.9 1.9-1.9zm18.7 0c0-1-0.8-1.9-1.9-1.9-1 0-1.8 0.9-1.8 1.9 0 1 0.8 1.9 1.8 1.9 1.1 0 1.9-0.9 1.9-1.9zm18.7 0c0-1-0.8-1.9-1.8-1.9-1.1 0-1.9 0.9-1.9 1.9 0 1 0.8 1.9 1.9 1.9 1 0 1.8-0.9 1.8-1.9zm18.7 0c0-1-0.8-1.9-1.8-1.9-1.1 0-1.9 0.9-1.9 1.9 0 1 0.8 1.9 1.9 1.9 1 0 1.8-0.9 1.8-1.9z" fill="#000000"/>
			<path id="&lt;Path&gt;" class="s1" d="m395.9 917.2l-644.9-644.9 400.7-400.7 644.8 644.9z" fill="#000000"/>
			<path id="&lt;Compound Path&gt;" class="s2" d="m136.6 628.1c1.2 0 2.2 1 2.2 2.2 0 1.2-1 2.2-2.2 2.2-1.2 0-2.2-1-2.2-2.2 0-1.2 1-2.2 2.2-2.2zm-24.3 2.2c0 1.2 1 2.2 2.2 2.2 1.2 0 2.2-1 2.2-2.2 0-1.2-1-2.2-2.2-2.2-1.2 0-2.2 1-2.2 2.2zm-22 0c0 1.2 1 2.2 2.2 2.2 1.2 0 2.2-1 2.2-2.2 0-1.2-1-2.2-2.2-2.2-1.2 0-2.2 1-2.2 2.2zm-22.1 0c0 1.2 1 2.2 2.2 2.2 1.2 0 2.2-1 2.2-2.2 0-1.2-1-2.2-2.2-2.2-1.2 0-2.2 1-2.2 2.2zm99.3-14c0 1.2 0.9 2.2 2.2 2.2 1.2 0 2.2-1 2.2-2.2 0-1.2-1-2.2-2.2-2.2-1.3 0-2.2 1-2.2 2.2zm-22.1 0c0 1.2 1 2.2 2.2 2.2 1.2 0 2.2-1 2.2-2.2 0-1.2-1-2.2-2.2-2.2-1.2 0-2.2 1-2.2 2.2zm-22.1 0c0 1.2 1 2.2 2.2 2.2 1.3 0 2.2-1 2.2-2.2 0-1.2-0.9-2.2-2.2-2.2-1.2 0-2.2 1-2.2 2.2zm-22 0c0 1.2 1 2.2 2.2 2.2 1.2 0 2.2-1 2.2-2.2 0-1.2-1-2.2-2.2-2.2-1.2 0-2.2 1-2.2 2.2zm-22.1 0c0 1.2 1 2.2 2.2 2.2 1.2 0 2.2-1 2.2-2.2 0-1.2-1-2.2-2.2-2.2-1.2 0-2.2 1-2.2 2.2zm-22 0c0 1.2 1 2.2 2.2 2.2 1.2 0 2.2-1 2.2-2.2 0-1.2-1-2.2-2.2-2.2-1.2 0-2.2 1-2.2 2.2zm-22.1 0c0 1.2 1 2.2 2.2 2.2 1.2 0 2.2-1 2.2-2.2 0-1.2-1-2.2-2.2-2.2-1.2 0-2.2 1-2.2 2.2zm165.4-14c0 1.2 1 2.2 2.2 2.2 1.3 0 2.2-1 2.2-2.2 0-1.2-0.9-2.2-2.2-2.2-1.2 0-2.2 1-2.2 2.2zm-22 0c0 1.2 1 2.2 2.2 2.2 1.2 0 2.2-1 2.2-2.2 0-1.2-1-2.2-2.2-2.2-1.2 0-2.2 1-2.2 2.2zm-22.1 0c0 1.2 1 2.2 2.2 2.2 1.2 0 2.2-1 2.2-2.2 0-1.2-1-2.2-2.2-2.2-1.2 0-2.2 1-2.2 2.2zm-22 0c0 1.2 1 2.2 2.2 2.2 1.2 0 2.2-1 2.2-2.2 0-1.2-1-2.2-2.2-2.2-1.2 0-2.2 1-2.2 2.2zm-22.1 0c0 1.2 1 2.2 2.2 2.2 1.2 0 2.2-1 2.2-2.2 0-1.2-1-2.2-2.2-2.2-1.2 0-2.2 1-2.2 2.2zm-22 0c0 1.2 1 2.2 2.2 2.2 1.2 0 2.2-1 2.2-2.2 0-1.2-1-2.2-2.2-2.2-1.2 0-2.2 1-2.2 2.2zm-22.1 0c0 1.2 1 2.2 2.2 2.2 1.2 0 2.2-1 2.2-2.2 0-1.2-1-2.2-2.2-2.2-1.2 0-2.2 1-2.2 2.2zm-22 0c0 1.2 0.9 2.2 2.2 2.2 1.2 0 2.1-1 2.1-2.2 0-1.2-0.9-2.2-2.1-2.2-1.3 0-2.2 1-2.2 2.2zm-22.1 0c0 1.2 1 2.2 2.2 2.2 1.2 0 2.2-1 2.2-2.2 0-1.2-1-2.2-2.2-2.2-1.2 0-2.2 1-2.2 2.2zm-22.1 0c0 1.2 1 2.2 2.2 2.2 1.3 0 2.2-1 2.2-2.2 0-1.2-0.9-2.2-2.2-2.2-1.2 0-2.2 1-2.2 2.2zm209.6-14c0 1.2 0.9 2.2 2.2 2.2 1.2 0 2.2-1 2.2-2.2 0-1.2-1-2.2-2.2-2.2-1.3 0-2.2 1-2.2 2.2zm-22.1 0c0 1.2 1 2.2 2.2 2.2 1.2 0 2.2-1 2.2-2.2 0-1.2-1-2.2-2.2-2.2-1.2 0-2.2 1-2.2 2.2zm-22 0c0 1.2 0.9 2.2 2.2 2.2 1.2 0 2.2-1 2.2-2.2 0-1.2-1-2.2-2.2-2.2-1.3 0-2.2 1-2.2 2.2zm-22.1 0c0 1.2 1 2.2 2.2 2.2 1.2 0 2.2-1 2.2-2.2 0-1.2-1-2.2-2.2-2.2-1.2 0-2.2 1-2.2 2.2zm-22.1 0c0 1.2 1 2.2 2.2 2.2 1.3 0 2.2-1 2.2-2.2 0-1.2-0.9-2.2-2.2-2.2-1.2 0-2.2 1-2.2 2.2zm-22 0c0 1.2 1 2.2 2.2 2.2 1.2 0 2.2-1 2.2-2.2 0-1.2-1-2.2-2.2-2.2-1.2 0-2.2 1-2.2 2.2zm-22.1 0c0 1.2 1 2.2 2.2 2.2 1.2 0 2.2-1 2.2-2.2 0-1.2-1-2.2-2.2-2.2-1.2 0-2.2 1-2.2 2.2zm-22 0c0 1.2 1 2.2 2.2 2.2 1.2 0 2.2-1 2.2-2.2 0-1.2-1-2.2-2.2-2.2-1.2 0-2.2 1-2.2 2.2zm-22.1 0c0 1.2 1 2.2 2.2 2.2 1.2 0 2.2-1 2.2-2.2 0-1.2-1-2.2-2.2-2.2-1.2 0-2.2 1-2.2 2.2zm-22 0c0 1.2 1 2.2 2.2 2.2 1.2 0 2.2-1 2.2-2.2 0-1.2-1-2.2-2.2-2.2-1.2 0-2.2 1-2.2 2.2zm-22.1 0c0 1.2 1 2.2 2.2 2.2 1.2 0 2.2-1 2.2-2.2 0-1.2-1-2.2-2.2-2.2-1.2 0-2.2 1-2.2 2.2zm231.6-14c0 1.3 1 2.2 2.2 2.2 1.2 0 2.2-0.9 2.2-2.2 0-1.2-1-2.2-2.2-2.2-1.2 0-2.2 1-2.2 2.2zm-22.1 0c0 1.3 1 2.2 2.2 2.2 1.3 0 2.2-0.9 2.2-2.2 0-1.2-0.9-2.2-2.2-2.2-1.2 0-2.2 1-2.2 2.2zm-22 0c0 1.3 1 2.2 2.2 2.2 1.2 0 2.2-0.9 2.2-2.2 0-1.2-1-2.2-2.2-2.2-1.2 0-2.2 1-2.2 2.2zm-22.1 0c0 1.3 1 2.2 2.2 2.2 1.2 0 2.2-0.9 2.2-2.2 0-1.2-1-2.2-2.2-2.2-1.2 0-2.2 1-2.2 2.2zm-22 0c0 1.3 1 2.2 2.2 2.2 1.2 0 2.2-0.9 2.2-2.2 0-1.2-1-2.2-2.2-2.2-1.2 0-2.2 1-2.2 2.2zm-22.1 0c0 1.3 1 2.2 2.2 2.2 1.2 0 2.2-0.9 2.2-2.2 0-1.2-1-2.2-2.2-2.2-1.2 0-2.2 1-2.2 2.2zm-22 0c0 1.3 1 2.2 2.2 2.2 1.2 0 2.2-0.9 2.2-2.2 0-1.2-1-2.2-2.2-2.2-1.2 0-2.2 1-2.2 2.2zm-22.1 0c0 1.3 1 2.2 2.2 2.2 1.2 0 2.2-0.9 2.2-2.2 0-1.2-1-2.2-2.2-2.2-1.2 0-2.2 1-2.2 2.2zm-22 0c0 1.3 0.9 2.2 2.2 2.2 1.2 0 2.1-0.9 2.1-2.2 0-1.2-0.9-2.2-2.1-2.2-1.3 0-2.2 1-2.2 2.2zm-22.1 0c0 1.3 1 2.2 2.2 2.2 1.2 0 2.2-0.9 2.2-2.2 0-1.2-1-2.2-2.2-2.2-1.2 0-2.2 1-2.2 2.2zm-22.1 0c0 1.3 1 2.2 2.2 2.2 1.3 0 2.2-0.9 2.2-2.2 0-1.2-0.9-2.2-2.2-2.2-1.2 0-2.2 1-2.2 2.2zm-22 0c0 1.3 1 2.2 2.2 2.2 1.2 0 2.2-0.9 2.2-2.2 0-1.2-1-2.2-2.2-2.2-1.2 0-2.2 1-2.2 2.2zm253.6-14c0 1.3 1 2.2 2.2 2.2 1.2 0 2.2-0.9 2.2-2.2 0-1.2-1-2.1-2.2-2.1-1.2 0-2.2 0.9-2.2 2.1zm-22 0c0 1.3 0.9 2.2 2.2 2.2 1.2 0 2.2-0.9 2.2-2.2 0-1.2-1-2.1-2.2-2.1-1.3 0-2.2 0.9-2.2 2.1zm-22.1 0c0 1.3 1 2.2 2.2 2.2 1.2 0 2.2-0.9 2.2-2.2 0-1.2-1-2.1-2.2-2.1-1.2 0-2.2 0.9-2.2 2.1zm-22 0c0 1.3 0.9 2.2 2.2 2.2 1.2 0 2.2-0.9 2.2-2.2 0-1.2-1-2.1-2.2-2.1-1.3 0-2.2 0.9-2.2 2.1zm-22.1 0c0 1.3 1 2.2 2.2 2.2 1.2 0 2.2-0.9 2.2-2.2 0-1.2-1-2.1-2.2-2.1-1.2 0-2.2 0.9-2.2 2.1zm-22.1 0c0 1.3 1 2.2 2.2 2.2 1.3 0 2.2-0.9 2.2-2.2 0-1.2-0.9-2.1-2.2-2.1-1.2 0-2.2 0.9-2.2 2.1zm-22 0c0 1.3 1 2.2 2.2 2.2 1.2 0 2.2-0.9 2.2-2.2 0-1.2-1-2.1-2.2-2.1-1.2 0-2.2 0.9-2.2 2.1zm-22.1 0c0 1.3 1 2.2 2.2 2.2 1.2 0 2.2-0.9 2.2-2.2 0-1.2-1-2.1-2.2-2.1-1.2 0-2.2 0.9-2.2 2.1zm-22 0c0 1.3 1 2.2 2.2 2.2 1.2 0 2.2-0.9 2.2-2.2 0-1.2-1-2.1-2.2-2.1-1.2 0-2.2 0.9-2.2 2.1zm-22.1 0c0 1.3 1 2.2 2.2 2.2 1.2 0 2.2-0.9 2.2-2.2 0-1.2-1-2.1-2.2-2.1-1.2 0-2.2 0.9-2.2 2.1zm-22 0c0 1.3 1 2.2 2.2 2.2 1.2 0 2.2-0.9 2.2-2.2 0-1.2-1-2.1-2.2-2.1-1.2 0-2.2 0.9-2.2 2.1zm-22.1 0c0 1.3 1 2.2 2.2 2.2 1.2 0 2.2-0.9 2.2-2.2 0-1.2-1-2.1-2.2-2.1-1.2 0-2.2 0.9-2.2 2.1zm-22 0c0 1.3 0.9 2.2 2.2 2.2 1.2 0 2.2-0.9 2.2-2.2 0-1.2-1-2.1-2.2-2.1-1.3 0-2.2 0.9-2.2 2.1zm275.6-13.9c0 1.2 1 2.2 2.2 2.2 1.3 0 2.2-1 2.2-2.2 0-1.3-0.9-2.2-2.2-2.2-1.2 0-2.2 0.9-2.2 2.2zm-22 0c0 1.2 1 2.2 2.2 2.2 1.2 0 2.2-1 2.2-2.2 0-1.3-1-2.2-2.2-2.2-1.2 0-2.2 0.9-2.2 2.2zm-22.1 0c0 1.2 1 2.2 2.2 2.2 1.3 0 2.2-1 2.2-2.2 0-1.3-0.9-2.2-2.2-2.2-1.2 0-2.2 0.9-2.2 2.2zm-22 0c0 1.2 1 2.2 2.2 2.2 1.2 0 2.2-1 2.2-2.2 0-1.3-1-2.2-2.2-2.2-1.2 0-2.2 0.9-2.2 2.2zm-22.1 0c0 1.2 1 2.2 2.2 2.2 1.2 0 2.2-1 2.2-2.2 0-1.3-1-2.2-2.2-2.2-1.2 0-2.2 0.9-2.2 2.2zm-22 0c0 1.2 1 2.2 2.2 2.2 1.2 0 2.2-1 2.2-2.2 0-1.3-1-2.2-2.2-2.2-1.2 0-2.2 0.9-2.2 2.2zm-22.1 0c0 1.2 1 2.2 2.2 2.2 1.2 0 2.2-1 2.2-2.2 0-1.3-1-2.2-2.2-2.2-1.2 0-2.2 0.9-2.2 2.2zm-22 0c0 1.2 1 2.2 2.2 2.2 1.2 0 2.2-1 2.2-2.2 0-1.3-1-2.2-2.2-2.2-1.2 0-2.2 0.9-2.2 2.2zm-22.1 0c0 1.2 1 2.2 2.2 2.2 1.2 0 2.2-1 2.2-2.2 0-1.3-1-2.2-2.2-2.2-1.2 0-2.2 0.9-2.2 2.2zm-22 0c0 1.2 0.9 2.2 2.2 2.2 1.2 0 2.1-1 2.1-2.2 0-1.3-0.9-2.2-2.1-2.2-1.3 0-2.2 0.9-2.2 2.2zm-22.1 0c0 1.2 1 2.2 2.2 2.2 1.2 0 2.2-1 2.2-2.2 0-1.3-1-2.2-2.2-2.2-1.2 0-2.2 0.9-2.2 2.2zm-22.1 0c0 1.2 1 2.2 2.2 2.2 1.3 0 2.2-1 2.2-2.2 0-1.3-0.9-2.2-2.2-2.2-1.2 0-2.2 0.9-2.2 2.2zm-22 0c0 1.2 1 2.2 2.2 2.2 1.2 0 2.2-1 2.2-2.2 0-1.3-1-2.2-2.2-2.2-1.2 0-2.2 0.9-2.2 2.2zm-22.1 0c0 1.2 1 2.2 2.2 2.2 1.2 0 2.2-1 2.2-2.2 0-1.3-1-2.2-2.2-2.2-1.2 0-2.2 0.9-2.2 2.2zm297.8-14c0 1.2 1 2.2 2.2 2.2 1.2 0 2.2-1 2.2-2.2 0-1.2-1-2.2-2.2-2.2-1.2 0-2.2 1-2.2 2.2zm-22.1 0c0 1.2 1 2.2 2.2 2.2 1.2 0 2.2-1 2.2-2.2 0-1.2-1-2.2-2.2-2.2-1.2 0-2.2 1-2.2 2.2zm-22 0c0 1.2 0.9 2.2 2.2 2.2 1.2 0 2.2-1 2.2-2.2 0-1.2-1-2.2-2.2-2.2-1.3 0-2.2 1-2.2 2.2zm-22.1 0c0 1.2 1 2.2 2.2 2.2 1.2 0 2.2-1 2.2-2.2 0-1.2-1-2.2-2.2-2.2-1.2 0-2.2 1-2.2 2.2zm-22 0c0 1.2 0.9 2.2 2.2 2.2 1.2 0 2.2-1 2.2-2.2 0-1.2-1-2.2-2.2-2.2-1.3 0-2.2 1-2.2 2.2zm-22.1 0c0 1.2 1 2.2 2.2 2.2 1.2 0 2.2-1 2.2-2.2 0-1.2-1-2.2-2.2-2.2-1.2 0-2.2 1-2.2 2.2zm-22.1 0c0 1.2 1 2.2 2.2 2.2 1.3 0 2.2-1 2.2-2.2 0-1.2-0.9-2.2-2.2-2.2-1.2 0-2.2 1-2.2 2.2zm-22 0c0 1.2 1 2.2 2.2 2.2 1.2 0 2.2-1 2.2-2.2 0-1.2-1-2.2-2.2-2.2-1.2 0-2.2 1-2.2 2.2zm-22.1 0c0 1.2 1 2.2 2.2 2.2 1.2 0 2.2-1 2.2-2.2 0-1.2-1-2.2-2.2-2.2-1.2 0-2.2 1-2.2 2.2zm-22 0c0 1.2 1 2.2 2.2 2.2 1.2 0 2.2-1 2.2-2.2 0-1.2-1-2.2-2.2-2.2-1.2 0-2.2 1-2.2 2.2zm-22.1 0c0 1.2 1 2.2 2.2 2.2 1.2 0 2.2-1 2.2-2.2 0-1.2-1-2.2-2.2-2.2-1.2 0-2.2 1-2.2 2.2zm-22 0c0 1.2 1 2.2 2.2 2.2 1.2 0 2.2-1 2.2-2.2 0-1.2-1-2.2-2.2-2.2-1.2 0-2.2 1-2.2 2.2zm-22.1 0c0 1.2 1 2.2 2.2 2.2 1.2 0 2.2-1 2.2-2.2 0-1.2-1-2.2-2.2-2.2-1.2 0-2.2 1-2.2 2.2zm-22 0c0 1.2 0.9 2.2 2.2 2.2 1.2 0 2.2-1 2.2-2.2 0-1.2-1-2.2-2.2-2.2-1.3 0-2.2 1-2.2 2.2zm-22.1 0c0 1.2 1 2.2 2.2 2.2 1.2 0 2.2-1 2.2-2.2 0-1.2-1-2.2-2.2-2.2-1.2 0-2.2 1-2.2 2.2zm297.7-14c0 1.2 1 2.2 2.2 2.2 1.3 0 2.2-1 2.2-2.2 0-1.2-0.9-2.2-2.2-2.2-1.2 0-2.2 1-2.2 2.2zm-22 0c0 1.2 1 2.2 2.2 2.2 1.2 0 2.2-1 2.2-2.2 0-1.2-1-2.2-2.2-2.2-1.2 0-2.2 1-2.2 2.2zm-22.1 0c0 1.2 1 2.2 2.2 2.2 1.3 0 2.2-1 2.2-2.2 0-1.2-0.9-2.2-2.2-2.2-1.2 0-2.2 1-2.2 2.2zm-22 0c0 1.2 1 2.2 2.2 2.2 1.2 0 2.2-1 2.2-2.2 0-1.2-1-2.2-2.2-2.2-1.2 0-2.2 1-2.2 2.2zm-22.1 0c0 1.2 1 2.2 2.2 2.2 1.2 0 2.2-1 2.2-2.2 0-1.2-1-2.2-2.2-2.2-1.2 0-2.2 1-2.2 2.2zm-22 0c0 1.2 1 2.2 2.2 2.2 1.2 0 2.2-1 2.2-2.2 0-1.2-1-2.2-2.2-2.2-1.2 0-2.2 1-2.2 2.2zm-22.1 0c0 1.2 1 2.2 2.2 2.2 1.2 0 2.2-1 2.2-2.2 0-1.2-1-2.2-2.2-2.2-1.2 0-2.2 1-2.2 2.2zm-22 0c0 1.2 1 2.2 2.2 2.2 1.2 0 2.2-1 2.2-2.2 0-1.2-1-2.2-2.2-2.2-1.2 0-2.2 1-2.2 2.2zm-22.1 0c0 1.2 1 2.2 2.2 2.2 1.2 0 2.2-1 2.2-2.2 0-1.2-1-2.2-2.2-2.2-1.2 0-2.2 1-2.2 2.2zm-22 0c0 1.2 0.9 2.2 2.2 2.2 1.2 0 2.1-1 2.1-2.2 0-1.2-0.9-2.2-2.1-2.2-1.3 0-2.2 1-2.2 2.2zm-22.1 0c0 1.2 1 2.2 2.2 2.2 1.2 0 2.2-1 2.2-2.2 0-1.2-1-2.2-2.2-2.2-1.2 0-2.2 1-2.2 2.2zm-22.1 0c0 1.2 1 2.2 2.2 2.2 1.3 0 2.2-1 2.2-2.2 0-1.2-0.9-2.2-2.2-2.2-1.2 0-2.2 1-2.2 2.2zm-22 0c0 1.2 1 2.2 2.2 2.2 1.2 0 2.2-1 2.2-2.2 0-1.2-1-2.2-2.2-2.2-1.2 0-2.2 1-2.2 2.2zm-22.1 0c0 1.2 1 2.2 2.2 2.2 1.2 0 2.2-1 2.2-2.2 0-1.2-1-2.2-2.2-2.2-1.2 0-2.2 1-2.2 2.2zm297.8-14c0 1.2 1 2.2 2.2 2.2 1.2 0 2.2-1 2.2-2.2 0-1.2-1-2.2-2.2-2.2-1.2 0-2.2 1-2.2 2.2zm-22.1 0c0 1.2 1 2.2 2.2 2.2 1.2 0 2.2-1 2.2-2.2 0-1.2-1-2.2-2.2-2.2-1.2 0-2.2 1-2.2 2.2zm-22 0c0 1.2 0.9 2.2 2.2 2.2 1.2 0 2.2-1 2.2-2.2 0-1.2-1-2.2-2.2-2.2-1.3 0-2.2 1-2.2 2.2zm-22.1 0c0 1.2 1 2.2 2.2 2.2 1.2 0 2.2-1 2.2-2.2 0-1.2-1-2.2-2.2-2.2-1.2 0-2.2 1-2.2 2.2zm-22 0c0 1.2 0.9 2.2 2.2 2.2 1.2 0 2.2-1 2.2-2.2 0-1.2-1-2.2-2.2-2.2-1.3 0-2.2 1-2.2 2.2zm-22.1 0c0 1.2 1 2.2 2.2 2.2 1.2 0 2.2-1 2.2-2.2 0-1.2-1-2.2-2.2-2.2-1.2 0-2.2 1-2.2 2.2zm-22.1 0c0 1.2 1 2.2 2.2 2.2 1.3 0 2.2-1 2.2-2.2 0-1.2-0.9-2.2-2.2-2.2-1.2 0-2.2 1-2.2 2.2zm-22 0c0 1.2 1 2.2 2.2 2.2 1.2 0 2.2-1 2.2-2.2 0-1.2-1-2.2-2.2-2.2-1.2 0-2.2 1-2.2 2.2zm-22.1 0c0 1.2 1 2.2 2.2 2.2 1.2 0 2.2-1 2.2-2.2 0-1.2-1-2.2-2.2-2.2-1.2 0-2.2 1-2.2 2.2zm-22 0c0 1.2 1 2.2 2.2 2.2 1.2 0 2.2-1 2.2-2.2 0-1.2-1-2.2-2.2-2.2-1.2 0-2.2 1-2.2 2.2zm-22.1 0c0 1.2 1 2.2 2.2 2.2 1.2 0 2.2-1 2.2-2.2 0-1.2-1-2.2-2.2-2.2-1.2 0-2.2 1-2.2 2.2zm-22 0c0 1.2 1 2.2 2.2 2.2 1.2 0 2.2-1 2.2-2.2 0-1.2-1-2.2-2.2-2.2-1.2 0-2.2 1-2.2 2.2zm-22.1 0c0 1.2 1 2.2 2.2 2.2 1.2 0 2.2-1 2.2-2.2 0-1.2-1-2.2-2.2-2.2-1.2 0-2.2 1-2.2 2.2zm-22 0c0 1.2 0.9 2.2 2.2 2.2 1.2 0 2.2-1 2.2-2.2 0-1.2-1-2.2-2.2-2.2-1.3 0-2.2 1-2.2 2.2zm-22.1 0c0 1.2 1 2.2 2.2 2.2 1.2 0 2.2-1 2.2-2.2 0-1.2-1-2.2-2.2-2.2-1.2 0-2.2 1-2.2 2.2zm319.8-14c0 1.2 1 2.2 2.2 2.2 1.2 0 2.2-1 2.2-2.2 0-1.2-1-2.2-2.2-2.2-1.2 0-2.2 1-2.2 2.2zm-22.1 0c0 1.2 1 2.2 2.2 2.2 1.3 0 2.2-1 2.2-2.2 0-1.2-0.9-2.2-2.2-2.2-1.2 0-2.2 1-2.2 2.2zm-22 0c0 1.2 1 2.2 2.2 2.2 1.2 0 2.2-1 2.2-2.2 0-1.2-1-2.2-2.2-2.2-1.2 0-2.2 1-2.2 2.2zm-22.1 0c0 1.2 1 2.2 2.2 2.2 1.3 0 2.2-1 2.2-2.2 0-1.2-0.9-2.2-2.2-2.2-1.2 0-2.2 1-2.2 2.2zm-22 0c0 1.2 1 2.2 2.2 2.2 1.2 0 2.2-1 2.2-2.2 0-1.2-1-2.2-2.2-2.2-1.2 0-2.2 1-2.2 2.2zm-22.1 0c0 1.2 1 2.2 2.2 2.2 1.2 0 2.2-1 2.2-2.2 0-1.2-1-2.2-2.2-2.2-1.2 0-2.2 1-2.2 2.2zm-22 0c0 1.2 1 2.2 2.2 2.2 1.2 0 2.2-1 2.2-2.2 0-1.2-1-2.2-2.2-2.2-1.2 0-2.2 1-2.2 2.2zm-22.1 0c0 1.2 1 2.2 2.2 2.2 1.2 0 2.2-1 2.2-2.2 0-1.2-1-2.2-2.2-2.2-1.2 0-2.2 1-2.2 2.2zm-22 0c0 1.2 1 2.2 2.2 2.2 1.2 0 2.2-1 2.2-2.2 0-1.2-1-2.2-2.2-2.2-1.2 0-2.2 1-2.2 2.2zm-22.1 0c0 1.2 1 2.2 2.2 2.2 1.2 0 2.2-1 2.2-2.2 0-1.2-1-2.2-2.2-2.2-1.2 0-2.2 1-2.2 2.2zm-22 0c0 1.2 0.9 2.2 2.2 2.2 1.2 0 2.1-1 2.1-2.2 0-1.2-0.9-2.2-2.1-2.2-1.3 0-2.2 1-2.2 2.2zm-22.1 0c0 1.2 1 2.2 2.2 2.2 1.2 0 2.2-1 2.2-2.2 0-1.2-1-2.2-2.2-2.2-1.2 0-2.2 1-2.2 2.2zm-22.1 0c0 1.2 1 2.2 2.2 2.2 1.3 0 2.2-1 2.2-2.2 0-1.2-0.9-2.2-2.2-2.2-1.2 0-2.2 1-2.2 2.2zm-22 0c0 1.2 1 2.2 2.2 2.2 1.2 0 2.2-1 2.2-2.2 0-1.2-1-2.2-2.2-2.2-1.2 0-2.2 1-2.2 2.2zm-22.1 0c0 1.2 1 2.2 2.2 2.2 1.2 0 2.2-1 2.2-2.2 0-1.2-1-2.2-2.2-2.2-1.2 0-2.2 1-2.2 2.2zm-22 0c0 1.2 1 2.2 2.2 2.2 1.2 0 2.2-1 2.2-2.2 0-1.2-1-2.2-2.2-2.2-1.2 0-2.2 1-2.2 2.2zm319.8-14c0 1.2 1 2.2 2.2 2.2 1.2 0 2.2-1 2.2-2.2 0-1.2-1-2.2-2.2-2.2-1.2 0-2.2 1-2.2 2.2zm-22.1 0c0 1.2 1 2.2 2.2 2.2 1.2 0 2.2-1 2.2-2.2 0-1.2-1-2.2-2.2-2.2-1.2 0-2.2 1-2.2 2.2zm-22 0c0 1.2 0.9 2.2 2.2 2.2 1.2 0 2.2-1 2.2-2.2 0-1.2-1-2.2-2.2-2.2-1.3 0-2.2 1-2.2 2.2zm-22.1 0c0 1.2 1 2.2 2.2 2.2 1.2 0 2.2-1 2.2-2.2 0-1.2-1-2.2-2.2-2.2-1.2 0-2.2 1-2.2 2.2zm-22 0c0 1.2 0.9 2.2 2.2 2.2 1.2 0 2.2-1 2.2-2.2 0-1.2-1-2.2-2.2-2.2-1.3 0-2.2 1-2.2 2.2zm-22.1 0c0 1.2 1 2.2 2.2 2.2 1.2 0 2.2-1 2.2-2.2 0-1.2-1-2.2-2.2-2.2-1.2 0-2.2 1-2.2 2.2zm-22.1 0c0 1.2 1 2.2 2.2 2.2 1.3 0 2.2-1 2.2-2.2 0-1.2-0.9-2.2-2.2-2.2-1.2 0-2.2 1-2.2 2.2zm-22 0c0 1.2 1 2.2 2.2 2.2 1.2 0 2.2-1 2.2-2.2 0-1.2-1-2.2-2.2-2.2-1.2 0-2.2 1-2.2 2.2zm-22.1 0c0 1.2 1 2.2 2.2 2.2 1.2 0 2.2-1 2.2-2.2 0-1.2-1-2.2-2.2-2.2-1.2 0-2.2 1-2.2 2.2zm-22 0c0 1.2 1 2.2 2.2 2.2 1.2 0 2.2-1 2.2-2.2 0-1.2-1-2.2-2.2-2.2-1.2 0-2.2 1-2.2 2.2zm-22.1 0c0 1.2 1 2.2 2.2 2.2 1.2 0 2.2-1 2.2-2.2 0-1.2-1-2.2-2.2-2.2-1.2 0-2.2 1-2.2 2.2zm-22 0c0 1.2 1 2.2 2.2 2.2 1.2 0 2.2-1 2.2-2.2 0-1.2-1-2.2-2.2-2.2-1.2 0-2.2 1-2.2 2.2zm-22.1 0c0 1.2 1 2.2 2.2 2.2 1.2 0 2.2-1 2.2-2.2 0-1.2-1-2.2-2.2-2.2-1.2 0-2.2 1-2.2 2.2zm-22 0c0 1.2 0.9 2.2 2.2 2.2 1.2 0 2.2-1 2.2-2.2 0-1.2-1-2.2-2.2-2.2-1.3 0-2.2 1-2.2 2.2zm-22.1 0c0 1.2 1 2.2 2.2 2.2 1.2 0 2.2-1 2.2-2.2 0-1.2-1-2.2-2.2-2.2-1.2 0-2.2 1-2.2 2.2zm319.8-14c0 1.2 1 2.2 2.2 2.2 1.2 0 2.2-1 2.2-2.2 0-1.2-1-2.2-2.2-2.2-1.2 0-2.2 1-2.2 2.2zm-22.1 0c0 1.2 1 2.2 2.2 2.2 1.3 0 2.2-1 2.2-2.2 0-1.2-0.9-2.2-2.2-2.2-1.2 0-2.2 1-2.2 2.2zm-22 0c0 1.2 1 2.2 2.2 2.2 1.2 0 2.2-1 2.2-2.2 0-1.2-1-2.2-2.2-2.2-1.2 0-2.2 1-2.2 2.2zm-22.1 0c0 1.2 1 2.2 2.2 2.2 1.3 0 2.2-1 2.2-2.2 0-1.2-0.9-2.2-2.2-2.2-1.2 0-2.2 1-2.2 2.2zm-22 0c0 1.2 1 2.2 2.2 2.2 1.2 0 2.2-1 2.2-2.2 0-1.2-1-2.2-2.2-2.2-1.2 0-2.2 1-2.2 2.2zm-22.1 0c0 1.2 1 2.2 2.2 2.2 1.2 0 2.2-1 2.2-2.2 0-1.2-1-2.2-2.2-2.2-1.2 0-2.2 1-2.2 2.2zm-22 0c0 1.2 1 2.2 2.2 2.2 1.2 0 2.2-1 2.2-2.2 0-1.2-1-2.2-2.2-2.2-1.2 0-2.2 1-2.2 2.2zm-22.1 0c0 1.2 1 2.2 2.2 2.2 1.2 0 2.2-1 2.2-2.2 0-1.2-1-2.2-2.2-2.2-1.2 0-2.2 1-2.2 2.2zm-22 0c0 1.2 1 2.2 2.2 2.2 1.2 0 2.2-1 2.2-2.2 0-1.2-1-2.2-2.2-2.2-1.2 0-2.2 1-2.2 2.2zm-22.1 0c0 1.2 1 2.2 2.2 2.2 1.2 0 2.2-1 2.2-2.2 0-1.2-1-2.2-2.2-2.2-1.2 0-2.2 1-2.2 2.2zm-22 0c0 1.2 0.9 2.2 2.2 2.2 1.2 0 2.1-1 2.1-2.2 0-1.2-0.9-2.2-2.1-2.2-1.3 0-2.2 1-2.2 2.2zm-22.1 0c0 1.2 1 2.2 2.2 2.2 1.2 0 2.2-1 2.2-2.2 0-1.2-1-2.2-2.2-2.2-1.2 0-2.2 1-2.2 2.2zm-22.1 0c0 1.2 1 2.2 2.2 2.2 1.3 0 2.2-1 2.2-2.2 0-1.2-0.9-2.2-2.2-2.2-1.2 0-2.2 1-2.2 2.2zm-22 0c0 1.2 1 2.2 2.2 2.2 1.2 0 2.2-1 2.2-2.2 0-1.2-1-2.2-2.2-2.2-1.2 0-2.2 1-2.2 2.2zm-22.1 0c0 1.2 1 2.2 2.2 2.2 1.2 0 2.2-1 2.2-2.2 0-1.2-1-2.2-2.2-2.2-1.2 0-2.2 1-2.2 2.2zm-22 0c0 1.2 1 2.2 2.2 2.2 1.2 0 2.2-1 2.2-2.2 0-1.2-1-2.2-2.2-2.2-1.2 0-2.2 1-2.2 2.2zm319.8-14c0 1.2 1 2.2 2.2 2.2 1.2 0 2.2-1 2.2-2.2 0-1.2-1-2.2-2.2-2.2-1.2 0-2.2 1-2.2 2.2zm-22.1 0c0 1.2 1 2.2 2.2 2.2 1.2 0 2.2-1 2.2-2.2 0-1.2-1-2.2-2.2-2.2-1.2 0-2.2 1-2.2 2.2zm-22 0c0 1.2 0.9 2.2 2.2 2.2 1.2 0 2.2-1 2.2-2.2 0-1.2-1-2.2-2.2-2.2-1.3 0-2.2 1-2.2 2.2zm-22.1 0c0 1.2 1 2.2 2.2 2.2 1.2 0 2.2-1 2.2-2.2 0-1.2-1-2.2-2.2-2.2-1.2 0-2.2 1-2.2 2.2zm-22 0c0 1.2 0.9 2.2 2.2 2.2 1.2 0 2.2-1 2.2-2.2 0-1.2-1-2.2-2.2-2.2-1.3 0-2.2 1-2.2 2.2zm-22.1 0c0 1.2 1 2.2 2.2 2.2 1.2 0 2.2-1 2.2-2.2 0-1.2-1-2.2-2.2-2.2-1.2 0-2.2 1-2.2 2.2zm-22.1 0c0 1.2 1 2.2 2.2 2.2 1.3 0 2.2-1 2.2-2.2 0-1.2-0.9-2.2-2.2-2.2-1.2 0-2.2 1-2.2 2.2zm-22 0c0 1.2 1 2.2 2.2 2.2 1.2 0 2.2-1 2.2-2.2 0-1.2-1-2.2-2.2-2.2-1.2 0-2.2 1-2.2 2.2zm-22.1 0c0 1.2 1 2.2 2.2 2.2 1.2 0 2.2-1 2.2-2.2 0-1.2-1-2.2-2.2-2.2-1.2 0-2.2 1-2.2 2.2zm-22 0c0 1.2 1 2.2 2.2 2.2 1.2 0 2.2-1 2.2-2.2 0-1.2-1-2.2-2.2-2.2-1.2 0-2.2 1-2.2 2.2zm-22.1 0c0 1.2 1 2.2 2.2 2.2 1.2 0 2.2-1 2.2-2.2 0-1.2-1-2.2-2.2-2.2-1.2 0-2.2 1-2.2 2.2zm-22 0c0 1.2 1 2.2 2.2 2.2 1.2 0 2.2-1 2.2-2.2 0-1.2-1-2.2-2.2-2.2-1.2 0-2.2 1-2.2 2.2zm-22.1 0c0 1.2 1 2.2 2.2 2.2 1.2 0 2.2-1 2.2-2.2 0-1.2-1-2.2-2.2-2.2-1.2 0-2.2 1-2.2 2.2zm-22 0c0 1.2 0.9 2.2 2.2 2.2 1.2 0 2.2-1 2.2-2.2 0-1.2-1-2.2-2.2-2.2-1.3 0-2.2 1-2.2 2.2zm-22.1 0c0 1.2 1 2.2 2.2 2.2 1.2 0 2.2-1 2.2-2.2 0-1.2-1-2.2-2.2-2.2-1.2 0-2.2 1-2.2 2.2zm297.7-14c0 1.3 1 2.2 2.2 2.2 1.3 0 2.2-0.9 2.2-2.2 0-1.2-0.9-2.2-2.2-2.2-1.2 0-2.2 1-2.2 2.2zm-22 0c0 1.3 1 2.2 2.2 2.2 1.2 0 2.2-0.9 2.2-2.2 0-1.2-1-2.2-2.2-2.2-1.2 0-2.2 1-2.2 2.2zm-22.1 0c0 1.3 1 2.2 2.2 2.2 1.3 0 2.2-0.9 2.2-2.2 0-1.2-0.9-2.2-2.2-2.2-1.2 0-2.2 1-2.2 2.2zm-22 0c0 1.3 1 2.2 2.2 2.2 1.2 0 2.2-0.9 2.2-2.2 0-1.2-1-2.2-2.2-2.2-1.2 0-2.2 1-2.2 2.2zm-22.1 0c0 1.3 1 2.2 2.2 2.2 1.2 0 2.2-0.9 2.2-2.2 0-1.2-1-2.2-2.2-2.2-1.2 0-2.2 1-2.2 2.2zm-22 0c0 1.3 1 2.2 2.2 2.2 1.2 0 2.2-0.9 2.2-2.2 0-1.2-1-2.2-2.2-2.2-1.2 0-2.2 1-2.2 2.2zm-22.1 0c0 1.3 1 2.2 2.2 2.2 1.2 0 2.2-0.9 2.2-2.2 0-1.2-1-2.2-2.2-2.2-1.2 0-2.2 1-2.2 2.2zm-22 0c0 1.3 1 2.2 2.2 2.2 1.2 0 2.2-0.9 2.2-2.2 0-1.2-1-2.2-2.2-2.2-1.2 0-2.2 1-2.2 2.2zm-22.1 0c0 1.3 1 2.2 2.2 2.2 1.2 0 2.2-0.9 2.2-2.2 0-1.2-1-2.2-2.2-2.2-1.2 0-2.2 1-2.2 2.2zm-22 0c0 1.3 0.9 2.2 2.2 2.2 1.2 0 2.1-0.9 2.1-2.2 0-1.2-0.9-2.2-2.1-2.2-1.3 0-2.2 1-2.2 2.2zm-22.1 0c0 1.3 1 2.2 2.2 2.2 1.2 0 2.2-0.9 2.2-2.2 0-1.2-1-2.2-2.2-2.2-1.2 0-2.2 1-2.2 2.2zm-22.1 0c0 1.3 1 2.2 2.2 2.2 1.3 0 2.2-0.9 2.2-2.2 0-1.2-0.9-2.2-2.2-2.2-1.2 0-2.2 1-2.2 2.2zm-22 0c0 1.3 1 2.2 2.2 2.2 1.2 0 2.2-0.9 2.2-2.2 0-1.2-1-2.2-2.2-2.2-1.2 0-2.2 1-2.2 2.2zm-22.1 0c0 1.3 1 2.2 2.2 2.2 1.2 0 2.2-0.9 2.2-2.2 0-1.2-1-2.2-2.2-2.2-1.2 0-2.2 1-2.2 2.2zm297.8-13.9c0 1.2 1 2.1 2.2 2.1 1.2 0 2.2-0.9 2.2-2.1 0-1.3-1-2.2-2.2-2.2-1.2 0-2.2 0.9-2.2 2.2zm-22.1 0c0 1.2 1 2.1 2.2 2.1 1.2 0 2.2-0.9 2.2-2.1 0-1.3-1-2.2-2.2-2.2-1.2 0-2.2 0.9-2.2 2.2zm-22 0c0 1.2 0.9 2.1 2.2 2.1 1.2 0 2.2-0.9 2.2-2.1 0-1.3-1-2.2-2.2-2.2-1.3 0-2.2 0.9-2.2 2.2zm-22.1 0c0 1.2 1 2.1 2.2 2.1 1.2 0 2.2-0.9 2.2-2.1 0-1.3-1-2.2-2.2-2.2-1.2 0-2.2 0.9-2.2 2.2zm-22 0c0 1.2 0.9 2.1 2.2 2.1 1.2 0 2.2-0.9 2.2-2.1 0-1.3-1-2.2-2.2-2.2-1.3 0-2.2 0.9-2.2 2.2zm-22.1 0c0 1.2 1 2.1 2.2 2.1 1.2 0 2.2-0.9 2.2-2.1 0-1.3-1-2.2-2.2-2.2-1.2 0-2.2 0.9-2.2 2.2zm-22.1 0c0 1.2 1 2.1 2.2 2.1 1.3 0 2.2-0.9 2.2-2.1 0-1.3-0.9-2.2-2.2-2.2-1.2 0-2.2 0.9-2.2 2.2zm-22 0c0 1.2 1 2.1 2.2 2.1 1.2 0 2.2-0.9 2.2-2.1 0-1.3-1-2.2-2.2-2.2-1.2 0-2.2 0.9-2.2 2.2zm-22.1 0c0 1.2 1 2.1 2.2 2.1 1.2 0 2.2-0.9 2.2-2.1 0-1.3-1-2.2-2.2-2.2-1.2 0-2.2 0.9-2.2 2.2zm-22 0c0 1.2 1 2.1 2.2 2.1 1.2 0 2.2-0.9 2.2-2.1 0-1.3-1-2.2-2.2-2.2-1.2 0-2.2 0.9-2.2 2.2zm-22.1 0c0 1.2 1 2.1 2.2 2.1 1.2 0 2.2-0.9 2.2-2.1 0-1.3-1-2.2-2.2-2.2-1.2 0-2.2 0.9-2.2 2.2zm-22 0c0 1.2 1 2.1 2.2 2.1 1.2 0 2.2-0.9 2.2-2.1 0-1.3-1-2.2-2.2-2.2-1.2 0-2.2 0.9-2.2 2.2zm-22.1 0c0 1.2 1 2.1 2.2 2.1 1.2 0 2.2-0.9 2.2-2.1 0-1.3-1-2.2-2.2-2.2-1.2 0-2.2 0.9-2.2 2.2zm-22 0c0 1.2 0.9 2.1 2.2 2.1 1.2 0 2.2-0.9 2.2-2.1 0-1.3-1-2.2-2.2-2.2-1.3 0-2.2 0.9-2.2 2.2zm-22.1 0c0 1.2 1 2.1 2.2 2.1 1.2 0 2.2-0.9 2.2-2.1 0-1.3-1-2.2-2.2-2.2-1.2 0-2.2 0.9-2.2 2.2zm297.7-14c0 1.2 1 2.2 2.2 2.2 1.3 0 2.2-1 2.2-2.2 0-1.3-0.9-2.2-2.2-2.2-1.2 0-2.2 0.9-2.2 2.2zm-22 0c0 1.2 1 2.2 2.2 2.2 1.2 0 2.2-1 2.2-2.2 0-1.3-1-2.2-2.2-2.2-1.2 0-2.2 0.9-2.2 2.2zm-22.1 0c0 1.2 1 2.2 2.2 2.2 1.3 0 2.2-1 2.2-2.2 0-1.3-0.9-2.2-2.2-2.2-1.2 0-2.2 0.9-2.2 2.2zm-22 0c0 1.2 1 2.2 2.2 2.2 1.2 0 2.2-1 2.2-2.2 0-1.3-1-2.2-2.2-2.2-1.2 0-2.2 0.9-2.2 2.2zm-22.1 0c0 1.2 1 2.2 2.2 2.2 1.2 0 2.2-1 2.2-2.2 0-1.3-1-2.2-2.2-2.2-1.2 0-2.2 0.9-2.2 2.2zm-22 0c0 1.2 1 2.2 2.2 2.2 1.2 0 2.2-1 2.2-2.2 0-1.3-1-2.2-2.2-2.2-1.2 0-2.2 0.9-2.2 2.2zm-22.1 0c0 1.2 1 2.2 2.2 2.2 1.2 0 2.2-1 2.2-2.2 0-1.3-1-2.2-2.2-2.2-1.2 0-2.2 0.9-2.2 2.2zm-22 0c0 1.2 1 2.2 2.2 2.2 1.2 0 2.2-1 2.2-2.2 0-1.3-1-2.2-2.2-2.2-1.2 0-2.2 0.9-2.2 2.2zm-22.1 0c0 1.2 1 2.2 2.2 2.2 1.2 0 2.2-1 2.2-2.2 0-1.3-1-2.2-2.2-2.2-1.2 0-2.2 0.9-2.2 2.2zm-22 0c0 1.2 0.9 2.2 2.2 2.2 1.2 0 2.1-1 2.1-2.2 0-1.3-0.9-2.2-2.1-2.2-1.3 0-2.2 0.9-2.2 2.2zm-22.1 0c0 1.2 1 2.2 2.2 2.2 1.2 0 2.2-1 2.2-2.2 0-1.3-1-2.2-2.2-2.2-1.2 0-2.2 0.9-2.2 2.2zm-22.1 0c0 1.2 1 2.2 2.2 2.2 1.3 0 2.2-1 2.2-2.2 0-1.3-0.9-2.2-2.2-2.2-1.2 0-2.2 0.9-2.2 2.2zm-22 0c0 1.2 1 2.2 2.2 2.2 1.2 0 2.2-1 2.2-2.2 0-1.3-1-2.2-2.2-2.2-1.2 0-2.2 0.9-2.2 2.2zm-22.1 0c0 1.2 1 2.2 2.2 2.2 1.2 0 2.2-1 2.2-2.2 0-1.3-1-2.2-2.2-2.2-1.2 0-2.2 0.9-2.2 2.2zm275.7-14c0 1.2 1 2.2 2.2 2.2 1.2 0 2.2-1 2.2-2.2 0-1.2-1-2.2-2.2-2.2-1.2 0-2.2 1-2.2 2.2zm-22 0c0 1.2 0.9 2.2 2.2 2.2 1.2 0 2.2-1 2.2-2.2 0-1.2-1-2.2-2.2-2.2-1.3 0-2.2 1-2.2 2.2zm-22.1 0c0 1.2 1 2.2 2.2 2.2 1.2 0 2.2-1 2.2-2.2 0-1.2-1-2.2-2.2-2.2-1.2 0-2.2 1-2.2 2.2zm-22 0c0 1.2 0.9 2.2 2.2 2.2 1.2 0 2.2-1 2.2-2.2 0-1.2-1-2.2-2.2-2.2-1.3 0-2.2 1-2.2 2.2zm-22.1 0c0 1.2 1 2.2 2.2 2.2 1.2 0 2.2-1 2.2-2.2 0-1.2-1-2.2-2.2-2.2-1.2 0-2.2 1-2.2 2.2zm-22.1 0c0 1.2 1 2.2 2.2 2.2 1.3 0 2.2-1 2.2-2.2 0-1.2-0.9-2.2-2.2-2.2-1.2 0-2.2 1-2.2 2.2zm-22 0c0 1.2 1 2.2 2.2 2.2 1.2 0 2.2-1 2.2-2.2 0-1.2-1-2.2-2.2-2.2-1.2 0-2.2 1-2.2 2.2zm-22.1 0c0 1.2 1 2.2 2.2 2.2 1.2 0 2.2-1 2.2-2.2 0-1.2-1-2.2-2.2-2.2-1.2 0-2.2 1-2.2 2.2zm-22 0c0 1.2 1 2.2 2.2 2.2 1.2 0 2.2-1 2.2-2.2 0-1.2-1-2.2-2.2-2.2-1.2 0-2.2 1-2.2 2.2zm-22.1 0c0 1.2 1 2.2 2.2 2.2 1.2 0 2.2-1 2.2-2.2 0-1.2-1-2.2-2.2-2.2-1.2 0-2.2 1-2.2 2.2zm-22 0c0 1.2 1 2.2 2.2 2.2 1.2 0 2.2-1 2.2-2.2 0-1.2-1-2.2-2.2-2.2-1.2 0-2.2 1-2.2 2.2zm-22.1 0c0 1.2 1 2.2 2.2 2.2 1.2 0 2.2-1 2.2-2.2 0-1.2-1-2.2-2.2-2.2-1.2 0-2.2 1-2.2 2.2zm-22 0c0 1.2 0.9 2.2 2.2 2.2 1.2 0 2.2-1 2.2-2.2 0-1.2-1-2.2-2.2-2.2-1.3 0-2.2 1-2.2 2.2zm253.6-14c0 1.2 1 2.2 2.2 2.2 1.2 0 2.2-1 2.2-2.2 0-1.2-1-2.2-2.2-2.2-1.2 0-2.2 1-2.2 2.2zm-22.1 0c0 1.2 1 2.2 2.2 2.2 1.3 0 2.2-1 2.2-2.2 0-1.2-0.9-2.2-2.2-2.2-1.2 0-2.2 1-2.2 2.2zm-22 0c0 1.2 1 2.2 2.2 2.2 1.2 0 2.2-1 2.2-2.2 0-1.2-1-2.2-2.2-2.2-1.2 0-2.2 1-2.2 2.2zm-22.1 0c0 1.2 1 2.2 2.2 2.2 1.2 0 2.2-1 2.2-2.2 0-1.2-1-2.2-2.2-2.2-1.2 0-2.2 1-2.2 2.2zm-22 0c0 1.2 1 2.2 2.2 2.2 1.2 0 2.2-1 2.2-2.2 0-1.2-1-2.2-2.2-2.2-1.2 0-2.2 1-2.2 2.2zm-22.1 0c0 1.2 1 2.2 2.2 2.2 1.2 0 2.2-1 2.2-2.2 0-1.2-1-2.2-2.2-2.2-1.2 0-2.2 1-2.2 2.2zm-22 0c0 1.2 1 2.2 2.2 2.2 1.2 0 2.2-1 2.2-2.2 0-1.2-1-2.2-2.2-2.2-1.2 0-2.2 1-2.2 2.2zm-22.1 0c0 1.2 1 2.2 2.2 2.2 1.2 0 2.2-1 2.2-2.2 0-1.2-1-2.2-2.2-2.2-1.2 0-2.2 1-2.2 2.2zm-22 0c0 1.2 0.9 2.2 2.2 2.2 1.2 0 2.1-1 2.1-2.2 0-1.2-0.9-2.2-2.1-2.2-1.3 0-2.2 1-2.2 2.2zm-22.1 0c0 1.2 1 2.2 2.2 2.2 1.2 0 2.2-1 2.2-2.2 0-1.2-1-2.2-2.2-2.2-1.2 0-2.2 1-2.2 2.2zm-22.1 0c0 1.2 1 2.2 2.2 2.2 1.3 0 2.2-1 2.2-2.2 0-1.2-0.9-2.2-2.2-2.2-1.2 0-2.2 1-2.2 2.2zm-22 0c0 1.2 1 2.2 2.2 2.2 1.2 0 2.2-1 2.2-2.2 0-1.2-1-2.2-2.2-2.2-1.2 0-2.2 1-2.2 2.2zm231.6-14c0 1.2 0.9 2.2 2.2 2.2 1.2 0 2.2-1 2.2-2.2 0-1.2-1-2.2-2.2-2.2-1.3 0-2.2 1-2.2 2.2zm-22.1 0c0 1.2 1 2.2 2.2 2.2 1.2 0 2.2-1 2.2-2.2 0-1.2-1-2.2-2.2-2.2-1.2 0-2.2 1-2.2 2.2zm-22 0c0 1.2 0.9 2.2 2.2 2.2 1.2 0 2.2-1 2.2-2.2 0-1.2-1-2.2-2.2-2.2-1.3 0-2.2 1-2.2 2.2zm-22.1 0c0 1.2 1 2.2 2.2 2.2 1.2 0 2.2-1 2.2-2.2 0-1.2-1-2.2-2.2-2.2-1.2 0-2.2 1-2.2 2.2zm-22.1 0c0 1.2 1 2.2 2.2 2.2 1.3 0 2.2-1 2.2-2.2 0-1.2-0.9-2.2-2.2-2.2-1.2 0-2.2 1-2.2 2.2zm-22 0c0 1.2 1 2.2 2.2 2.2 1.2 0 2.2-1 2.2-2.2 0-1.2-1-2.2-2.2-2.2-1.2 0-2.2 1-2.2 2.2zm-22.1 0c0 1.2 1 2.2 2.2 2.2 1.2 0 2.2-1 2.2-2.2 0-1.2-1-2.2-2.2-2.2-1.2 0-2.2 1-2.2 2.2zm-22 0c0 1.2 1 2.2 2.2 2.2 1.2 0 2.2-1 2.2-2.2 0-1.2-1-2.2-2.2-2.2-1.2 0-2.2 1-2.2 2.2zm-22.1 0c0 1.2 1 2.2 2.2 2.2 1.2 0 2.2-1 2.2-2.2 0-1.2-1-2.2-2.2-2.2-1.2 0-2.2 1-2.2 2.2zm-22 0c0 1.2 1 2.2 2.2 2.2 1.2 0 2.2-1 2.2-2.2 0-1.2-1-2.2-2.2-2.2-1.2 0-2.2 1-2.2 2.2zm-22.1 0c0 1.2 1 2.2 2.2 2.2 1.2 0 2.2-1 2.2-2.2 0-1.2-1-2.2-2.2-2.2-1.2 0-2.2 1-2.2 2.2zm209.5-14c0 1.2 1 2.2 2.2 2.2 1.3 0 2.2-1 2.2-2.2 0-1.2-0.9-2.2-2.2-2.2-1.2 0-2.2 1-2.2 2.2zm-22 0c0 1.2 1 2.2 2.2 2.2 1.2 0 2.2-1 2.2-2.2 0-1.2-1-2.2-2.2-2.2-1.2 0-2.2 1-2.2 2.2zm-22.1 0c0 1.2 1 2.2 2.2 2.2 1.2 0 2.2-1 2.2-2.2 0-1.2-1-2.2-2.2-2.2-1.2 0-2.2 1-2.2 2.2zm-22 0c0 1.2 1 2.2 2.2 2.2 1.2 0 2.2-1 2.2-2.2 0-1.2-1-2.2-2.2-2.2-1.2 0-2.2 1-2.2 2.2zm-22.1 0c0 1.2 1 2.2 2.2 2.2 1.2 0 2.2-1 2.2-2.2 0-1.2-1-2.2-2.2-2.2-1.2 0-2.2 1-2.2 2.2zm-22 0c0 1.2 1 2.2 2.2 2.2 1.2 0 2.2-1 2.2-2.2 0-1.2-1-2.2-2.2-2.2-1.2 0-2.2 1-2.2 2.2zm-22.1 0c0 1.2 1 2.2 2.2 2.2 1.2 0 2.2-1 2.2-2.2 0-1.2-1-2.2-2.2-2.2-1.2 0-2.2 1-2.2 2.2zm-22 0c0 1.2 0.9 2.2 2.2 2.2 1.2 0 2.1-1 2.1-2.2 0-1.2-0.9-2.2-2.1-2.2-1.3 0-2.2 1-2.2 2.2zm-22.1 0c0 1.2 1 2.2 2.2 2.2 1.2 0 2.2-1 2.2-2.2 0-1.2-1-2.2-2.2-2.2-1.2 0-2.2 1-2.2 2.2zm-22.1 0c0 1.2 1 2.2 2.2 2.2 1.3 0 2.2-1 2.2-2.2 0-1.2-0.9-2.2-2.2-2.2-1.2 0-2.2 1-2.2 2.2zm187.5-14c0 1.2 1 2.2 2.2 2.2 1.2 0 2.2-1 2.2-2.2 0-1.2-1-2.2-2.2-2.2-1.2 0-2.2 1-2.2 2.2zm-22 0c0 1.2 0.9 2.2 2.2 2.2 1.2 0 2.2-1 2.2-2.2 0-1.2-1-2.2-2.2-2.2-1.3 0-2.2 1-2.2 2.2zm-22.1 0c0 1.2 1 2.2 2.2 2.2 1.2 0 2.2-1 2.2-2.2 0-1.2-1-2.2-2.2-2.2-1.2 0-2.2 1-2.2 2.2zm-22.1 0c0 1.2 1 2.2 2.2 2.2 1.3 0 2.2-1 2.2-2.2 0-1.2-0.9-2.2-2.2-2.2-1.2 0-2.2 1-2.2 2.2zm-22 0c0 1.2 1 2.2 2.2 2.2 1.2 0 2.2-1 2.2-2.2 0-1.2-1-2.2-2.2-2.2-1.2 0-2.2 1-2.2 2.2zm-22.1 0c0 1.2 1 2.2 2.2 2.2 1.2 0 2.2-1 2.2-2.2 0-1.2-1-2.2-2.2-2.2-1.2 0-2.2 1-2.2 2.2zm-22 0c0 1.2 1 2.2 2.2 2.2 1.2 0 2.2-1 2.2-2.2 0-1.2-1-2.2-2.2-2.2-1.2 0-2.2 1-2.2 2.2zm-22.1 0c0 1.2 1 2.2 2.2 2.2 1.2 0 2.2-1 2.2-2.2 0-1.2-1-2.2-2.2-2.2-1.2 0-2.2 1-2.2 2.2zm-22 0c0 1.2 1 2.2 2.2 2.2 1.2 0 2.2-1 2.2-2.2 0-1.2-1-2.2-2.2-2.2-1.2 0-2.2 1-2.2 2.2zm165.4-14c0 1.2 1 2.2 2.2 2.2 1.2 0 2.2-1 2.2-2.2 0-1.2-1-2.2-2.2-2.2-1.2 0-2.2 1-2.2 2.2zm-22.1 0c0 1.2 1 2.2 2.2 2.2 1.2 0 2.2-1 2.2-2.2 0-1.2-1-2.2-2.2-2.2-1.2 0-2.2 1-2.2 2.2zm-22 0c0 1.2 1 2.2 2.2 2.2 1.2 0 2.2-1 2.2-2.2 0-1.2-1-2.2-2.2-2.2-1.2 0-2.2 1-2.2 2.2zm-22.1 0c0 1.2 1 2.2 2.2 2.2 1.2 0 2.2-1 2.2-2.2 0-1.2-1-2.2-2.2-2.2-1.2 0-2.2 1-2.2 2.2zm-22 0c0 1.2 1 2.2 2.2 2.2 1.2 0 2.2-1 2.2-2.2 0-1.2-1-2.2-2.2-2.2-1.2 0-2.2 1-2.2 2.2zm-22.1 0c0 1.2 1 2.2 2.2 2.2 1.2 0 2.2-1 2.2-2.2 0-1.2-1-2.2-2.2-2.2-1.2 0-2.2 1-2.2 2.2zm-22 0c0 1.2 0.9 2.2 2.2 2.2 1.2 0 2.1-1 2.1-2.2 0-1.2-0.9-2.2-2.1-2.2-1.3 0-2.2 1-2.2 2.2zm-22.1 0c0 1.2 1 2.2 2.2 2.2 1.2 0 2.2-1 2.2-2.2 0-1.2-1-2.2-2.2-2.2-1.2 0-2.2 1-2.2 2.2zm121.3-14c0 1.2 1 2.2 2.2 2.2 1.2 0 2.2-1 2.2-2.2 0-1.2-1-2.2-2.2-2.2-1.2 0-2.2 1-2.2 2.2zm-22.1 0c0 1.2 1 2.2 2.2 2.2 1.3 0 2.2-1 2.2-2.2 0-1.2-0.9-2.2-2.2-2.2-1.2 0-2.2 1-2.2 2.2zm-22 0c0 1.2 1 2.2 2.2 2.2 1.2 0 2.2-1 2.2-2.2 0-1.2-1-2.2-2.2-2.2-1.2 0-2.2 1-2.2 2.2zm-22.1 0c0 1.2 1 2.2 2.2 2.2 1.2 0 2.2-1 2.2-2.2 0-1.2-1-2.2-2.2-2.2-1.2 0-2.2 1-2.2 2.2zm-22 0c0 1.2 1 2.2 2.2 2.2 1.2 0 2.2-1 2.2-2.2 0-1.2-1-2.2-2.2-2.2-1.2 0-2.2 1-2.2 2.2z" fill="#000000"/>
			<g id="&lt;Group&gt;" style="opacity: .5">
				<g id="&lt;Group&gt;">
					<path id="&lt;Path&gt;" class="s3" d="m115.6 51.4c0-34.6 28-62.7 62.6-62.7 34.6 0 62.7 28.1 62.7 62.7 0 34.6-28.1 62.6-62.7 62.6-34.6 0-62.6-28-62.6-62.6z" fill="#000000"/>
					<path id="&lt;Path&gt;" class="s4" d="m256.3 51.4c0 43.1-35 78-78.1 78-43.1 0-78.1-34.9-78.1-78 0-43.1 35-78.1 78.1-78.1 43.1 0 78.1 35 78.1 78.1z" fill="#000000"/>
					<path id="&lt;Path&gt;" class="s5" d="m271.7 51.4c0 51.6-41.8 93.5-93.5 93.5-51.6 0-93.5-41.9-93.5-93.5 0-51.7 41.9-93.5 93.5-93.5 51.7 0 93.5 41.8 93.5 93.5z" fill="#000000"/>
					<path id="&lt;Path&gt;" class="s6" d="m287.1 51.4c0 60.1-48.7 108.9-108.9 108.9-60.1 0-108.9-48.8-108.9-108.9 0-60.2 48.8-108.9 108.9-108.9 60.2 0 108.9 48.7 108.9 108.9z" fill="#000000"/>
					<path id="&lt;Path&gt;" class="s7" d="m302.5 51.4c0 68.6-55.6 124.3-124.3 124.3-68.6 0-124.3-55.7-124.3-124.3 0-68.7 55.7-124.4 124.3-124.4 68.7 0 124.3 55.7 124.3 124.4z" fill="#000000"/>
					<path id="&lt;Path&gt;" class="s8" d="m318 51.4c0 77.2-62.6 139.7-139.8 139.7-77.2 0-139.7-62.5-139.7-139.7 0-77.2 62.5-139.8 139.7-139.8 77.2 0 139.8 62.6 139.8 139.8z" fill="#000000"/>
					<path id="&lt;Path&gt;" class="s9" d="m333.4 51.4c0 85.7-69.5 155.1-155.2 155.1-85.7 0-155.1-69.4-155.1-155.1 0-85.7 69.4-155.2 155.1-155.2 85.7 0 155.2 69.5 155.2 155.2z" fill="#000000"/>
					<path id="&lt;Path&gt;" class="s10" d="m348.8 51.4c0 94.2-76.4 170.6-170.6 170.6-94.2 0-170.6-76.4-170.6-170.6 0-94.2 76.4-170.6 170.6-170.6 94.2 0 170.6 76.4 170.6 170.6z" fill="#000000"/>
					<path id="&lt;Path&gt;" class="s11" d="m-7.8 51.4c0-102.8 83.3-186 186-186 102.7 0 186 83.2 186 186 0 102.7-83.3 186-186 186-102.7 0-186-83.3-186-186z" fill="#000000"/>
				</g>
			</g>
			<g id="&lt;Group&gt;" style="opacity: .5">
				<g id="&lt;Group&gt;">
					<path id="&lt;Path&gt;" class="s12" d="m49.3 498.8c0-45.6 37-82.6 82.6-82.6 45.6 0 82.6 37 82.6 82.6 0 45.6-37 82.6-82.6 82.6-45.6 0-82.6-37-82.6-82.6z" fill="#000000"/>
					<path id="&lt;Path&gt;" class="s13" d="m234.8 498.8c0 56.8-46.1 102.9-102.9 102.9-56.8 0-102.9-46.1-102.9-102.9 0-56.8 46.1-102.9 102.9-102.9 56.8 0 102.9 46.1 102.9 102.9z" fill="#000000"/>
					<path id="&lt;Path&gt;" class="s14" d="m255.1 498.8c0 68.1-55.1 123.2-123.2 123.2-68.1 0-123.2-55.1-123.2-123.2 0-68 55.1-123.2 123.2-123.2 68.1 0 123.2 55.2 123.2 123.2z" fill="#000000"/>
					<path id="&lt;Path&gt;" class="s4" d="m275.4 498.8c0 79.3-64.2 143.6-143.5 143.6-79.3 0-143.6-64.3-143.6-143.6 0-79.3 64.3-143.5 143.6-143.5 79.3 0 143.5 64.2 143.5 143.5z" fill="#000000"/>
					<path id="&lt;Path&gt;" class="s5" d="m295.8 498.8c0 90.5-73.4 163.9-163.9 163.9-90.5 0-163.9-73.4-163.9-163.9 0-90.5 73.4-163.9 163.9-163.9 90.5 0 163.9 73.4 163.9 163.9z" fill="#000000"/>
					<path id="&lt;Path&gt;" class="s15" d="m316.1 498.8c0 101.7-82.5 184.2-184.2 184.2-101.7 0-184.2-82.5-184.2-184.2 0-101.7 82.5-184.2 184.2-184.2 101.7 0 184.2 82.5 184.2 184.2z" fill="#000000"/>
					<path id="&lt;Path&gt;" class="s8" d="m336.4 498.8c0 113-91.6 204.5-204.5 204.5-113 0-204.5-91.5-204.5-204.5 0-112.9 91.5-204.5 204.5-204.5 112.9 0 204.5 91.6 204.5 204.5z" fill="#000000"/>
					<path id="&lt;Path&gt;" class="s9" d="m356.7 498.8c0 124.2-100.6 224.9-224.8 224.9-124.2 0-224.9-100.7-224.9-224.9 0-124.2 100.7-224.8 224.9-224.8 124.2 0 224.8 100.6 224.8 224.8z" fill="#000000"/>
					<path id="&lt;Path&gt;" class="s16" d="m-113.3 498.8c0-135.4 109.8-245.2 245.2-245.2 135.4 0 245.2 109.8 245.2 245.2 0 135.4-109.8 245.2-245.2 245.2-135.4 0-245.2-109.8-245.2-245.2z" fill="#000000"/>
				</g>
			</g>
			<g id="&lt;Group&gt;" style="opacity: .5">
				<g id="&lt;Group&gt;">
					<path id="&lt;Path&gt;" class="s17" d="m631.1 298.8c0-24.7 20-44.8 44.7-44.8 24.7 0 44.8 20.1 44.8 44.8 0 24.7-20.1 44.8-44.8 44.8-24.7 0-44.7-20.1-44.7-44.8z" fill="#000000"/>
					<path id="&lt;Path&gt;" class="s15" d="m731.6 298.8c0 30.8-25 55.8-55.8 55.8-30.8 0-55.7-25-55.7-55.8 0-30.8 24.9-55.8 55.7-55.8 30.8 0 55.8 25 55.8 55.8z" fill="#000000"/>
					<path id="&lt;Path&gt;" class="s7" d="m742.6 298.8c0 36.9-29.9 66.8-66.8 66.8-36.9 0-66.8-29.9-66.8-66.8 0-36.9 29.9-66.8 66.8-66.8 36.9 0 66.8 29.9 66.8 66.8z" fill="#000000"/>
					<path id="&lt;Path&gt;" class="s8" d="m753.6 298.8c0 43-34.8 77.8-77.8 77.8-42.9 0-77.8-34.8-77.8-77.8 0-43 34.9-77.8 77.8-77.8 43 0 77.8 34.8 77.8 77.8z" fill="#000000"/>
					<path id="&lt;Path&gt;" class="s18" d="m764.6 298.8c0 49.1-39.7 88.8-88.8 88.8-49 0-88.8-39.7-88.8-88.8 0-49 39.8-88.8 88.8-88.8 49.1 0 88.8 39.8 88.8 88.8z" fill="#000000"/>
					<path id="&lt;Path&gt;" class="s19" d="m775.7 298.8c0 55.1-44.7 99.8-99.9 99.8-55.1 0-99.8-44.7-99.8-99.8 0-55.1 44.7-99.8 99.8-99.8 55.2 0 99.9 44.7 99.9 99.8z" fill="#000000"/>
					<path id="&lt;Path&gt;" class="s10" d="m786.7 298.8c0 61.2-49.7 110.8-110.9 110.8-61.2 0-110.8-49.6-110.8-110.8 0-61.2 49.6-110.8 110.8-110.8 61.2 0 110.9 49.6 110.9 110.8z" fill="#000000"/>
					<path id="&lt;Path&gt;" class="s11" d="m797.7 298.8c0 67.3-54.6 121.9-121.9 121.9-67.3 0-121.8-54.6-121.8-121.9 0-67.3 54.5-121.8 121.8-121.8 67.3 0 121.9 54.5 121.9 121.8z" fill="#000000"/>
					<path id="&lt;Path&gt;" class="s20" d="m543 298.8c0-73.4 59.5-132.9 132.8-132.9 73.4 0 132.9 59.5 132.9 132.9 0 73.4-59.5 132.9-132.9 132.9-73.3 0-132.8-59.5-132.8-132.9z" fill="#000000"/>
				</g>
			</g>
			<g id="&lt;Group&gt;" style="opacity: .5">
				<g id="&lt;Group&gt;">
					<path id="&lt;Path&gt;" class="s21" d="m317.6 352.7h62.7" fill="#000000"/>
					<path id="&lt;Path&gt;" class="s22" d="m326.5 343.8h62.7" fill="#000000"/>
					<path id="&lt;Path&gt;" class="s20" d="m335.4 334.9h62.7" fill="#000000"/>
					<path id="&lt;Path&gt;" class="s20" d="m344.3 326h62.7" fill="#000000"/>
					<path id="&lt;Path&gt;" class="s11" d="m353.2 317.1h62.7" fill="#000000"/>
					<path id="&lt;Path&gt;" class="s11" d="m362.1 308.2h62.7" fill="#000000"/>
					<path id="&lt;Path&gt;" class="s16" d="m371 299.3h62.7" fill="#000000"/>
					<path id="&lt;Path&gt;" class="s16" d="m379.9 290.4h62.7" fill="#000000"/>
					<path id="&lt;Path&gt;" class="s10" d="m388.8 281.5h62.7" fill="#000000"/>
					<path id="&lt;Path&gt;" class="s10" d="m397.7 272.6h62.7" fill="#000000"/>
					<path id="&lt;Path&gt;" class="s19" d="m406.6 263.7h62.7" fill="#000000"/>
					<path id="&lt;Path&gt;" class="s19" d="m415.5 254.8h62.7" fill="#000000"/>
					<path id="&lt;Path&gt;" class="s9" d="m424.4 245.9h62.7" fill="#000000"/>
					<path id="&lt;Path&gt;" class="s9" d="m433.3 237h62.7" fill="#000000"/>
					<path id="&lt;Path&gt;" class="s18" d="m442.2 228.1h62.7" fill="#000000"/>
					<path id="&lt;Path&gt;" class="s18" d="m451.1 219.2h62.7" fill="#000000"/>
					<path id="&lt;Path&gt;" class="s8" d="m460 210.3h62.8" fill="#000000"/>
					<path id="&lt;Path&gt;" class="s8" d="m468.9 201.4h62.8" fill="#000000"/>
					<path id="&lt;Path&gt;" class="s23" d="m477.8 192.5h62.7" fill="#000000"/>
					<path id="&lt;Path&gt;" class="s23" d="m486.7 183.6h62.8" fill="#000000"/>
					<path id="&lt;Path&gt;" class="s7" d="m495.6 174.7h62.8" fill="#000000"/>
					<path id="&lt;Path&gt;" class="s7" d="m504.5 165.8h62.8" fill="#000000"/>
					<path id="&lt;Path&gt;" class="s15" d="m513.4 156.9h62.8" fill="#000000"/>
					<path id="&lt;Path&gt;" class="s15" d="m522.3 148h62.8" fill="#000000"/>
					<path id="&lt;Path&gt;" class="s6" d="m531.2 139.1h62.8" fill="#000000"/>
					<path id="&lt;Path&gt;" class="s6" d="m540.1 130.2h62.8" fill="#000000"/>
					<path id="&lt;Path&gt;" class="s17" d="m549 121.3h62.8" fill="#000000"/>
					<path id="&lt;Path&gt;" class="s5" d="m557.9 112.4h62.8" fill="#000000"/>
					<path id="&lt;Path&gt;" class="s5" d="m566.8 103.5h62.8" fill="#000000"/>
					<path id="&lt;Path&gt;" class="s24" d="m575.7 94.6h62.8" fill="#000000"/>
					<path id="&lt;Path&gt;" class="s24" d="m584.6 85.7h62.8" fill="#000000"/>
					<path id="&lt;Path&gt;" class="s4" d="m593.5 76.8h62.8" fill="#000000"/>
					<path id="&lt;Path&gt;" class="s4" d="m602.4 67.9h62.8" fill="#000000"/>
					<path id="&lt;Path&gt;" class="s25" d="m611.3 59h62.8" fill="#000000"/>
					<path id="&lt;Path&gt;" class="s25" d="m620.2 50.1h62.8" fill="#000000"/>
					<path id="&lt;Path&gt;" class="s3" d="m629.1 41.2h62.8" fill="#000000"/>
					<path id="&lt;Path&gt;" class="s3" d="m638 32.3h62.8" fill="#000000"/>
					<path id="&lt;Path&gt;" class="s14" d="m646.9 23.4h62.8" fill="#000000"/>
					<path id="&lt;Path&gt;" class="s14" d="m655.8 14.5h62.8" fill="#000000"/>
					<path id="&lt;Path&gt;" class="s26" d="m664.7 5.6h62.8" fill="#000000"/>
					<path id="&lt;Path&gt;" class="s26" d="m673.6-3.3h62.8" fill="#000000"/>
					<path id="&lt;Path&gt;" class="s27" d="m682.5-12.2h62.8" fill="#000000"/>
					<path id="&lt;Path&gt;" class="s27" d="m691.4-21.1h62.8" fill="#000000"/>
					<path id="&lt;Path&gt;" class="s13" d="m700.3-30h62.8" fill="#000000"/>
					<path id="&lt;Path&gt;" class="s13" d="m709.2-38.9h62.8" fill="#000000"/>
					<path id="&lt;Path&gt;" class="s28" d="m718.1-47.8h62.8" fill="#000000"/>
					<path id="&lt;Path&gt;" class="s28" d="m727-56.7h62.8" fill="#000000"/>
					<path id="&lt;Path&gt;" class="s12" d="m735.9-65.6h62.8" fill="#000000"/>
					<path id="&lt;Path&gt;" class="s12" d="m744.8-74.5h62.8" fill="#000000"/>
					<path id="&lt;Path&gt;" class="s29" d="m753.7-83.4h62.8" fill="#000000"/>
					<path id="&lt;Path&gt;" class="s29" d="m762.6-92.3h62.8" fill="#000000"/>
					<path id="&lt;Path&gt;" class="s30" d="m771.5-101.2h62.8" fill="#000000"/>
				</g>
			</g>
			<g id="&lt;Group&gt;" style="opacity: .5">
				<g id="&lt;Group&gt;">
					<path id="&lt;Path&gt;" class="s21" d="m242.3 16.2h-62.8" fill="#000000"/>
					<path id="&lt;Path&gt;" class="s22" d="m233.4 25.1h-62.8" fill="#000000"/>
					<path id="&lt;Path&gt;" class="s20" d="m224.5 34h-62.8" fill="#000000"/>
					<path id="&lt;Path&gt;" class="s20" d="m215.6 42.9h-62.8" fill="#000000"/>
					<path id="&lt;Path&gt;" class="s11" d="m206.7 51.8h-62.8" fill="#000000"/>
					<path id="&lt;Path&gt;" class="s11" d="m197.8 60.7h-62.8" fill="#000000"/>
					<path id="&lt;Path&gt;" class="s16" d="m188.9 69.6h-62.8" fill="#000000"/>
					<path id="&lt;Path&gt;" class="s16" d="m180 78.5h-62.8" fill="#000000"/>
					<path id="&lt;Path&gt;" class="s10" d="m171.1 87.4h-62.8" fill="#000000"/>
					<path id="&lt;Path&gt;" class="s10" d="m162.2 96.3h-62.8" fill="#000000"/>
					<path id="&lt;Path&gt;" class="s19" d="m153.3 105.2h-62.8" fill="#000000"/>
					<path id="&lt;Path&gt;" class="s19" d="m144.4 114.1h-62.8" fill="#000000"/>
					<path id="&lt;Path&gt;" class="s9" d="m135.5 123h-62.8" fill="#000000"/>
					<path id="&lt;Path&gt;" class="s9" d="m126.6 131.9h-62.8" fill="#000000"/>
					<path id="&lt;Path&gt;" class="s18" d="m117.7 140.8h-62.8" fill="#000000"/>
					<path id="&lt;Path&gt;" class="s18" d="m108.8 149.7h-62.8" fill="#000000"/>
					<path id="&lt;Path&gt;" class="s8" d="m99.9 158.6h-62.8" fill="#000000"/>
					<path id="&lt;Path&gt;" class="s8" d="m91 167.5h-62.8" fill="#000000"/>
					<path id="&lt;Path&gt;" class="s23" d="m82.1 176.4h-62.8" fill="#000000"/>
					<path id="&lt;Path&gt;" class="s23" d="m73.2 185.3h-62.8" fill="#000000"/>
					<path id="&lt;Path&gt;" class="s7" d="m64.3 194.2h-62.8" fill="#000000"/>
					<path id="&lt;Path&gt;" class="s7" d="m55.4 203.1h-62.8" fill="#000000"/>
					<path id="&lt;Path&gt;" class="s15" d="m46.5 212h-62.8" fill="#000000"/>
					<path id="&lt;Path&gt;" class="s15" d="m37.6 220.9h-62.8" fill="#000000"/>
					<path id="&lt;Path&gt;" class="s6" d="m28.7 229.8h-62.8" fill="#000000"/>
					<path id="&lt;Path&gt;" class="s6" d="m19.8 238.7h-62.8" fill="#000000"/>
					<path id="&lt;Path&gt;" class="s17" d="m10.9 247.6h-62.8" fill="#000000"/>
					<path id="&lt;Path&gt;" class="s5" d="m2 256.5h-62.8" fill="#000000"/>
					<path id="&lt;Path&gt;" class="s5" d="m-6.9 265.4h-62.8" fill="#000000"/>
					<path id="&lt;Path&gt;" class="s24" d="m-15.8 274.3h-62.8" fill="#000000"/>
					<path id="&lt;Path&gt;" class="s24" d="m-24.7 283.2h-62.8" fill="#000000"/>
					<path id="&lt;Path&gt;" class="s4" d="m-33.6 292.1h-62.8" fill="#000000"/>
					<path id="&lt;Path&gt;" class="s4" d="m-42.5 301h-62.8" fill="#000000"/>
					<path id="&lt;Path&gt;" class="s25" d="m-51.5 309.9h-62.7" fill="#000000"/>
					<path id="&lt;Path&gt;" class="s25" d="m-60.3 318.8h-62.8" fill="#000000"/>
					<path id="&lt;Path&gt;" class="s3" d="m-69.3 327.7h-62.7" fill="#000000"/>
					<path id="&lt;Path&gt;" class="s3" d="m-78.2 336.6h-62.7" fill="#000000"/>
					<path id="&lt;Path&gt;" class="s14" d="m-87.1 345.5h-62.7" fill="#000000"/>
					<path id="&lt;Path&gt;" class="s14" d="m-96 354.4h-62.7" fill="#000000"/>
					<path id="&lt;Path&gt;" class="s26" d="m-104.9 363.3h-62.7" fill="#000000"/>
					<path id="&lt;Path&gt;" class="s26" d="m-113.8 372.2h-62.7" fill="#000000"/>
					<path id="&lt;Path&gt;" class="s27" d="m-122.7 381.1h-62.7" fill="#000000"/>
					<path id="&lt;Path&gt;" class="s27" d="m-131.6 390h-62.7" fill="#000000"/>
					<path id="&lt;Path&gt;" class="s13" d="m-140.5 398.9h-62.7" fill="#000000"/>
					<path id="&lt;Path&gt;" class="s13" d="m-149.4 407.8h-62.7" fill="#000000"/>
					<path id="&lt;Path&gt;" class="s28" d="m-158.3 416.7h-62.7" fill="#000000"/>
					<path id="&lt;Path&gt;" class="s28" d="m-167.2 425.6h-62.7" fill="#000000"/>
					<path id="&lt;Path&gt;" class="s12" d="m-176.1 434.5h-62.7" fill="#000000"/>
					<path id="&lt;Path&gt;" class="s12" d="m-185 443.4h-62.7" fill="#000000"/>
					<path id="&lt;Path&gt;" class="s29" d="m-193.9 452.3h-62.7" fill="#000000"/>
					<path id="&lt;Path&gt;" class="s29" d="m-202.8 461.2h-62.7" fill="#000000"/>
					<path id="&lt;Path&gt;" class="s30" d="m-211.7 470.1h-62.7" fill="#000000"/>
				</g>
			</g>
			<path id="&lt;Path&gt;" class="s31" d="m23.7 121l-0.3-0.2 51.5-51.5 0.3 0.3z" fill="#000000"/>
			<path id="&lt;Path&gt;" class="s32" d="m256.4 411.2l-0.4-0.4 77.5-77.5 0.4 0.4z" fill="#000000"/>
			<path id="&lt;Path&gt;" class="s33" d="m446.5 495.3l-0.3-0.3 51.5-51.4 0.2 0.2z" fill="#000000"/>
			<path id="&lt;Path&gt;" class="s34" d="m484.3 374.2c0-18.4 14.9-33.3 33.3-33.3 18.4 0 33.3 14.9 33.3 33.3 0 18.4-14.9 33.3-33.3 33.3-18.4 0-33.3-14.9-33.3-33.3z" fill="#000000"/>
			<path id="&lt;Path&gt;" class="s35" d="m384.1 171.4c0-6.9 5.6-12.4 12.4-12.4 6.9 0 12.5 5.5 12.5 12.4 0 6.9-5.6 12.5-12.5 12.5-6.8 0-12.4-5.6-12.4-12.5z" fill="#000000"/>
			<path id="&lt;Path&gt;" class="s3" d="m575.9 456.5c0-4.4 3.6-8.1 8.1-8.1 4.4 0 8 3.7 8 8.1 0 4.5-3.6 8.1-8 8.1-4.5 0-8.1-3.6-8.1-8.1z" fill="#000000"/>
			<path id="&lt;Path&gt;" class="s35" d="m55.2 247.4c0-6.6 5.4-12 12-12 6.6 0 11.9 5.4 11.9 12 0 6.6-5.3 11.9-11.9 11.9-6.6 0-12-5.3-12-11.9z" fill="#000000"/>
			<g id="&lt;Group&gt;">
				<g id="&lt;Group&gt;">
					<path id="&lt;Path&gt;" class="s36" d="m444.8 80.3c0-29.4 23.8-53.1 53.1-53.1 29.4 0 53.2 23.7 53.2 53.1 0 29.3-23.8 53.1-53.2 53.1-29.3 0-53.1-23.8-53.1-53.1z" fill="#000000"/>
				</g>
			</g>
			<g id="&lt;Group&gt;">
				<g id="&lt;Group&gt;">
					<path id="&lt;Path&gt;" class="s37" d="m58.6 218.5c0-40 32.4-72.4 72.5-72.4 40 0 72.4 32.4 72.4 72.4 0 40.1-32.4 72.5-72.4 72.5-40.1 0-72.5-32.4-72.5-72.5z" fill="#000000"/>
				</g>
			</g>
			<g id="&lt;Group&gt;" style="opacity: .5">
				<g id="&lt;Group&gt;">
					<path id="&lt;Path&gt;" class="s21" d="m850.5 317.7h-62.8" fill="#000000"/>
					<path id="&lt;Path&gt;" class="s22" d="m841.6 326.6h-62.8" fill="#000000"/>
					<path id="&lt;Path&gt;" class="s20" d="m832.7 335.5h-62.8" fill="#000000"/>
					<path id="&lt;Path&gt;" class="s20" d="m823.8 344.4h-62.8" fill="#000000"/>
					<path id="&lt;Path&gt;" class="s11" d="m814.9 353.3h-62.8" fill="#000000"/>
					<path id="&lt;Path&gt;" class="s11" d="m806 362.2h-62.8" fill="#000000"/>
					<path id="&lt;Path&gt;" class="s16" d="m797.1 371.1h-62.8" fill="#000000"/>
					<path id="&lt;Path&gt;" class="s16" d="m788.2 380h-62.8" fill="#000000"/>
					<path id="&lt;Path&gt;" class="s10" d="m779.3 388.9h-62.8" fill="#000000"/>
					<path id="&lt;Path&gt;" class="s10" d="m770.4 397.8h-62.8" fill="#000000"/>
					<path id="&lt;Path&gt;" class="s19" d="m761.5 406.7h-62.8" fill="#000000"/>
					<path id="&lt;Path&gt;" class="s19" d="m752.6 415.6h-62.8" fill="#000000"/>
					<path id="&lt;Path&gt;" class="s9" d="m743.7 424.5h-62.8" fill="#000000"/>
					<path id="&lt;Path&gt;" class="s9" d="m734.8 433.4h-62.8" fill="#000000"/>
					<path id="&lt;Path&gt;" class="s18" d="m725.9 442.3h-62.8" fill="#000000"/>
					<path id="&lt;Path&gt;" class="s18" d="m717 451.2h-62.8" fill="#000000"/>
					<path id="&lt;Path&gt;" class="s8" d="m708.1 460.1h-62.8" fill="#000000"/>
					<path id="&lt;Path&gt;" class="s8" d="m699.2 469h-62.8" fill="#000000"/>
					<path id="&lt;Path&gt;" class="s23" d="m690.3 477.9h-62.8" fill="#000000"/>
					<path id="&lt;Path&gt;" class="s23" d="m681.4 486.8h-62.8" fill="#000000"/>
					<path id="&lt;Path&gt;" class="s7" d="m672.5 495.7h-62.8" fill="#000000"/>
					<path id="&lt;Path&gt;" class="s7" d="m663.5 504.6h-62.7" fill="#000000"/>
					<path id="&lt;Path&gt;" class="s15" d="m654.6 513.5h-62.7" fill="#000000"/>
					<path id="&lt;Path&gt;" class="s15" d="m645.7 522.4h-62.7" fill="#000000"/>
					<path id="&lt;Path&gt;" class="s6" d="m636.8 531.3h-62.7" fill="#000000"/>
					<path id="&lt;Path&gt;" class="s6" d="m627.9 540.2h-62.7" fill="#000000"/>
					<path id="&lt;Path&gt;" class="s17" d="m619 549.1h-62.7" fill="#000000"/>
					<path id="&lt;Path&gt;" class="s5" d="m610.1 558h-62.7" fill="#000000"/>
					<path id="&lt;Path&gt;" class="s5" d="m601.2 566.9h-62.7" fill="#000000"/>
					<path id="&lt;Path&gt;" class="s24" d="m592.3 575.8h-62.7" fill="#000000"/>
					<path id="&lt;Path&gt;" class="s24" d="m583.4 584.7h-62.7" fill="#000000"/>
					<path id="&lt;Path&gt;" class="s4" d="m574.5 593.6h-62.7" fill="#000000"/>
					<path id="&lt;Path&gt;" class="s4" d="m565.6 602.5h-62.7" fill="#000000"/>
					<path id="&lt;Path&gt;" class="s25" d="m556.7 611.4h-62.7" fill="#000000"/>
					<path id="&lt;Path&gt;" class="s25" d="m547.8 620.3h-62.7" fill="#000000"/>
					<path id="&lt;Path&gt;" class="s3" d="m538.9 629.2h-62.7" fill="#000000"/>
					<path id="&lt;Path&gt;" class="s3" d="m530 638.1h-62.7" fill="#000000"/>
					<path id="&lt;Path&gt;" class="s14" d="m521.1 647h-62.7" fill="#000000"/>
					<path id="&lt;Path&gt;" class="s14" d="m512.2 655.9h-62.7" fill="#000000"/>
					<path id="&lt;Path&gt;" class="s26" d="m503.3 664.8h-62.7" fill="#000000"/>
					<path id="&lt;Path&gt;" class="s26" d="m494.4 673.7h-62.7" fill="#000000"/>
					<path id="&lt;Path&gt;" class="s27" d="m485.5 682.6h-62.7" fill="#000000"/>
					<path id="&lt;Path&gt;" class="s27" d="m476.6 691.5h-62.7" fill="#000000"/>
					<path id="&lt;Path&gt;" class="s13" d="m467.7 700.4h-62.7" fill="#000000"/>
					<path id="&lt;Path&gt;" class="s13" d="m458.8 709.3h-62.7" fill="#000000"/>
					<path id="&lt;Path&gt;" class="s28" d="m449.9 718.2h-62.7" fill="#000000"/>
					<path id="&lt;Path&gt;" class="s28" d="m441 727.1h-62.7" fill="#000000"/>
					<path id="&lt;Path&gt;" class="s12" d="m432.1 736h-62.7" fill="#000000"/>
					<path id="&lt;Path&gt;" class="s12" d="m423.2 744.9h-62.7" fill="#000000"/>
					<path id="&lt;Path&gt;" class="s29" d="m414.3 753.8h-62.7" fill="#000000"/>
					<path id="&lt;Path&gt;" class="s29" d="m405.4 762.7h-62.7" fill="#000000"/>
					<path id="&lt;Path&gt;" class="s30" d="m396.5 771.6h-62.7" fill="#000000"/>
				</g>
			</g>
		</g>
	</g>
</svg>