<svg width="32" height="26" viewBox="0 0 32 26" fill="none" xmlns="http://www.w3.org/2000/svg">
<path fill-rule="evenodd" clip-rule="evenodd" d="M6.90632 0.608307C5.13116 0.608307 3.81763 2.16204 3.87645 3.84702C3.9329 5.46583 3.85956 7.56243 3.33176 9.2722C2.80208 10.9868 1.90691 12.0733 0.444444 12.2128V13.7873C1.90691 13.927 2.80208 15.013 3.3317 16.7278C3.85956 18.4376 3.93284 20.5342 3.87639 22.153C3.81757 23.8377 5.1311 25.3917 6.90656 25.3917H25.096C26.8712 25.3917 28.1845 23.838 28.1257 22.153C28.0692 20.5342 28.1426 18.4376 28.6704 16.7278C29.2 15.013 30.093 13.9266 31.5556 13.7873V12.2128C30.0931 12.073 29.2001 10.987 28.6704 9.2722C28.1425 7.56267 28.0692 5.46583 28.1257 3.84702C28.1845 2.16228 26.8712 0.608307 25.096 0.608307H6.90608H6.90632ZM21.5367 15.8641C21.5367 18.1843 19.8061 19.5914 16.9341 19.5914H12.0452C11.9053 19.5914 11.7712 19.5358 11.6723 19.4369C11.5734 19.338 11.5179 19.2039 11.5179 19.0641V6.93602C11.5179 6.79616 11.5734 6.66204 11.6723 6.56315C11.7712 6.46426 11.9053 6.40871 12.0452 6.40871H16.9063C19.3011 6.40871 20.8727 7.70589 20.8727 9.69749C20.8727 11.0954 19.8154 12.3468 18.4685 12.566V12.6389C20.3021 12.8401 21.5367 14.11 21.5367 15.8641ZM16.401 8.08026H13.6134V12.0178H15.9613C17.7763 12.0178 18.7771 11.2869 18.7771 9.98053C18.7769 8.75626 17.9165 8.08026 16.401 8.08026ZM13.6134 13.5801V17.9193H16.5036C18.3934 17.9193 19.3943 17.161 19.3943 15.736C19.3943 14.3109 18.3653 13.5798 16.3821 13.5798H13.6134V13.5801Z" fill="#7952B3"/>
</svg>
