<svg width="30" height="32" viewBox="0 0 30 32" fill="none" xmlns="http://www.w3.org/2000/svg">
<path d="M13.7262 0.776356C14.4976 0.334805 15.5024 0.332811 16.2731 0.776356C20.1507 2.96738 24.0295 5.15497 27.9064 7.34733C28.6356 7.75807 29.1233 8.5696 29.1159 9.40982V22.5919C29.1213 23.4669 28.5854 24.2978 27.8161 24.6992C23.9512 26.8782 20.0884 29.0598 16.2243 31.2387C15.4369 31.6889 14.412 31.6542 13.6492 31.1672C12.4905 30.4955 11.3299 29.8271 10.1711 29.1561C9.93429 29.0149 9.66737 28.9026 9.50016 28.673C9.64798 28.4737 9.91224 28.4489 10.127 28.3619C10.6106 28.2082 11.0548 27.9613 11.4992 27.7217C11.6115 27.6448 11.7487 27.6743 11.8564 27.7431C12.8472 28.3112 13.8292 28.8958 14.8234 29.4585C15.0355 29.5809 15.2502 29.4183 15.4315 29.3173C19.224 27.1738 23.0213 25.0384 26.8132 22.8942C26.9537 22.8267 27.0314 22.6775 27.0199 22.5236C27.0226 18.1751 27.0206 13.8259 27.0213 9.47741C27.0373 9.30278 26.9363 9.14223 26.7784 9.07076C22.927 6.90178 19.0776 4.72949 15.2268 2.55996C15.1601 2.51409 15.0811 2.48948 15.0001 2.48936C14.9191 2.48924 14.84 2.51362 14.7732 2.55929C10.9224 4.72949 7.07368 6.90378 3.22293 9.07264C3.06559 9.14422 2.96 9.30212 2.97872 9.47741C2.97939 13.8259 2.97872 18.1751 2.97872 22.5243C2.97205 22.5994 2.98854 22.6747 3.02598 22.7401C3.06342 22.8056 3.12002 22.858 3.18814 22.8903C4.21573 23.473 5.24465 24.0516 6.27291 24.6323C6.85219 24.9441 7.56343 25.1294 8.20166 24.8905C8.76487 24.6885 9.15967 24.1137 9.14892 23.5157C9.15424 19.1926 9.14626 14.8689 9.15291 10.5464C9.13883 10.3545 9.32088 10.196 9.50748 10.214C10.0012 10.2107 10.4956 10.2074 10.9894 10.2154C11.1955 10.2107 11.3373 10.4174 11.3118 10.6107C11.3098 14.9612 11.3171 19.3118 11.3085 23.6622C11.3098 24.8217 10.8335 26.0833 9.76099 26.6506C8.43978 27.335 6.80676 27.1899 5.50149 26.5336C4.37152 25.9696 3.29318 25.304 2.18327 24.6998C1.41197 24.3006 0.878669 23.4663 0.884098 22.592V9.40982C0.876009 8.5522 1.38316 7.72594 2.13507 7.32118C5.99922 5.14046 9.86271 2.95807 13.7262 0.776356Z" fill="#8CC84B"/>
<path d="M17.0973 9.90764C18.7826 9.79916 20.5868 9.84337 22.1034 10.6736C23.2776 11.3099 23.9285 12.6451 23.9492 13.9496C23.9164 14.1256 23.7325 14.2227 23.5645 14.2106C23.0756 14.2099 22.5865 14.2172 22.0975 14.2072C21.8901 14.2152 21.7695 14.024 21.7435 13.8406C21.603 13.2164 21.2626 12.5983 20.6751 12.2972C19.7733 11.8457 18.7276 11.8684 17.7443 11.8778C17.0264 11.9159 16.2544 11.9781 15.6462 12.4003C15.1793 12.72 15.0374 13.3656 15.2041 13.8855C15.3612 14.2588 15.7921 14.3792 16.1447 14.4902C18.1757 15.0214 20.328 14.9686 22.3202 15.6676C23.145 15.9526 23.9519 16.5066 24.2342 17.3702C24.6035 18.5277 24.4417 19.9112 23.6182 20.8404C22.9504 21.605 21.9777 22.0212 21.0076 22.2472C19.7171 22.535 18.3778 22.5423 17.0673 22.4146C15.8349 22.2741 14.5525 21.9503 13.6011 21.1106C12.7876 20.4043 12.3902 19.3036 12.4297 18.2414C12.4391 18.062 12.6177 17.9369 12.7896 17.9516C13.282 17.9476 13.7744 17.9463 14.2668 17.9523C14.4635 17.9382 14.6093 18.1082 14.6194 18.2936C14.7102 18.8882 14.9337 19.5124 15.4523 19.865C16.4531 20.5106 17.7088 20.4664 18.8547 20.4845C19.8041 20.4424 20.8698 20.4296 21.6445 19.8022C22.0533 19.4443 22.1744 18.8455 22.0639 18.3304C21.9443 17.8954 21.4893 17.6928 21.0986 17.5603C19.0936 16.926 16.9173 17.1562 14.9317 16.4389C14.1256 16.1541 13.3461 15.6154 13.0364 14.7873C12.6043 13.6152 12.8023 12.1655 13.7121 11.2676C14.5992 10.3746 15.8798 10.0306 17.0973 9.90753V9.90764Z" fill="#8CC84B"/>
</svg>
