<svg width="32" height="32" viewBox="0 0 32 32" fill="none" xmlns="http://www.w3.org/2000/svg">
<path d="M31.5556 0.444443H0.444458V31.5556H31.5556V0.444443Z" fill="#F7DF1E"/>
<path d="M21.3432 24.7501C21.9699 25.7733 22.7852 26.5254 24.2272 26.5254C25.4385 26.5254 26.2123 25.92 26.2123 25.0835C26.2123 24.081 25.4173 23.7259 24.0839 23.1427L23.3531 22.8291C21.2435 21.9304 19.842 20.8045 19.842 18.4242C19.842 16.2316 21.5126 14.5625 24.1235 14.5625C25.9822 14.5625 27.3185 15.2094 28.2815 16.9032L26.0049 18.3649C25.5037 17.4662 24.963 17.1121 24.1235 17.1121C23.2672 17.1121 22.7244 17.6553 22.7244 18.3649C22.7244 19.242 23.2677 19.597 24.522 20.1403L25.2528 20.4533C27.7368 21.5185 29.1393 22.6045 29.1393 25.0459C29.1393 27.678 27.0716 29.12 24.2948 29.12C21.5798 29.12 19.8257 27.8262 18.9674 26.1304L21.3432 24.7501ZM11.0158 25.0035C11.4751 25.8183 11.8928 26.5072 12.8973 26.5072C13.8578 26.5072 14.4637 26.1314 14.4637 24.6701V14.7294H17.3872V24.7096C17.3872 27.7368 15.6123 29.1146 13.0217 29.1146C10.681 29.1146 9.32543 27.9032 8.63605 26.4442L11.0158 25.0035Z" fill="black"/>
</svg>
