<svg width="32" height="28" viewBox="0 0 32 28" fill="none" xmlns="http://www.w3.org/2000/svg">
<path d="M1.4541 0.0122598C1.30861 0.0103786 1.16448 0.0403711 1.03181 0.100131C0.899154 0.159891 0.781185 0.24797 0.686192 0.358181C0.591199 0.468392 0.521486 0.598063 0.481949 0.738088C0.442412 0.878112 0.434009 1.02509 0.457331 1.16871L4.68879 26.8563C4.7415 27.1706 4.90329 27.4564 5.14574 27.6633C5.3882 27.8702 5.6958 27.9851 6.01454 27.9877H26.3145C26.5534 27.9908 26.7854 27.9079 26.9683 27.7542C27.1513 27.6005 27.2729 27.3862 27.3111 27.1504L31.5427 1.1737C31.566 1.03009 31.5576 0.883119 31.518 0.743115C31.4784 0.603112 31.4087 0.473466 31.3137 0.363281C31.2187 0.253096 31.1007 0.165043 30.9681 0.105305C30.8354 0.0455672 30.6913 0.0155924 30.5458 0.0174855L1.4541 0.0122598ZM19.272 18.5777H12.7927L11.0384 9.41215H20.842L19.272 18.5777Z" fill="#2684FF"/>
<path d="M30.1713 9.39929H20.8239L19.2551 18.5576H12.7811L5.13675 27.6312C5.37904 27.8407 5.68794 27.9571 6.00822 27.9598H26.297C26.5357 27.9629 26.7676 27.8801 26.9504 27.7265C27.1332 27.573 27.2548 27.3589 27.293 27.1232L30.1713 9.39929Z" fill="url(#paint0_linear_102_7)"/>
<defs>
<linearGradient id="paint0_linear_102_7" x1="32.3325" y1="11.964" x2="21.5347" y2="27.2955" gradientUnits="userSpaceOnUse">
<stop offset="0.18" stop-color="#0052CC"/>
<stop offset="1" stop-color="#2684FF"/>
</linearGradient>
</defs>
</svg>
