<svg width="32" height="16" viewBox="0 0 32 16" fill="none" xmlns="http://www.w3.org/2000/svg">
<path fill-rule="evenodd" clip-rule="evenodd" d="M16 15.8832C24.5911 15.8832 31.5556 12.3536 31.5556 8.00002C31.5556 3.64641 24.5911 0.116882 16 0.116882C7.40906 0.116882 0.444443 3.64641 0.444443 8.00002C0.444443 12.3536 7.40906 15.8832 16 15.8832Z" fill="#A5B4FC"/>
<path fill-rule="evenodd" clip-rule="evenodd" d="M19.1525 10.548L19.9241 6.57677C20.0983 5.68047 19.9535 5.01196 19.4939 4.58948C19.0487 4.18074 18.2929 3.98192 17.1835 3.98192H15.8472L16.2295 2.01438C16.2366 1.97776 16.2356 1.94001 16.2264 1.90384C16.2173 1.86766 16.2002 1.83397 16.1765 1.80516C16.1528 1.77635 16.123 1.75316 16.0893 1.73723C16.0555 1.7213 16.0187 1.71304 15.9813 1.71304H14.137C14.0159 1.71304 13.9119 1.799 13.8887 1.91788L13.0692 6.13379C12.9947 5.6594 12.8111 5.2516 12.5173 4.91509C11.9763 4.29586 11.1206 3.98192 9.97378 3.98192H6.39912C6.27798 3.98192 6.17396 4.06788 6.15082 4.18657L4.49234 12.7203C4.47785 12.7946 4.49723 12.871 4.54538 12.9293C4.59335 12.9878 4.66483 13.0215 4.74063 13.0215H6.59944C6.72058 13.0215 6.8246 12.9355 6.84774 12.8165L7.24895 10.7524H8.63262C9.35869 10.7524 9.96889 10.6738 10.4452 10.5188C10.9322 10.3604 11.3804 10.0918 11.7754 9.72201C12.0946 9.42876 12.3583 9.10033 12.5613 8.74614L12.2301 10.4511C12.2156 10.5254 12.2349 10.6021 12.2831 10.6601C12.3311 10.7186 12.4027 10.7522 12.4783 10.7522H14.3227C14.4438 10.7522 14.5478 10.6663 14.571 10.5476L15.4812 5.8633H16.7467C17.286 5.8633 17.444 5.97071 17.4871 6.01679C17.526 6.05893 17.6069 6.20734 17.5161 6.67515L16.7825 10.4509C16.7754 10.4875 16.7766 10.5252 16.7858 10.5613C16.795 10.5975 16.8121 10.6311 16.8358 10.6599C16.8595 10.6886 16.8893 10.7118 16.923 10.7277C16.9567 10.7437 16.9935 10.752 17.0308 10.752H18.9044C18.9631 10.7522 19.0199 10.7319 19.0652 10.6946C19.1105 10.6574 19.1413 10.6055 19.1525 10.548ZM10.6019 7.26672C10.486 7.86206 10.2678 8.28661 9.9529 8.52869C9.63313 8.77529 9.12169 8.90019 8.43267 8.90019H7.60879L8.20451 5.83452H9.26972C10.0522 5.83452 10.3675 6.00175 10.4941 6.14188C10.6696 6.33638 10.7068 6.72556 10.6019 7.26672ZM26.9213 4.91509C26.3805 4.29586 25.5248 3.98192 24.378 3.98192H20.8033C20.682 3.98192 20.5782 4.06788 20.555 4.18657L18.8967 12.7203C18.882 12.7946 18.9014 12.871 18.9496 12.9293C18.9977 12.9876 19.0694 13.0215 19.1446 13.0215H21.0036C21.125 13.0215 21.2288 12.9355 21.2519 12.8165L21.6531 10.7524H23.037C23.7633 10.7524 24.3729 10.6738 24.8494 10.5188C25.3365 10.3604 25.7848 10.0918 26.1796 9.72201C26.5092 9.41935 26.7802 9.07908 26.9856 8.71172C27.191 8.34436 27.3383 7.93467 27.4243 7.49376C27.6355 6.40635 27.4664 5.53883 26.9213 4.91509ZM25.1116 7.26672C24.9955 7.86206 24.7773 8.28661 24.4628 8.52869C24.1428 8.77529 23.6314 8.90019 22.9426 8.90019H22.1185L22.714 5.83452H23.7794C24.5619 5.83452 24.8772 6.00175 25.004 6.14188C25.1791 6.33638 25.2165 6.72556 25.1116 7.26672Z" fill="#1E2235"/>
<path fill-rule="evenodd" clip-rule="evenodd" d="M9.21682 5.58156C9.92295 5.58156 10.3938 5.71191 10.6291 5.97262C10.8642 6.23333 10.9203 6.68101 10.7972 7.3151C10.6686 7.97552 10.421 8.4469 10.0542 8.72942C9.68745 9.01195 9.12916 9.15303 8.37977 9.15303H7.24891L7.943 5.58156H9.21682ZM4.68753 12.7685H6.54635L6.98744 10.4998H8.57972C9.28228 10.4998 9.86032 10.4259 10.314 10.2782C10.7677 10.1306 11.1802 9.88323 11.5513 9.53581C11.8628 9.24971 12.1149 8.9337 12.3079 8.58835C12.5007 8.243 12.6376 7.86209 12.7187 7.44545C12.9155 6.43384 12.767 5.64589 12.2738 5.08159C11.7808 4.5171 10.9963 4.23495 9.92088 4.23495H6.34621L4.68753 12.7685ZM14.0839 1.96608H15.9283L15.4874 4.23495H17.1306C18.164 4.23495 18.8775 4.41515 19.2699 4.77574C19.6623 5.13633 19.7798 5.72075 19.623 6.52865L18.8514 10.4998H16.9777L17.7113 6.7239C17.7946 6.29427 17.7641 6.0014 17.6191 5.84509C17.4741 5.68897 17.1654 5.61072 16.6937 5.61072H15.2197L14.2696 10.4998H12.4253L14.0839 1.96608ZM23.7266 5.58156C24.4327 5.58156 24.9033 5.71191 25.1388 5.97262C25.374 6.23333 25.4298 6.68101 25.3068 7.3151C25.1785 7.97552 24.931 8.4469 24.564 8.72942C24.1974 9.01195 23.6389 9.15303 22.8899 9.15303H21.759L22.4529 5.58156H23.7266ZM19.1969 12.7685H21.0559L21.4968 10.4998H23.0891C23.7918 10.4998 24.3699 10.4259 24.8236 10.2782C25.2773 10.1306 25.6898 9.88323 26.0609 9.53581C26.3724 9.24971 26.6245 8.9337 26.8173 8.58835C27.0101 8.243 27.1472 7.86209 27.2285 7.44545C27.425 6.43384 27.2766 5.64589 26.7836 5.08159C26.2902 4.5171 25.5058 4.23495 24.4304 4.23495H20.8558L19.1969 12.7685Z" fill="white"/>
</svg>
