<svg width="32" height="24" viewBox="0 0 32 24" fill="none" xmlns="http://www.w3.org/2000/svg">
<path d="M31.2487 9.26536C31.1644 9.19835 30.3767 8.60359 28.7155 8.60359C28.2769 8.60551 27.8392 8.64313 27.4067 8.7161C27.0852 6.51246 25.2633 5.43806 25.1816 5.38986L24.7356 5.13263L24.4422 5.55597C24.0748 6.12464 23.8066 6.75153 23.6491 7.40999C23.3517 8.6679 23.5326 9.8494 24.1716 10.8595C23.4 11.2895 22.1622 11.3953 21.9117 11.4047H1.41832C0.883037 11.4054 0.448682 11.838 0.445765 12.3732C0.421861 14.1686 0.726032 15.9532 1.3433 17.6392C2.04926 19.4906 3.09953 20.8543 4.46594 21.6889C5.99711 22.6266 8.48477 23.1625 11.3046 23.1625C12.5785 23.1665 13.85 23.0512 15.1025 22.8182C16.8435 22.4985 18.5187 21.89 20.059 21.0177C21.3282 20.2828 22.4704 19.3478 23.4415 18.2487C25.0651 16.4108 26.0324 14.3638 26.7517 12.5447H27.0384C28.816 12.5447 29.9092 11.8333 30.512 11.2372C30.9126 10.857 31.2254 10.3939 31.4283 9.88023L31.5556 9.50783L31.2487 9.26536Z" fill="#2496ED"/>
<path d="M3.31787 10.8046H6.06407C6.19652 10.8046 6.30384 10.6972 6.30384 10.5648V8.11866C6.30458 7.98621 6.19782 7.87827 6.06542 7.87753C6.06498 7.87753 6.0645 7.87753 6.06407 7.87753H3.31787C3.18542 7.87753 3.07809 7.9849 3.07809 8.11731V8.11866V10.5648C3.07809 10.6972 3.18542 10.8046 3.31787 10.8046Z" fill="#2496ED"/>
<path d="M7.10228 10.8046H9.84848C9.98093 10.8046 10.0883 10.6972 10.0883 10.5648V8.11866C10.089 7.98621 9.98224 7.87827 9.84979 7.87753C9.84935 7.87753 9.84887 7.87753 9.84844 7.87753H7.10224C6.96905 7.87753 6.86111 7.98547 6.86111 8.11866V10.5648C6.8619 10.6974 6.96962 10.8046 7.10228 10.8046Z" fill="#2496ED"/>
<path d="M10.9443 10.8046H13.6905C13.8229 10.8046 13.9302 10.6972 13.9302 10.5648V8.11866C13.931 7.98621 13.8242 7.87827 13.6918 7.87753C13.6913 7.87753 13.6908 7.87753 13.6904 7.87753H10.9442C10.8118 7.87753 10.7044 7.9849 10.7044 8.11731V8.11866V10.5648C10.7045 10.6972 10.8119 10.8046 10.9443 10.8046Z" fill="#2496ED"/>
<path d="M14.7407 10.8046H17.4869C17.6196 10.8046 17.7273 10.6975 17.728 10.5648V8.11866C17.728 7.98547 17.6201 7.87753 17.4869 7.87753H14.7407C14.6083 7.87753 14.5009 7.9849 14.5009 8.11731V8.11866V10.5648C14.5009 10.6972 14.6083 10.8046 14.7407 10.8046Z" fill="#2496ED"/>
<path d="M7.1023 7.28545H9.8485C9.98112 7.28471 10.0883 7.17695 10.0883 7.04432V4.5982C10.0883 4.46575 9.9809 4.35843 9.8485 4.35843H7.1023C6.96968 4.35843 6.86192 4.46554 6.86118 4.5982V7.04432C6.86192 7.17721 6.96942 7.28471 7.1023 7.28545Z" fill="#2496ED"/>
<path d="M10.9442 7.28545H13.6904C13.8231 7.28471 13.9302 7.17695 13.9302 7.04432V4.5982C13.9302 4.46575 13.8228 4.35843 13.6904 4.35843H10.9442C10.8118 4.35843 10.7045 4.4658 10.7045 4.5982V7.04432C10.7045 7.17695 10.8116 7.28471 10.9442 7.28545Z" fill="#2496ED"/>
<path d="M14.7407 7.28545H17.4869C17.6198 7.28471 17.7273 7.17721 17.728 7.04432V4.5982C17.7273 4.46554 17.6196 4.35843 17.4869 4.35843H14.7407C14.6083 4.35843 14.5009 4.4658 14.5009 4.5982V7.04432C14.5009 7.17695 14.6081 7.28471 14.7407 7.28545Z" fill="#2496ED"/>
<path d="M14.7407 3.76498H17.4869C17.6196 3.76498 17.7273 3.65783 17.728 3.52521V1.0777C17.7273 0.94503 17.6196 0.837921 17.4869 0.837921H14.7407C14.6083 0.837921 14.5009 0.945247 14.5009 1.0777V3.52517C14.5009 3.65761 14.6083 3.76498 14.7407 3.76498Z" fill="#2496ED"/>
<path d="M18.5707 10.8046H21.3169C21.4495 10.8046 21.5573 10.6975 21.558 10.5648V8.11866C21.558 7.98547 21.4501 7.87753 21.3169 7.87753H18.5707C18.4383 7.87753 18.3309 7.9849 18.3309 8.11731V8.11866V10.5648C18.3309 10.6972 18.4383 10.8046 18.5707 10.8046Z" fill="#2496ED"/>
</svg>
