<svg width="32" height="30" viewBox="0 0 32 30" fill="none" xmlns="http://www.w3.org/2000/svg">
<path d="M16 29.3294L21.7285 11.6991H10.2714L15.9999 29.3294H16Z" fill="#E24329"/>
<path d="M16 29.3293L10.2714 11.699H2.24327L16 29.3293Z" fill="#FC6D26"/>
<path d="M2.24327 11.699L0.5025 17.0568C0.425101 17.2949 0.42509 17.5515 0.50247 17.7897C0.57985 18.0279 0.730648 18.2355 0.933253 18.3827L16 29.3294L2.24315 11.6991L2.24327 11.699Z" fill="#FCA326"/>
<path d="M2.24327 11.699H10.2714L6.8214 1.08038C6.64384 0.533974 5.87087 0.534096 5.69344 1.08038L2.24327 11.699Z" fill="#E24329"/>
<path d="M16 29.3293L21.7285 11.699H29.7568L15.9999 29.3293H16Z" fill="#FC6D26"/>
<path d="M29.7568 11.699L31.4975 17.0568C31.5749 17.295 31.5749 17.5515 31.4975 17.7897C31.4201 18.0279 31.2693 18.2355 31.0666 18.3827L16 29.3294L29.7568 11.6991V11.699Z" fill="#FCA326"/>
<path d="M29.7568 11.699H21.7285L25.1787 1.08038C25.3562 0.533974 26.1292 0.534096 26.3066 1.08038L29.7568 11.699Z" fill="#E24329"/>
</svg>
