<svg width="14" height="32" viewBox="0 0 14 32" fill="none" xmlns="http://www.w3.org/2000/svg">
<path d="M6.90263 0.529419L7.73285 2.08875C7.9195 2.3765 8.12171 2.63121 8.35989 2.86841C9.05817 3.55798 9.70905 4.29396 10.3081 5.0713C11.7148 6.91839 12.6636 8.96962 13.3412 11.1881C13.7476 12.5432 13.9682 13.9334 13.9848 15.3391C14.0528 19.5418 12.6121 23.1504 9.70729 26.1495C9.2348 26.625 8.72435 27.0614 8.18101 27.4541C7.89326 27.4541 7.75715 27.2334 7.63855 27.0302C7.42257 26.6535 7.27882 26.2397 7.21469 25.8102C7.11262 25.3017 7.04554 24.7933 7.07859 24.2683V24.0311C7.05526 23.9806 6.80153 0.648993 6.90263 0.529419Z" fill="#599636"/>
<path d="M6.90264 0.477888C6.86861 0.409837 6.83459 0.461361 6.80056 0.494414C6.81709 0.834667 6.69849 1.13798 6.5128 1.42768C6.30865 1.71544 6.0384 1.93611 5.76717 2.17332C4.26033 3.47794 3.0743 5.0538 2.12451 6.81631C0.860715 9.18836 0.209373 11.7305 0.0246646 14.4069C-0.0599126 15.3722 0.32992 18.7786 0.634204 19.7615C1.46442 22.3707 2.9557 24.5571 4.88737 26.4547C5.36178 26.9116 5.86924 27.3355 6.3942 27.7428C6.54683 27.7428 6.56336 27.6067 6.59835 27.5056C6.66527 27.2893 6.71628 27.0683 6.75098 26.8446L7.09124 24.3034L6.90264 0.477888Z" fill="#6CAC48"/>
<path d="M7.73285 28.4865C7.76688 28.0976 7.95353 27.7749 8.15671 27.4531C7.95256 27.3685 7.8009 27.2003 7.6823 27.0127C7.58003 26.8351 7.49537 26.6479 7.42954 26.4537C7.19233 25.7421 7.14178 24.9955 7.07373 24.2684V23.828C6.98915 23.896 6.97165 24.4715 6.97165 24.5571C6.92219 25.3256 6.82019 26.0899 6.6664 26.8445C6.61585 27.1498 6.58182 27.4541 6.3942 27.7253C6.3942 27.7593 6.3942 27.7934 6.41072 27.8439C6.71598 28.7422 6.79958 29.657 6.85111 30.5892V30.9295C6.85111 31.3359 6.83458 31.2503 7.17192 31.3864C7.30802 31.437 7.45968 31.4545 7.59578 31.5556C7.69785 31.5556 7.71438 31.471 7.71438 31.4029L7.66383 30.8439V29.2846C7.6473 29.0124 7.69785 28.7422 7.73188 28.4875L7.73285 28.4865Z" fill="#C2BFBF"/>
</svg>
