<svg width="32" height="32" viewBox="0 0 32 32" fill="none" xmlns="http://www.w3.org/2000/svg">
<path d="M0.740441 11.3437C0.740441 11.3437 -0.0173093 10.7975 0.891991 10.0681L3.01053 8.17375C3.01053 8.17375 3.61673 7.53598 4.25766 8.09166L23.8076 22.8931V29.9907C23.8076 29.9907 23.7981 31.1052 22.3679 30.982L0.740441 11.3437Z" fill="#2489CA"/>
<path d="M5.77949 15.9187L0.740443 20.4999C0.740443 20.4999 0.222646 20.8851 0.740443 21.5734L3.08 23.7014C3.08 23.7014 3.63568 24.2981 4.45658 23.6193L9.79872 19.5685L5.77949 15.9187Z" fill="#1070B3"/>
<path d="M14.6262 15.9565L23.8676 8.89997L23.8077 1.84024C23.8077 1.84024 23.413 0.299481 22.0964 1.10144L9.79873 12.2941L14.6262 15.9565Z" fill="#0877B9"/>
<path d="M22.3679 30.9916C22.9047 31.5409 23.5551 31.361 23.5551 31.361L30.7569 27.8122C31.6788 27.1839 31.5493 26.404 31.5493 26.404V5.21222C31.5493 4.28082 30.5958 3.95877 30.5958 3.95877L24.3539 0.949867C22.9899 0.106868 22.0964 1.10142 22.0964 1.10142C22.0964 1.10142 23.2457 0.274205 23.8077 1.84022V29.8612C23.8077 30.0538 23.7666 30.2433 23.6845 30.4138C23.5203 30.7453 23.1636 31.0547 22.3079 30.9253L22.3679 30.9916Z" fill="#3C99D4"/>
</svg>
