<svg width="32" height="34" viewBox="0 0 32 34" fill="none" xmlns="http://www.w3.org/2000/svg">
<path fill-rule="evenodd" clip-rule="evenodd" d="M3.10906 15.555C2.48793 16.1157 2.28239 16.6057 2.28239 17C2.28239 17.3944 2.48793 17.8844 3.10906 18.4451C3.73008 19.0057 4.68486 19.5564 5.94979 20.0393C8.47277 21.0027 12.0258 21.6195 16 21.6195C19.9742 21.6195 23.5272 21.0027 26.0502 20.0393C27.3152 19.5564 28.2699 19.0057 28.891 18.4451C29.5121 17.8844 29.7176 17.3944 29.7176 17C29.7176 16.6057 29.5121 16.1157 28.891 15.555C28.2699 14.9943 27.3152 14.4436 26.0502 13.9607C23.5272 12.9974 19.9742 12.3806 16 12.3806C12.0258 12.3806 8.47277 12.9974 5.94979 13.9607C4.68486 14.4436 3.73008 14.9943 3.10906 15.555ZM5.23638 12.0922C8.04013 11.0217 11.8459 10.3806 16 10.3806C20.1541 10.3806 23.9599 11.0217 26.7636 12.0922C28.1621 12.6262 29.3626 13.2864 30.2311 14.0704C31.0995 14.8543 31.7176 15.8426 31.7176 17C31.7176 18.1574 31.0995 19.1457 30.2311 19.9296C29.3626 20.7136 28.1621 21.3738 26.7636 21.9078C23.9599 22.9783 20.1541 23.6195 16 23.6195C11.8459 23.6195 8.04013 22.9783 5.23638 21.9078C3.83795 21.3738 2.63738 20.7136 1.7689 19.9296C0.900521 19.1457 0.282394 18.1574 0.282394 17C0.282394 15.8426 0.900521 14.8543 1.7689 14.0704C2.63738 13.2864 3.83795 12.6262 5.23638 12.0922Z" fill="#61DAFB"/>
<path fill-rule="evenodd" clip-rule="evenodd" d="M10.806 5.11357C10.0098 4.85602 9.48269 4.92302 9.14118 5.12019C8.79967 5.31736 8.47808 5.74037 8.30306 6.55863C8.12807 7.37675 8.12854 8.47897 8.34273 9.81591C8.76997 12.4825 10.0123 15.8679 11.9994 19.3097C13.9865 22.7515 16.2972 25.5201 18.393 27.2234C19.4437 28.0774 20.398 28.6289 21.194 28.8864C21.9902 29.144 22.5173 29.077 22.8588 28.8798C23.2003 28.6826 23.5219 28.2596 23.6969 27.4414C23.8719 26.6232 23.8714 25.521 23.6572 24.1841C23.23 21.5174 21.9877 18.1321 20.0006 14.6903C18.0134 11.2485 15.7028 8.47988 13.607 6.77658C12.5563 5.9226 11.602 5.37109 10.806 5.11357ZM14.8684 5.22453C17.1974 7.11739 19.6556 10.0927 21.7326 13.6903C23.8096 17.2878 25.1573 20.9043 25.6321 23.8677C25.8689 25.3457 25.8974 26.7155 25.6527 27.8597C25.408 29.0037 24.8612 30.0331 23.8588 30.6118C22.8564 31.1906 21.6915 31.1494 20.5784 30.7893C19.4652 30.4292 18.2932 29.7196 17.1315 28.7755C14.8026 26.8826 12.3444 23.9073 10.2674 20.3097C8.19033 16.7122 6.84269 13.0957 6.36792 10.1323C6.13111 8.65425 6.10257 7.28444 6.3473 6.14031C6.59198 4.99632 7.13882 3.96685 8.14118 3.38814C9.14354 2.80943 10.3085 2.85059 11.4216 3.21067C12.5348 3.5708 13.7068 4.28043 14.8684 5.22453Z" fill="#61DAFB"/>
<path fill-rule="evenodd" clip-rule="evenodd" d="M23.6969 6.55863C23.5219 5.74037 23.2003 5.31737 22.8588 5.12019C22.5173 4.92302 21.9902 4.85602 21.194 5.11358C20.398 5.37109 19.4437 5.9226 18.393 6.77658C16.2972 8.47989 13.9866 11.2485 11.9994 14.6903C10.0123 18.1321 8.76999 21.5174 8.34276 24.1841C8.12856 25.521 8.12809 26.6232 8.30308 27.4414C8.4781 28.2596 8.79969 28.6826 9.1412 28.8798C9.48272 29.077 10.0098 29.144 10.806 28.8864C11.602 28.6289 12.5563 28.0774 13.607 27.2234C15.7028 25.5201 18.0135 22.7515 20.0006 19.3097C21.9877 15.8679 23.23 12.4825 23.6573 9.81591C23.8715 8.47897 23.8719 7.37675 23.6969 6.55863ZM25.6321 10.1323C25.1573 13.0957 23.8097 16.7122 21.7326 20.3097C19.6556 23.9073 17.1974 26.8826 14.8685 28.7755C13.7068 29.7196 12.5348 30.4292 11.4216 30.7893C10.3085 31.1494 9.14356 31.1906 8.1412 30.6118C7.13884 30.0331 6.59201 29.0037 6.34732 27.8597C6.1026 26.7156 6.13114 25.3457 6.36794 23.8677C6.84272 20.9043 8.19035 17.2878 10.2674 13.6903C12.3444 10.0927 14.8026 7.11739 17.1316 5.22454C18.2932 4.28043 19.4652 3.57081 20.5784 3.21068C21.6915 2.85059 22.8565 2.80943 23.8588 3.38814C24.8612 3.96685 25.408 4.99632 25.6527 6.14031C25.8974 7.28444 25.8689 8.65425 25.6321 10.1323Z" fill="#61DAFB"/>
</svg>
