<svg width="32" height="32" viewBox="0 0 32 32" fill="none" xmlns="http://www.w3.org/2000/svg">
<path d="M1.74075 2.12965H30.2592V29.8704H1.74075V2.12965Z" fill="#2E001E"/>
<path d="M0.444458 0.833336V31.1667H31.5556V0.833336H0.444458ZM1.74075 2.12963H30.2593V29.8704H1.74075V2.12963Z" fill="#FF2BC2"/>
<path d="M23.0389 13.5759C22.8444 13.4852 22.5981 13.4463 22.287 13.4463C20.6537 13.4463 19.5648 14.7037 19.5648 16.7907C19.5648 19.1759 20.6796 20.1352 22.1315 20.1352C22.4426 20.1352 22.7796 20.0963 23.0259 19.9926V13.5759H23.0389ZM17.2315 16.8944C17.2315 13.8741 19.1759 11.5148 22.3648 11.5148C22.637 11.5148 22.7796 11.5148 23.0389 11.5407V8.17037C23.0389 8.09259 23.1037 8.04074 23.1685 8.04074H25.2556C25.3593 8.04074 25.3852 8.07963 25.3852 8.14445V19.9926C25.3852 20.3426 25.3852 20.7833 25.45 21.2629C25.45 21.3537 25.45 21.3666 25.3722 21.4055C24.2833 21.924 23.1426 22.1574 22.0537 22.1574C19.2407 22.1574 17.2315 20.4203 17.2315 16.8944ZM12.8111 14.7944L16.4407 21.8333C16.5056 21.937 16.4667 22.0407 16.363 22.0407H14.1074C13.9648 22.0407 13.9 22.0018 13.8352 21.8722C13.0056 20.1611 12.163 18.3852 11.2944 16.5444H11.2685C10.4907 18.2815 9.63519 20.174 8.80556 21.8852C8.74074 21.9889 8.67593 22.0277 8.57223 22.0277H6.42037C6.29074 22.0277 6.27778 21.924 6.3426 21.8463L9.89445 15.0148L6.45926 8.22222C6.38149 8.11852 6.45926 8.02778 6.55 8.02778H8.77963C8.90926 8.02778 8.97408 8.0537 9.01297 8.17037C9.82963 9.89444 10.6593 11.5926 11.437 13.3296H11.463C12.2148 11.6185 13.0444 9.89444 13.8352 8.1963C13.9 8.09259 13.9389 8.02778 14.0685 8.02778H16.1556C16.2593 8.02778 16.2981 8.10556 16.2333 8.22222L12.8111 14.7944Z" fill="#FF2BC2"/>
</svg>
