<svg width="32" height="24" viewBox="0 0 32 24" fill="none" xmlns="http://www.w3.org/2000/svg">
<path d="M27.2335 13.7466C26.1482 13.7523 25.2049 14.0137 24.415 14.4001C24.1252 13.8262 23.8354 13.3147 23.7842 12.9397C23.7274 12.5021 23.6592 12.2351 23.7274 11.7123C23.7956 11.1895 24.1024 10.445 24.0968 10.3882C24.0911 10.3314 24.0286 10.0643 23.4035 10.0586C22.7784 10.0529 22.2386 10.178 22.1761 10.3428C22.1136 10.5076 21.9942 10.8826 21.9147 11.269C21.8067 11.8373 20.6645 13.8659 20.011 14.9286C19.8007 14.5138 19.6189 14.1501 19.5791 13.8603C19.5223 13.4227 19.4541 13.1556 19.5223 12.6328C19.5905 12.11 19.8974 11.3656 19.8917 11.3088C19.886 11.252 19.8235 10.9849 19.1984 10.9792C18.5733 10.9735 18.0335 11.0985 17.971 11.2633C17.9085 11.4281 17.8403 11.8145 17.7096 12.1896C17.5789 12.5646 16.0616 15.9515 15.6638 16.8266C15.4593 17.2755 15.2831 17.6335 15.1581 17.8778C15.1581 17.8778 15.1524 17.8949 15.1354 17.9233C15.0274 18.1336 14.9649 18.2472 14.9649 18.2472C14.9649 18.2472 14.9649 18.2472 14.9649 18.2529C14.8796 18.4063 14.7887 18.5484 14.7433 18.5484C14.7092 18.5484 14.6467 18.1392 14.7546 17.5823C14.9819 16.4061 15.5218 14.5763 15.5161 14.5138C15.5161 14.4797 15.6184 14.1614 15.1638 13.9966C14.7205 13.8319 14.5614 14.1046 14.5216 14.1046C14.4819 14.1046 14.4535 14.2012 14.4535 14.2012C14.4535 14.2012 14.9478 12.1441 13.5101 12.1441C12.6123 12.1441 11.3735 13.1272 10.7598 14.0137C10.3734 14.224 9.5494 14.6729 8.6686 15.1559C8.33333 15.3434 7.9867 15.5309 7.66279 15.7071C7.64006 15.6844 7.61733 15.656 7.5946 15.6332C5.85573 13.775 2.6394 12.4624 2.77578 9.96771C2.82693 9.0585 3.13947 6.67182 8.95273 3.77371C13.7375 1.41545 17.5448 2.06894 18.2039 3.518C19.1473 5.58645 16.1639 9.42787 11.2201 9.98476C9.33346 10.195 8.3447 9.46764 8.09466 9.19488C7.83327 8.91075 7.79349 8.89371 7.69689 8.95053C7.53777 9.03577 7.64006 9.29148 7.69689 9.43923C7.84463 9.82565 8.45267 10.5076 9.48121 10.8428C10.3904 11.1383 12.6009 11.3031 15.2774 10.2689C18.2721 9.10964 20.6134 5.88763 19.9258 3.18841C19.2382 0.449413 14.6921 -0.454115 10.3904 1.0745C7.83327 1.98371 5.06017 3.41571 3.06559 5.27959C0.695965 7.49579 0.320916 9.42218 0.474346 10.2291C1.02555 13.0931 4.97494 14.957 6.55469 16.3379C6.47513 16.3833 6.40126 16.4231 6.33875 16.4572C5.54888 16.8493 2.53712 18.4234 1.78702 20.0884C0.934633 21.975 1.9234 23.3274 2.57689 23.5093C4.60557 24.0718 6.69107 23.0603 7.81054 21.3897C8.93 19.719 8.79362 17.5483 8.27651 16.5538C8.27082 16.5424 8.26514 16.5311 8.25378 16.5197C8.45835 16.4004 8.6686 16.2754 8.87318 16.156C9.27664 15.9174 9.67442 15.6957 10.0154 15.5139C9.82216 16.0424 9.6801 16.6731 9.61191 17.5823C9.52667 18.6507 9.96423 20.0372 10.5382 20.5827C10.7939 20.8214 11.0951 20.8271 11.2883 20.8271C11.9588 20.8271 12.26 20.2702 12.5953 19.611C13.0044 18.8041 13.3738 17.8665 13.3738 17.8665C13.3738 17.8665 12.9135 20.4009 14.1636 20.4009C14.6182 20.4009 15.0785 19.8099 15.2831 19.5087C15.2831 19.5144 15.2831 19.5144 15.2831 19.5144C15.2831 19.5144 15.2945 19.4974 15.3172 19.4576C15.3627 19.3837 15.3911 19.3383 15.3911 19.3383C15.3911 19.3383 15.3911 19.3326 15.3911 19.3269C15.5729 19.0087 15.9821 18.287 16.5901 17.088C17.3743 15.5423 18.1301 13.6102 18.1301 13.6102C18.1301 13.6102 18.1983 14.0819 18.4312 14.8661C18.5676 15.3264 18.8518 15.8321 19.0791 16.3208C18.8972 16.5765 18.7836 16.7186 18.7836 16.7186C18.7836 16.7186 18.7836 16.7186 18.7893 16.7243C18.6415 16.9175 18.4824 17.1277 18.3062 17.3323C17.6868 18.071 16.9481 18.9177 16.8458 19.1621C16.7265 19.4519 16.7549 19.6622 16.9822 19.8326C17.147 19.9577 17.4425 19.9747 17.7437 19.9577C18.3006 19.9179 18.6926 19.7815 18.8859 19.6963C19.187 19.5883 19.5393 19.4235 19.8689 19.1791C20.477 18.7302 20.8463 18.0881 20.8122 17.2414C20.7952 16.7754 20.6418 16.3095 20.4542 15.8719C20.5111 15.7923 20.5622 15.7128 20.619 15.6332C21.5794 14.2296 22.3238 12.6897 22.3238 12.6897C22.3238 12.6897 22.392 13.1613 22.625 13.9455C22.7386 14.3433 22.9716 14.7752 23.1762 15.1957C22.2727 15.9287 21.7158 16.7811 21.5169 17.338C21.1589 18.3722 21.4373 18.8382 21.9658 18.9462C22.2045 18.9973 22.5454 18.8837 22.7955 18.7757C23.1137 18.6734 23.4887 18.4972 23.8467 18.2358C24.4548 17.7869 25.0401 17.1618 25.006 16.3151C24.9889 15.9287 24.8866 15.548 24.7446 15.1786C25.5117 14.8604 26.5005 14.6842 27.762 14.832C30.4669 15.1502 31.0011 16.8379 30.8988 17.5483C30.7965 18.2586 30.2283 18.645 30.0407 18.7643C29.8532 18.8837 29.7907 18.9234 29.8077 19.0087C29.8305 19.1337 29.9214 19.128 30.0805 19.1053C30.3021 19.0655 31.5012 18.5313 31.5523 17.2243C31.6375 15.5537 30.0464 13.7296 27.2335 13.7466ZM6.36717 20.7816C5.46932 21.759 4.21916 22.1284 3.67931 21.8159C3.09969 21.4806 3.32699 20.0372 4.42941 19.003C5.09995 18.3722 5.9637 17.7869 6.53764 17.4289C6.66834 17.3494 6.86155 17.2357 7.09453 17.0936C7.13431 17.0709 7.15704 17.0595 7.15704 17.0595C7.2025 17.0311 7.24796 17.0027 7.29342 16.9743C7.69689 18.4518 7.31047 19.7531 6.36717 20.7816ZM12.9021 16.3379C12.5896 17.0993 11.9361 19.0484 11.5383 18.9405C11.1973 18.8496 10.9871 17.3721 11.4701 15.9117C11.7145 15.1786 12.2316 14.3035 12.5327 13.9626C13.0214 13.417 13.5613 13.2352 13.692 13.4568C13.8568 13.7466 13.0953 15.8605 12.9021 16.3379ZM18.2949 18.9177C18.1642 18.9859 18.0392 19.0314 17.9823 18.9973C17.9426 18.9746 18.0392 18.8837 18.0392 18.8837C18.0392 18.8837 18.7154 18.1563 18.9825 17.8267C19.1359 17.6335 19.3177 17.4062 19.5109 17.1505C19.5109 17.1732 19.5109 17.2016 19.5109 17.2243C19.5109 18.0938 18.6699 18.6791 18.2949 18.9177ZM22.4545 17.9688C22.3579 17.9006 22.3749 17.6733 22.6989 16.9629C22.8239 16.6845 23.1194 16.2185 23.6251 15.7696C23.6819 15.9515 23.7217 16.1276 23.716 16.2924C23.7104 17.3891 22.9262 17.7983 22.4545 17.9688Z" fill="#F472B6"/>
</svg>
