<svg width="32" height="24" viewBox="0 0 32 24" fill="none" xmlns="http://www.w3.org/2000/svg">
<path d="M9.9019 22.514C9.87877 22.4741 9.85816 22.4329 9.84016 22.3906C9.71599 22.1098 9.67783 21.7998 9.7303 21.4983H2.37543L13.3057 2.71651L16.8941 8.87599L17.9344 7.07851L14.8063 1.69792C14.6564 1.42235 14.4381 1.18786 14.1715 1.01589C13.9048 0.843923 13.5983 0.739958 13.2799 0.713501C12.9621 0.727604 12.6548 0.8285 12.3929 1.00471C12.1309 1.18092 11.9249 1.42537 11.7982 1.71026L0.725085 20.7198C0.559567 20.9882 0.464135 21.2922 0.447182 21.6051C0.430229 21.9179 0.492275 22.2301 0.627862 22.514C0.798151 22.7762 1.04019 22.9867 1.32661 23.1215C1.61303 23.2564 1.93238 23.3104 2.24856 23.2772H11.5231C11.2069 23.3109 10.8873 23.2572 10.6008 23.1222C10.3143 22.9873 10.0723 22.7766 9.90238 22.514H9.9019Z" fill="#00C492"/>
<path d="M31.2247 20.7194L22.1252 5.06887C21.9759 4.79038 21.7572 4.55308 21.4892 4.37888C21.2213 4.20468 20.9127 4.09917 20.592 4.07211C20.2746 4.08555 19.9675 4.18581 19.7057 4.36147C19.4439 4.53712 19.2379 4.78109 19.1113 5.06555L17.9344 7.07805L18.9815 8.87601L20.6017 6.07512L29.604 21.4978H26.1808C26.2245 21.7527 26.1999 22.0144 26.1093 22.2572C26.0902 22.3109 26.0663 22.3629 26.0379 22.4124L26.0087 22.4694C25.8227 22.7259 25.5749 22.9337 25.2872 23.0744C24.9994 23.2151 24.6806 23.2845 24.3588 23.2763H29.7138C30.0356 23.2847 30.3545 23.2155 30.6423 23.0747C30.9301 22.934 31.1779 22.7261 31.3637 22.4694C31.5103 22.1942 31.575 21.8843 31.5505 21.575C31.5259 21.2656 31.413 20.9692 31.2247 20.7194Z" fill="#008776"/>
<path d="M26.0092 22.4699L26.0384 22.4129C26.0667 22.3633 26.0904 22.3114 26.1093 22.2577C26.1999 22.0148 26.2245 21.7532 26.1808 21.4983C26.1303 21.2233 26.0291 20.9596 25.8823 20.7199L18.9883 8.87601L17.9349 7.07852L16.8878 8.87601L9.9962 20.7199C9.86242 20.9625 9.77247 21.2258 9.7303 21.4983C9.67482 21.7991 9.70977 22.1092 9.83092 22.3911C9.84889 22.4334 9.86951 22.4746 9.89266 22.5145C10.063 22.7766 10.3051 22.987 10.5915 23.1218C10.8779 23.2566 11.1972 23.3104 11.5134 23.2773H24.3491C24.6724 23.2866 24.9931 23.2178 25.2826 23.0771C25.5721 22.9363 25.8215 22.7279 26.0087 22.4704L26.0092 22.4699ZM17.9344 10.674L24.2359 21.4978H11.6359L17.9344 10.674Z" fill="#2D4A5D"/>
</svg>
