<svg width="32" height="20" viewBox="0 0 32 20" fill="none" xmlns="http://www.w3.org/2000/svg">
<path d="M16 0.669434C11.8517 0.669434 9.25921 2.74299 8.22204 6.8897C9.77779 4.81615 11.5926 4.03886 13.6666 4.55705C14.85 4.85272 15.6958 5.71132 16.6322 6.66134C18.1572 8.20891 19.9223 10 23.778 10C27.9259 10 30.5188 7.92648 31.5556 3.77937C30.0002 5.85292 28.1854 6.6306 26.111 6.11241C24.928 5.81674 24.0822 4.95815 23.1458 4.00812C21.6208 2.46055 19.8553 0.669434 16 0.669434ZM8.22204 10C4.07415 10 1.48124 12.0736 0.444458 16.2207C1.99982 14.1471 3.81467 13.3695 5.889 13.888C7.07205 14.1841 7.91782 15.0423 8.85422 15.9919C10.3792 17.5395 12.1447 19.331 16 19.331C20.1483 19.331 22.7408 17.2575 23.778 13.1104C22.2222 15.1839 20.4074 15.9616 18.3334 15.443C17.15 15.1477 16.3042 14.2887 15.3678 13.3391C13.8428 11.7915 12.0778 10 8.22204 10Z" fill="#06B6D4"/>
</svg>
