<svg xmlns="http://www.w3.org/2000/svg" version="1.2" viewBox="0 0 1338 933" width="1338" height="933">
	<title>10221121</title>
	<style>
		.s0 { fill: #5ebdc4 } 
		.s1 { fill: none;stroke: #0f0e13;stroke-linecap: round;stroke-linejoin: round } 
		.s2 { fill: #000000 } 
		.s3 { opacity: .5;fill: #8f93f9 } 
		.s4 { fill: #8f93f9 } 
		.s5 { fill: #ffffff } 
		.s6 { fill: #dd3d60 } 
		.s7 { fill: #ac90e6 } 
		.s8 { fill: #e69183 } 
		.s9 { fill: #492f89 } 
		.s10 { fill: #181e4c } 
		.s11 { fill: #d97969 } 
		.s12 { fill: #e9a134 } 
		.s13 { fill: none;stroke: #000000;stroke-linecap: round;stroke-linejoin: round;stroke-width: .8 } 
		.s14 { fill: none;stroke: #ffffff;stroke-linecap: round;stroke-miterlimit:10 } 
		.s15 { fill: #ffffff;stroke: #000000;stroke-linecap: round;stroke-linejoin: round;stroke-width: 2 } 
		.s16 { fill: none;stroke: #000000;stroke-miterlimit:10;stroke-width: 2 } 
		.s17 { fill: none;stroke: #000000;stroke-linecap: round;stroke-miterlimit:10;stroke-width: 4 } 
		.s18 { fill: none;stroke: #000000;stroke-linecap: round;stroke-linejoin: round;stroke-width: 4 } 
		.s19 { fill: none;stroke: #000000;stroke-linecap: round;stroke-linejoin: round } 
		.s20 { fill: none;stroke: #8f93f9;stroke-miterlimit:10;stroke-width: 2 } 
		.s21 { fill: none;stroke: #0f0e13;stroke-linejoin: round } 
		.s22 { fill: none;stroke: #0f0e13;stroke-linejoin: round;stroke-width: 2 } 
	</style>
	<g id="OBJECTS">
		<g id="&lt;Group&gt;">
			<g id="&lt;Group&gt;">
				<path id="&lt;Path&gt;" class="s0" d="m1091 851.2c0 0-5.4-48.7 11.2-76.8 0 0 6.9 29.9 4.1 59.8 0 0 17.4-28.3 30-38.5 0 0-8.1 22-20.3 41 0 0 33.7-37.1 66.4-33.7 0 0-18.2 35.4-64.9 48.2" fill="#000000"/>
				<path id="&lt;Path&gt;" class="s1" d="m1109.2 851.2c0 0 27.1-29 66.4-45.5" fill="#000000"/>
				<path id="&lt;Path&gt;" class="s1" d="m1099.8 797c0 0-3 30.9-0.5 53.2" fill="#000000"/>
			</g>
			<g id="&lt;Group&gt;">
				<path id="&lt;Path&gt;" class="s0" d="m149.8 851.2c0 0-51.5-23.7-71.4-97.8 0 0 42.7 16.1 70.4 69.5 0 0-4.9-34.1-0.3-60.5 0 0 12.6 15.5 20.2 64.7 0 0 5-62 37.4-49 0 0 35.6-13.2 29.1 52.1 0 0-11.1-18.6-29.9-34.7 0 0-17 16.5-31 55.7" fill="#000000"/>
				<g id="&lt;Group&gt;">
					<path id="&lt;Path&gt;" class="s2" d="m205.3 795.5c0 0-2.7 2.6-6.8 8.2-3.9-10.4-9.5-19.1-9.5-19.1 8.2 4.6 16.3 10.9 16.3 10.9z" fill="#000000"/>
				</g>
				<path id="&lt;Path&gt;" class="s1" d="m208.6 780c0 0 16.3 13.8 23.3 38.5" fill="#000000"/>
				<path id="&lt;Path&gt;" class="s1" d="m89.7 766.2c0 0 43.7 31.3 67.5 85" fill="#000000"/>
				<path id="&lt;Path&gt;" class="s1" d="m161.5 851.2c0 0-2.3-40.5-9-69.1" fill="#000000"/>
			</g>
		</g>
		<g id="&lt;Group&gt;">
			<path id="&lt;Path&gt;" class="s3" d="m949.3 806.4h-662.6v-677.4h662.6z" fill="#000000"/>
			<path id="&lt;Path&gt;" class="s4" d="m949.3 198.1h-662.6v-69.1h662.6z" fill="#000000"/>
			<g id="&lt;Group&gt;">
				<path id="&lt;Path&gt;" class="s5" d="m809.8 163.6c0 6.5-5.3 11.8-11.8 11.8-6.6 0-11.9-5.3-11.9-11.8 0-6.6 5.3-11.9 11.9-11.9 6.5 0 11.8 5.3 11.8 11.9z" fill="#000000"/>
				<path id="&lt;Path&gt;" class="s6" d="m864.6 163.6c0 6.5-5.3 11.8-11.9 11.8-6.5 0-11.8-5.3-11.8-11.8 0-6.6 5.3-11.9 11.8-11.9 6.6 0 11.9 5.3 11.9 11.9z" fill="#000000"/>
				<path id="&lt;Path&gt;" class="s2" d="m919.4 163.6c0 6.5-5.3 11.8-11.9 11.8-6.5 0-11.8-5.3-11.8-11.8 0-6.6 5.3-11.9 11.8-11.9 6.6 0 11.9 5.3 11.9 11.9z" fill="#000000"/>
			</g>
		</g>
		<g id="&lt;Group&gt;">
			<g id="&lt;Group&gt;">
				<path id="&lt;Path&gt;" class="s7" d="m369.5 762.4c12.2 32.4-4.1 68.6-36.5 80.8-32.4 12.3-68.6-4.1-80.8-36.5-12.3-32.4 4.1-68.6 36.5-80.8 32.4-12.2 68.6 4.1 80.8 36.5z" fill="#000000"/>
				<path id="&lt;Compound Path&gt;" class="s7" d="m258 644.6c-35.3 13.3-62.7 38.7-79.2 69.6-6.6 12.5-1.4 28 11.5 33.9 11.9 5.3 25.7 0.4 31.8-11.1 11.1-20.7 29.5-37.7 53.2-46.6 23.6-9 48.6-8.4 70.7-0.2 12.1 4.6 25.8-0.8 31.1-12.7 5.8-12.9-0.5-28-13.7-32.9-32.8-12.4-70.1-13.3-105.4 0z" fill="#000000"/>
				<path id="&lt;Compound Path&gt;" class="s7" d="m228.2 565.9c-57.3 21.6-101.1 63.4-126.5 114.4-6.2 12.3-0.7 27.4 11.9 33.1 11.9 5.4 26.1 0.4 31.9-11.3 20-40.3 54.7-73.4 100-90.5 45.3-17.1 93.2-15.2 134.9 1.8 12.1 4.9 26-0.7 31.4-12.6 5.7-12.6-0.2-27.5-13-32.7-52.7-21.4-113.3-23.9-170.6-2.2z" fill="#000000"/>
				<path id="&lt;Compound Path&gt;" class="s7" d="m197.5 484.5c-79.8 30.2-140.6 88.9-175.2 160.3-5.9 12.3-0.4 27.1 12 32.8h0.1c12 5.4 26.2 0.4 31.9-11.5 29.3-60.5 80.9-110.3 148.5-135.8 67.7-25.6 139.3-22.2 201.2 3.8 12.1 5.1 26.2-0.5 31.6-12.5v-0.1c5.6-12.4 0-27.2-12.7-32.5-73-30.7-157.5-34.6-237.4-4.5z" fill="#000000"/>
			</g>
			<g id="&lt;Group&gt;">
				<g id="&lt;Group&gt;">
					<path id="&lt;Path&gt;" class="s8" d="m400.1 751.1l-20.7 49.9c-8.9 10.2-47.9 9-54.3-1.4l13.6-54.9" fill="#000000"/>
					<path id="&lt;Path&gt;" class="s9" d="m326.9 792.4l18.4 3.2 15.3-10.3 23.1 7.4-1.7 12.6c0 0 3.5-0.1 8.1-0.2 14.8-6.6 25.2-4.3 32.3 0.2 18.6 11.7 12.1 41.9 12.1 41.9h-124.4c0 0-1.8-42 16.8-54.8z" fill="#000000"/>
				</g>
				<g id="&lt;Group&gt;">
					<path id="&lt;Path&gt;" class="s8" d="m496.4 597l-45.5 48.6c-13 3.6-43.5-18.6-43-30.8l30-35.7" fill="#000000"/>
					<path id="&lt;Path&gt;" class="s9" d="m411.8 609.7l13.6 12.7 18.5-0.3 15.2 18.9-8.3 9.7c0 0 3 1.8 6.9 4.2 16 2.6 23.4 10.2 26.9 17.9 9.1 20-12.9 41.7-12.9 41.7l-104-68.2c0 0 21.5-36.2 44.1-36.6z" fill="#000000"/>
				</g>
				<g id="&lt;Group&gt;">
					<path id="&lt;Path&gt;" class="s10" d="m429.4 480c0 0 79.5-19.8 96.1-18.4 27.6 2.3 48.8 30.1 37.3 57.6-8.4 20.3-71.6 119.1-71.6 119.1-22.9-8-46.5-25.8-63.9-49.3l40.7-46.9c-22.2 11.3-42.9 14.7-61.7 12.5l-41.9-50.5z" fill="#000000"/>
				</g>
				<path id="&lt;Path&gt;" class="s2" d="m437.7 553c-10.9 2.3-21.4 2.7-31.4 1.6l-41.9-50.5 10.7-4 25.9 19.3z" fill="#000000"/>
				<g id="&lt;Group&gt;">
					<path id="&lt;Path&gt;" class="s10" d="m453.3 614.6c-22-39.7-62.5-120-62.5-120-31.8-0.8-88.7-0.8-88.7-0.8-14.8 41.5-4.8 56.3-4.8 56.3 0 0 14 8 26.3 15.1 17 20.5 31.1 37.9 47.4 58.3-21.9 50.1-39.1 133.7-39.1 133.7 29.9 19.2 85 22.8 85 22.8 0 0 30.6-123.8 35.2-143.3 0.9-3.9 4.6-15.6 1.2-22.1z" fill="#000000"/>
				</g>
				<g id="&lt;Group&gt;">
					<path id="&lt;Path&gt;" class="s11" d="m468.8 378.2l7.5 7.8c0 0 31.3-31.2 42.8-46.1l17.6 12c0 0-35.3 62.8-48.7 76.9-5.2 5.3-30.5 4.5-52.9-24.1z" fill="#000000"/>
				</g>
				<g id="&lt;Group&gt;">
					<path id="&lt;Path&gt;" class="s12" d="m432.2 419.4c29.4-19 42.4-36.6 42.4-36.6-23.2-25.5-36.8-40.9-44.3-49.2-5.5-6.1-39.4-11.4-46.2-12.2-1.7 11 26.2 72.3 27.2 72.8z" fill="#000000"/>
				</g>
				<path id="&lt;Path&gt;" class="s2" d="m436.5 416.6q-2.1 1.4-4.3 2.8l-20.9-25.2c-0.2-0.1-2-3.7-4.6-9.4l11.3-2z" fill="#000000"/>
				<g id="&lt;Group&gt;">
					<path id="&lt;Path&gt;" class="s12" d="m291.1 505.3c-0.4 2 7.9 10.5 28 15.6 0 0 73.3 5.9 110.3-40.9-2.2-4.2-7.2-14.3-9.6-19.2 2.8-47.8 6.3-108.3 4.2-122.1-10.3-11.5-40.1-16.9-41.9-17.3-0.1-0.1-25.2-4.1-31.8-3.8-14.9 3.8-41.3 11.7-54.4 34.1 0.7 17.9-0.5 39.6 1.7 67.5 0.4 4.2 0.7 52.9-6.5 86.1z" fill="#000000"/>
				</g>
				<g id="&lt;Group&gt;">
					<g id="&lt;Group&gt;">
						<path id="&lt;Path&gt;" class="s11" d="m350.3 317.4c3-0.5 10.7-32.9 10.7-32.9l0.1 0.1c-1-1.3-1.8-2.7-2.3-4.6-2.6-10-6.1-28.3-1.6-39.4 6.5-15.7 62.4-30.7 63.1 7.7 0 0 6.7 51.1-15.9 59.5 0 0-5.3 0.5-12.2-1-1.5 5.3-4.1 15.1-4.1 15.1 1.8 2.4 8.5 15.6-9 17.7-27.2 3.3-33.3-20.1-28.8-22.2z" fill="#000000"/>
					</g>
					<path id="&lt;Path&gt;" class="s2" d="m357.6 295.8l3-0.1c0.6-9.4 0.7-13.2 0.9-20.1 0 0 0 0 0 0-4.6-9.9-2.2-15.9 4.7-16.8 8.8-1.1 10.1 11.2 10.1 11.2 7.7-1.4 8.6-12 9.2-17 3.4 1.2 26.3-18.4 35.2 0.3 8.3-3.4 13.5-12.7 8.3-17.1 0 0 6.2-6.2 4.8-15.6-0.2-1.5-1.7-2.5-3.2-2.2-14.7 3.6-25.4-6-25.4-6 0 0-10.1-8.1-22.1-1.8-21.7 11.3-26.1 21.3-26.1 21.3-40.8 6.2 0.3 62.1 0.6 63.9z" fill="#000000"/>
				</g>
				<path id="&lt;Path&gt;" class="s2" d="m325.9 373.1l-28.3 46.3q0-0.1 0-0.2c-0.7-8.8-1-17-1.2-24.7z" fill="#000000"/>
				<g id="&lt;Group&gt;">
					<path id="&lt;Path&gt;" class="s11" d="m282.6 339.6c0 0-25.9 21.6-44.2 36.2-16.7 14.5-21.8 44.2-6.2 49.2 26.3 8.6 80.5-47 80.5-47z" fill="#000000"/>
				</g>
				<g id="&lt;Group&gt;">
					<path id="&lt;Path&gt;" class="s12" d="m349.9 317.7c-16.5-2.1-26-9.3-39.4-7.9-18.6 1.9-42.5 40.1-65 58.8 0 0 14.3 18.6 37.1 43.3l42.4-38c0 0 25.3-21.2 16.5-43.2" fill="#000000"/>
				</g>
				<path id="&lt;Path&gt;" class="s2" d="m304.1 361.7h-31.7c-1.9 0-3.6-1.4-4-3.3l-11.2-58.1c-0.4-1.9 1.1-3.8 3.1-3.8h31.7c2 0 3.7 1.4 4 3.4l11.2 58c0.4 2-1.1 3.8-3.1 3.8z" fill="#000000"/>
				<path id="&lt;Path&gt;" class="s9" d="m300.7 363.3h-31.6c-2 0-3.7-1.5-4.1-3.4l-11.1-58c-0.4-2 1.1-3.8 3.1-3.8h31.6c2 0 3.7 1.4 4.1 3.3l11.2 58c0.3 2-1.2 3.9-3.2 3.9z" fill="#000000"/>
				<g id="&lt;Group&gt;">
					<path id="&lt;Path&gt;" class="s11" d="m260 354.6l18.9 13.3c-7.9 34.5-16.6 46.4-23 51.4-10.4 8.1-21.5 6.5-25.6 4.9-14.3-5.3-27.5-35.4 8.8-50.6 9.8-7.7 17.6-15.9 20.9-19z" fill="#000000"/>
				</g>
				<path id="&lt;Path&gt;" class="s13" d="m274.1 385.8c-6.5 21-13.1 29.5-18.2 33.5-10.4 8.1-21.5 6.5-25.6 4.9" fill="#000000"/>
				<g id="&lt;Group&gt;">
					<path id="&lt;Path&gt;" class="s13" d="m364.4 262.9c8.1-0.7 10.9 11.7 4.5 14.7" fill="#000000"/>
					<path id="&lt;Path&gt;" class="s13" d="m365.6 266.7c0 0 6.5-0.3 6.5 7" fill="#000000"/>
				</g>
				<g id="&lt;Group&gt;">
					<path id="&lt;Path&gt;" class="s13" d="m404.7 270.2c0 6.5-4.3 11.7-9.6 11.7-5.3 0-9.6-5.2-9.6-11.7 0-6.4 4.3-11.7 9.6-11.7 5.3 0 9.6 5.3 9.6 11.7z" fill="#000000"/>
					<path id="&lt;Path&gt;" class="s13" d="m425.6 270.2c0 6.5-3.4 11.7-7.6 11.7-4.2 0-7.6-5.2-7.6-11.7 0-6.4 3.4-11.7 7.6-11.7 4.2 0 7.6 5.3 7.6 11.7z" fill="#000000"/>
					<path id="&lt;Path&gt;" class="s13" d="m403.6 269.4c0 0 4.1-1.7 7.8 0" fill="#000000"/>
				</g>
				<path id="&lt;Path&gt;" class="s2" d="m392.2 306.8c0 0-14.9-5.5-19.8-16.7 0 0 1.5 19.1 17.1 26.7z" fill="#000000"/>
				<path id="&lt;Path&gt;" class="s11" d="m289.1 356.4c-0.9-0.1-2.2-0.3-3.7-0.5 1.7-0.1 3-0.2 3.5-0.2 4.5-0.4 3.7-6.8 0.5-6.8-0.9-0.1-2.4-0.1-4.2-0.2 2.3-1.1 2.2-5.9-0.8-6.3-3.3-0.4-14-1.6-15.6-1.4-0.9 0.1-3.5 0.7-6 1.3l3.8-4.1c0 0 7.3 2.4 11 1.9 3.7-0.5 4.3-6 2-6.8-1.3-0.5-9.7-4.5-15.4-7.2-1.2-0.6-4.6 0.8-5.4 1.5-0.5 0.6-8.9 11.8-9 13-0.1 2 7.2 16.7 7.2 16.7 0 0 5 11.9 19.4 12.4 9.9 0.4 11.8-6.4 11.8-6.4h-0.1q0.3 0 0.5 0c3.7 0 4.9-6.1 0.5-6.9z" fill="#000000"/>
				<path id="&lt;Path&gt;" class="s13" d="m257 357.3c0 0 5 11.9 19.4 12.4 9.9 0.4 11.8-6.4 11.8-6.4h-0.1q0.3 0 0.5 0" fill="#000000"/>
				<path id="&lt;Path&gt;" class="s13" d="m288.1 363.3c0 0-5.6-0.2-9.9-0.2-1.4 0-2.7 0.4-3.9 0.8" fill="#000000"/>
				<path id="&lt;Path&gt;" class="s13" d="m285.4 355.9l-10.8-0.6-3.6 2" fill="#000000"/>
				<path id="&lt;Path&gt;" class="s13" d="m285.2 348.7c0 0-10.9-1.2-12.2-1.2-1.4 0-6.7 2.5-6.7 2.5" fill="#000000"/>
				<path id="&lt;Path&gt;" class="s11" d="m518.9 339.3c0 0 0.3-9.5 7.2-13 6.9-3.5 14.2-2.2 16.4-2.4 2.3-0.2 9-3.7 11.7-4.3 2.7-0.6 5.6 2.2 4.4 4.8-1.1 2.2-8.4 6.9-8.4 6.9l8.5-0.2c0 0 5.6-12.6 9.2-15.4 3.5-2.8 7.5-1 6.5 1.9-0.9 2.9-5.6 12.6-5.6 12.6 0 0 14.2-11.9 16-12.8 3-1.6 7-0.2 6.1 1.9-1.2 2.8-9.6 12-9.3 12.1 0 0 10-2.1 11.8-1.7 2.3 0.5 4.3 4.3 0 5.6-4.1 1.2-25.1 7.2-25.1 7.2 0 0-3.8 1.9-5.6 2.7-1.7 0.9-21.8 2.1-21.8 2.1l-9 13.1-40.8 10.5z" fill="#000000"/>
				<path id="&lt;Path&gt;" class="s13" d="m529.1 336.6c0 0 2.7-4.8 9.7-5.3 6.9-0.5 10.2 0 10.2 0" fill="#000000"/>
				<path id="&lt;Path&gt;" class="s13" d="m572.4 322.5c0 0-7.8 18.3-8.8 19.7-1 1.4-4.8 2.2-4.8 2.2" fill="#000000"/>
				<path id="&lt;Path&gt;" class="s13" d="m586.7 325.1l-12.8 15.3" fill="#000000"/>
				<path id="&lt;Path&gt;" class="s14" d="m374.4 621c0 0 22.8-21.1 49.4-16.4" fill="#000000"/>
				<path id="&lt;Path&gt;" class="s14" d="m469.6 539.9l35.4-37.5" fill="#000000"/>
			</g>
		</g>
		<g id="&lt;Group&gt;">
			<g id="&lt;Group&gt;">
				<g id="&lt;Group&gt;" style="opacity: .3">
					<g id="&lt;Group&gt;">
						<path id="&lt;Compound Path&gt;" fill-rule="evenodd" class="s4" d="m1166.2 701.4l19.2 7.5-16.3 28.1-16-12.9c-7.7 8.3-17.8 14.3-29.2 16.9l3 20.3h-32.4l3.1-20.3c-11.4-2.6-21.5-8.6-29.2-16.9l-16.1 12.9-16.2-28.1 19.1-7.5c-1.6-5.4-2.5-11-2.5-16.9 0-5.9 0.9-11.5 2.5-16.9l-19.1-7.5 16.2-28.1 16.1 12.9c7.7-8.3 17.8-14.3 29.2-16.9l-3.1-20.3h32.4l-3 20.3c11.3 2.6 21.4 8.6 29.2 16.9l16-12.9 16.3 28.1-19.2 7.5c1.7 5.4 2.5 11 2.5 16.9 0 5.9-0.8 11.5-2.5 16.9zm-17.5-16.9c0-21-17-38-38-38-21 0-38 17-38 38 0 21 17 38 38 38 21 0 38-17 38-38z" fill="#000000"/>
					</g>
				</g>
				<g id="&lt;Group&gt;" style="opacity: .3">
					<g id="&lt;Group&gt;">
						<path id="&lt;Compound Path&gt;" fill-rule="evenodd" class="s4" d="m1296.3 586l24.3 9.5-20.7 35.8-20.4-16.3c-9.8 10.5-22.7 18.1-37.2 21.4l4 25.9h-41.3l3.9-25.9c-14.5-3.3-27.4-10.9-37.2-21.4l-20.4 16.3-20.7-35.8 24.3-9.5c-2-6.8-3.1-14-3.1-21.5 0-7.5 1.1-14.7 3.1-21.5l-24.3-9.5 20.7-35.8 20.4 16.4c9.8-10.5 22.7-18.1 37.2-21.5l-3.9-25.8h41.3l-4 25.8c14.5 3.4 27.4 11 37.2 21.5l20.4-16.4 20.7 35.8-24.3 9.5c2 6.8 3.1 14 3.1 21.5 0 7.5-1.1 14.7-3.1 21.5zm-22.3-21.5c0-26.7-21.7-48.4-48.4-48.4-26.7 0-48.4 21.7-48.4 48.4 0 26.7 21.7 48.4 48.4 48.4 26.7 0 48.4-21.7 48.4-48.4z" fill="#000000"/>
					</g>
				</g>
				<g id="&lt;Group&gt;" style="opacity: .3">
					<g id="&lt;Group&gt;">
						<path id="&lt;Compound Path&gt;" fill-rule="evenodd" class="s4" d="m236 254l9.5 3.7-8 13.9-8-6.4c-3.8 4.1-8.8 7.1-14.5 8.4l1.6 10h-16.1l1.5-10c-5.6-1.3-10.6-4.3-14.4-8.4l-8 6.4-8-13.9 9.4-3.7c-0.8-2.7-1.2-5.5-1.2-8.4 0-2.9 0.4-5.7 1.2-8.3l-9.4-3.8 8-13.9 8 6.4c3.8-4.1 8.8-7.1 14.4-8.4l-1.5-10h16.1l-1.6 10c5.7 1.3 10.7 4.3 14.5 8.4l8-6.4 8 13.9-9.5 3.8c0.8 2.6 1.3 5.4 1.3 8.3 0 2.9-0.5 5.7-1.3 8.4zm-8.6-8.4c0-10.4-8.5-18.8-18.9-18.8-10.4 0-18.8 8.4-18.8 18.8 0 10.4 8.4 18.8 18.8 18.8 10.4 0 18.9-8.4 18.9-18.8z" fill="#000000"/>
					</g>
				</g>
			</g>
			<g id="&lt;Group&gt;">
				<g id="&lt;Group&gt;">
					<path id="&lt;Path&gt;" class="s15" d="m632.3 288.5h-140.2v-101.7h140.2z" fill="#000000"/>
					<path id="&lt;Path&gt;" class="s2" d="m584.2 237.7l-44-25.4v50.7z" fill="#000000"/>
				</g>
				<path id="&lt;Path&gt;" class="s1" d="m654.9 252c0 0 20.9-59.8 91.4-44.1 58.7 13 48.8 97.9 28.1 90.2-10.8-3.9 5.6-51.2 55-50.8 35.2 0.3 56 25.9 61.9 50.8" fill="#000000"/>
			</g>
			<g id="&lt;Group&gt;">
				<g id="&lt;Group&gt;">
					<g id="&lt;Group&gt;">
						<path id="&lt;Path&gt;" class="s12" d="m786.1 340.3c0 0-41.4 25.7-97.2 32.5 0 0-0.1 118.1 97.2 156.5 97.3-38.4 97.2-156.5 97.2-156.5-55.8-6.8-97.2-32.5-97.2-32.5z" fill="#000000"/>
					</g>
					<path id="&lt;Path&gt;" class="s5" d="m786.1 511.7c-62.3-28.3-76.7-95.9-80-125.1 37-6.8 66.2-20.4 80-27.7 13.8 7.3 43 20.9 80 27.7-1.3 11.1-4.1 27.7-10.5 45.6-13.7 38.1-37.1 64.8-69.5 79.5z" fill="#000000"/>
				</g>
				<path id="&lt;Compound Path&gt;" fill-rule="evenodd" class="s9" d="m815.9 426.3v43.7h-59.6v-43.7h4.2v-7.9c0-14 11.4-25.4 25.4-25.4 14 0 25.4 11.4 25.4 25.4v7.9zm-26.8 22.7c2.9-1.2 4.9-4.1 4.9-7.4 0-4.4-3.6-8-8-8-4.5 0-8.1 3.6-8.1 8 0 3.3 2 6.2 4.9 7.4l-4.2 13.9h14.7zm16.2-30.6c0-10.7-8.7-19.4-19.4-19.4-10.7 0-19.4 8.7-19.4 19.4v7.8h38.8z" fill="#000000"/>
			</g>
			<g id="&lt;Group&gt;">
				<path id="&lt;Path&gt;" class="s2" d="m683.2 530.4l22.9-56.1-60 8.3 11.4 14.6-18.6 14.4 14.4 18.5 18.5-14.4z" fill="#000000"/>
				<path id="&lt;Path&gt;" class="s1" d="m638.9 524.2c-58.6 35.7-72.3 105.6-51.9 155.6 16.6 40.5 87.6 96 165.7 58.4 37-17.9 47.1-62 28.3-94-11.1-13.8-26.7-4.9-23.8 10.5 11.5 60.2 104.7 60.2 121 7.6" fill="#000000"/>
			</g>
			<g id="&lt;Group&gt;">
				<path id="&lt;Path&gt;" class="s7" d="m1147.3 191.6c0 9.3-7.6 16.9-16.9 16.9-9.3 0-16.8-7.6-16.8-16.9 0-9.3 7.5-16.8 16.8-16.8 9.3 0 16.9 7.5 16.9 16.8z" fill="#000000"/>
				<path id="&lt;Compound Path&gt;" class="s7" d="m1130.4 151.5c-10.1 0-19.4 3.7-26.4 10-2.9 2.5-3.1 6.9-0.4 9.5 2.5 2.5 6.4 2.6 9.1 0.3 4.7-4.2 10.9-6.7 17.7-6.7 6.8 0 13.1 2.5 17.8 6.7 2.6 2.3 6.6 2.2 9-0.3 2.7-2.6 2.6-7-0.3-9.5-7.1-6.3-16.3-10-26.5-10z" fill="#000000"/>
				<path id="&lt;Compound Path&gt;" class="s7" d="m1130.4 128.9c-16.4 0-31.4 6.3-42.6 16.7-2.7 2.5-2.8 6.8-0.2 9.5 2.5 2.4 6.5 2.5 9.1 0.1 8.9-8.2 20.7-13.2 33.7-13.2 13 0 24.9 5 33.7 13.2 2.6 2.4 6.6 2.3 9.1-0.1 2.7-2.7 2.6-7-0.1-9.5-11.2-10.4-26.2-16.7-42.7-16.7z" fill="#000000"/>
				<path id="&lt;Compound Path&gt;" class="s7" d="m1130.4 105.5c-22.9 0-43.7 9-59.2 23.7-2.6 2.5-2.7 6.7-0.1 9.3v0.1c2.5 2.5 6.6 2.5 9.2 0.1 13.1-12.4 30.7-20 50.1-20 19.5 0 37.1 7.6 50.2 20 2.6 2.4 6.6 2.4 9.1-0.1v-0.1c2.6-2.6 2.6-6.8-0.1-9.3-15.4-14.7-36.3-23.7-59.2-23.7z" fill="#000000"/>
			</g>
			<g id="&lt;Group&gt;">
				<g id="&lt;Group&gt;">
					<path id="&lt;Path&gt;" class="s16" d="m1172.3 352.1h-37.8c-5.7 0-10.4-4.7-10.4-10.5v-37.8c0-5.7 4.7-10.4 10.4-10.4h37.8c5.8 0 10.5 4.7 10.5 10.4v37.8c0 5.8-4.7 10.5-10.5 10.5z" fill="#000000"/>
					<g id="&lt;Group&gt;">
						<path id="&lt;Path&gt;" class="s17" d="m1192.9 308.9h56.7" fill="#000000"/>
						<path id="&lt;Path&gt;" class="s17" d="m1192.9 322.7h56.7" fill="#000000"/>
						<path id="&lt;Path&gt;" class="s17" d="m1192.9 336.5h40.3" fill="#000000"/>
					</g>
					<path id="&lt;Path&gt;" class="s18" d="m1133.6 322.7l19.8 18.5 32.7-47.8" fill="#000000"/>
				</g>
				<g id="&lt;Group&gt;">
					<path id="&lt;Path&gt;" class="s16" d="m1172.3 439.5h-37.8c-5.7 0-10.4-4.7-10.4-10.5v-37.8c0-5.8 4.7-10.5 10.4-10.5h37.8c5.8 0 10.5 4.7 10.5 10.5v37.8c0 5.8-4.7 10.5-10.5 10.5z" fill="#000000"/>
					<g id="&lt;Group&gt;">
						<path id="&lt;Path&gt;" class="s17" d="m1192.9 396.3h56.7" fill="#000000"/>
						<path id="&lt;Path&gt;" class="s17" d="m1192.9 410.1h56.7" fill="#000000"/>
						<path id="&lt;Path&gt;" class="s17" d="m1192.9 423.9h40.3" fill="#000000"/>
					</g>
					<path id="&lt;Path&gt;" class="s18" d="m1133.6 410.1l19.8 18.4 32.7-47.8" fill="#000000"/>
				</g>
			</g>
			<g id="&lt;Group&gt;">
				<path id="&lt;Path&gt;" class="s5" d="m704.4 698.2h-45.1c-16.6 0-30-13.4-30-30v-61.2c0-16.5 13.4-30 30-30h45.1c16.6 0 30 13.5 30 30v61.2c0 16.6-13.4 30-30 30z" fill="#000000"/>
				<g id="&lt;Group&gt;">
					<g id="&lt;Group&gt;">
						<g id="&lt;Group&gt;">
							<path id="&lt;Path&gt;" class="s7" d="m705.5 601.1q-0.3 0-0.6-0.3c-4.4-3.8-9.7-6.3-15.8-7.5-0.5-0.1-0.9-0.6-0.8-1.1 0.1-0.6 0.6-0.9 1.2-0.8 6.4 1.2 12 3.9 16.7 8 0.4 0.3 0.4 0.9 0.1 1.3-0.2 0.3-0.5 0.4-0.8 0.4z" fill="#000000"/>
						</g>
						<g id="&lt;Group&gt;">
							<path id="&lt;Path&gt;" class="s7" d="m666.7 595.4c-0.4 0-0.7-0.2-0.9-0.6-0.2-0.5 0-1 0.5-1.3 4.5-1.9 9.4-2.9 14.5-2.9q2.3 0 4.5 0.2c0.5 0 0.9 0.5 0.9 1-0.1 0.6-0.5 1-1.1 0.9q-2.1-0.2-4.3-0.2c-4.8 0-9.4 1-13.7 2.8q-0.2 0.1-0.4 0.1z" fill="#000000"/>
						</g>
					</g>
					<g id="&lt;Group&gt;">
						<g id="&lt;Group&gt;">
							<path id="&lt;Path&gt;" class="s7" d="m653.8 669.1c-0.4 0-0.7-0.1-0.9-0.5-2.1-3.6-3.9-7.5-5.3-11.6-0.2-0.5 0.1-1.1 0.6-1.2 0.5-0.2 1 0.1 1.2 0.6 1.4 4 3.1 7.8 5.2 11.3 0.3 0.4 0.1 1-0.3 1.3q-0.3 0.1-0.5 0.1z" fill="#000000"/>
						</g>
						<g id="&lt;Group&gt;">
							<path id="&lt;Path&gt;" class="s7" d="m663.9 681.7q-0.4 0-0.7-0.3c-3-2.9-5.8-6-8.2-9.5-0.3-0.4-0.2-1 0.3-1.3 0.4-0.3 1-0.2 1.3 0.2 2.3 3.3 5 6.4 8 9.2 0.4 0.3 0.4 0.9 0 1.3-0.2 0.2-0.4 0.4-0.7 0.4z" fill="#000000"/>
						</g>
					</g>
					<g id="&lt;Group&gt;">
						<path id="&lt;Path&gt;" class="s7" d="m674.7 683.9q-0.3 0-0.6-0.2c-28.5-18.4-25.6-51.8-25.2-55.6 0.6-18.6 14.3-32.7 31.9-32.7 23.9 0 33.6 19 34.7 35.3 0.1 0.5-0.3 1-0.9 1-0.5 0-1-0.4-1-0.9-1.1-16.2-10.3-33.4-32.8-33.4-16.6 0-29.4 13.2-30 30.8-0.4 3.8-3.1 36.1 24.4 53.9 0.4 0.3 0.6 0.9 0.3 1.3-0.2 0.3-0.5 0.5-0.8 0.5z" fill="#000000"/>
					</g>
					<g id="&lt;Group&gt;">
						<g id="&lt;Group&gt;">
							<path id="&lt;Path&gt;" class="s7" d="m715.2 638.6q-0.2 0-0.3 0c-4.1-1.3-5.8-5.5-6.1-8.7q0-0.9-0.1-1.7c-0.1-0.6 0.3-1 0.8-1.1 0.6 0 1.1 0.3 1.1 0.9q0.1 0.8 0.2 1.7c0.1 2.1 1.3 6 4.7 7 0.5 0.1 0.8 0.7 0.6 1.2-0.1 0.4-0.5 0.7-0.9 0.7z" fill="#000000"/>
						</g>
						<g id="&lt;Group&gt;">
							<path id="&lt;Path&gt;" class="s7" d="m709 625.2c-0.4 0-0.8-0.3-0.9-0.7-1.4-5.9-4.2-11.1-8.3-14.9-0.4-0.4-0.4-1-0.1-1.4 0.4-0.4 1-0.4 1.4 0 4.4 4.1 7.4 9.6 8.9 15.8 0.1 0.6-0.3 1.1-0.8 1.2q-0.1 0-0.2 0z" fill="#000000"/>
						</g>
						<g id="&lt;Group&gt;">
							<path id="&lt;Path&gt;" class="s7" d="m697 607.1q-0.3 0-0.6-0.2c-3.5-2.3-7.5-3.8-11.9-4.4q-1.9-0.3-3.7-0.3c-0.6 0-1-0.4-1-0.9 0-0.6 0.4-1 1-1q2 0 4 0.3c4.7 0.6 9 2.2 12.7 4.7 0.5 0.3 0.6 0.9 0.3 1.3-0.2 0.3-0.5 0.5-0.8 0.5z" fill="#000000"/>
						</g>
						<g id="&lt;Group&gt;">
							<path id="&lt;Path&gt;" class="s7" d="m659.9 612.5q-0.4 0.1-0.6-0.2c-0.5-0.3-0.5-0.9-0.2-1.3 4.2-5.5 10.3-9.2 17.1-10.3 0.5-0.1 1 0.2 1.1 0.8 0.1 0.5-0.3 1-0.8 1.1-6.3 1-11.9 4.4-15.9 9.6-0.2 0.2-0.4 0.3-0.7 0.3z" fill="#000000"/>
						</g>
						<g id="&lt;Group&gt;">
							<path id="&lt;Path&gt;" class="s7" d="m653.8 635.3c-0.6 0-1-0.4-1-0.9-0.1-3.4 0.2-5.5 0.2-5.9 0.1-4.8 1.4-9.5 3.6-13.6 0.2-0.4 0.8-0.6 1.3-0.4 0.4 0.3 0.6 0.9 0.4 1.3-2.1 3.9-3.2 8.3-3.3 12.8q0 0 0 0.1c-0.1 0-0.3 2.2-0.3 5.6 0.1 0.6-0.4 1-0.9 1q0 0 0 0z" fill="#000000"/>
						</g>
						<g id="&lt;Group&gt;">
							<path id="&lt;Path&gt;" class="s7" d="m658.4 656.8c-0.4 0-0.8-0.2-0.9-0.6-2.2-5.1-3.6-10.5-4.3-16.2-0.1-0.6 0.3-1 0.8-1.1 0.6-0.1 1.1 0.3 1.1 0.8 0.7 5.6 2 10.8 4.1 15.8 0.3 0.5 0 1-0.5 1.2q-0.2 0.1-0.3 0.1z" fill="#000000"/>
						</g>
						<g id="&lt;Group&gt;">
							<path id="&lt;Path&gt;" class="s7" d="m671.6 675.3q-0.3 0-0.6-0.2c-4.9-4.4-8.9-9.5-11.8-15.3-0.3-0.4-0.1-1 0.4-1.3 0.5-0.2 1 0 1.3 0.4 2.9 5.6 6.7 10.5 11.4 14.7 0.4 0.4 0.4 1 0 1.4-0.1 0.2-0.4 0.3-0.7 0.3z" fill="#000000"/>
						</g>
						<g id="&lt;Group&gt;">
							<path id="&lt;Path&gt;" class="s7" d="m685.6 684.6q-0.2 0-0.4-0.1c-3.9-1.8-7.4-4-10.7-6.5-0.4-0.3-0.5-0.9-0.1-1.3 0.3-0.5 0.9-0.5 1.3-0.2 3.1 2.3 6.6 4.5 10.3 6.3 0.5 0.2 0.7 0.8 0.5 1.3-0.2 0.3-0.5 0.5-0.9 0.5z" fill="#000000"/>
						</g>
					</g>
					<g id="&lt;Group&gt;">
						<path id="&lt;Path&gt;" class="s7" d="m692.5 683.1q-0.2 0-0.4-0.1c-34.5-15.8-36-45.3-35.6-53.9v-0.4c0.3-13 11.2-23.6 24.3-23.6q1.6 0 3.3 0.3c12.6 1.7 20.9 11.1 21.8 24.7 0.4 5 3.4 10.5 9.4 11.5 0.6 0.1 0.9 0.6 0.8 1.2 0 0.5-0.5 0.8-1.1 0.8-7-1.2-10.6-7.6-11-13.4-0.8-12.6-8.6-21.3-20.1-22.9q-1.6-0.2-3.1-0.2c-12 0-22.1 9.7-22.4 21.7v0.4c-0.3 8.3 1.1 36.7 34.5 52.1 0.5 0.2 0.7 0.8 0.5 1.3-0.2 0.3-0.6 0.5-0.9 0.5z" fill="#000000"/>
					</g>
					<g id="&lt;Group&gt;">
						<g id="&lt;Group&gt;">
							<path id="&lt;Path&gt;" class="s7" d="m715.2 648.4q-0.1 0-0.2 0c-6.9-1.6-11.4-4.7-13.8-9.2-0.2-0.5 0-1.1 0.4-1.3 0.5-0.3 1.1-0.1 1.4 0.4 2 4 6.1 6.7 12.4 8.2 0.5 0.1 0.8 0.7 0.7 1.2-0.1 0.4-0.5 0.7-0.9 0.7z" fill="#000000"/>
						</g>
						<g id="&lt;Group&gt;">
							<path id="&lt;Path&gt;" class="s7" d="m700.7 635.9c-0.4 0-0.8-0.3-0.9-0.8q-0.3-1.2-0.5-2.6-0.1-1-0.1-2.1c-0.2-2.7-0.8-5.3-1.9-7.7-0.2-0.5 0-1.1 0.5-1.3 0.5-0.2 1.1 0 1.3 0.5 1.2 2.6 1.8 5.4 2 8.4q0 1.1 0.1 2 0.2 1.3 0.5 2.4c0.1 0.5-0.3 1-0.8 1.2q-0.1 0-0.2 0z" fill="#000000"/>
						</g>
						<g id="&lt;Group&gt;">
							<path id="&lt;Path&gt;" class="s7" d="m695.9 619.3c-0.3 0-0.6-0.1-0.8-0.3-2.1-2.9-5.1-5-8.5-6.1-0.5-0.2-0.7-0.7-0.6-1.2 0.2-0.5 0.8-0.8 1.3-0.7 3.7 1.3 7 3.6 9.4 6.8 0.3 0.4 0.2 1-0.2 1.3q-0.3 0.2-0.6 0.2z" fill="#000000"/>
						</g>
						<g id="&lt;Group&gt;">
							<path id="&lt;Path&gt;" class="s7" d="m671.1 614.7c-0.3 0-0.6-0.2-0.8-0.5-0.3-0.4-0.2-1 0.3-1.3 3.7-2.3 8.1-3.3 12.5-2.8 0.5 0.1 0.9 0.6 0.8 1.1 0 0.5-0.5 0.9-1.1 0.9-3.9-0.5-7.8 0.4-11.2 2.5q-0.2 0.1-0.5 0.1z" fill="#000000"/>
						</g>
						<g id="&lt;Group&gt;">
							<path id="&lt;Path&gt;" class="s7" d="m662.3 632.1q0 0 0 0c-0.6 0-1-0.5-1-1q0-1 0-1.8l0.1-0.4c0.1-4.9 2.1-9.6 5.7-13.2 0.4-0.4 1-0.4 1.4 0 0.3 0.4 0.3 1 0 1.4-3.3 3.2-5.1 7.4-5.2 11.9v0.4q-0.1 0.8-0.1 1.7c0 0.5-0.4 1-0.9 1z" fill="#000000"/>
						</g>
						<g id="&lt;Group&gt;">
							<path id="&lt;Path&gt;" class="s7" d="m667.4 654c-0.4 0-0.7-0.2-0.9-0.6-2.7-5.5-4.4-11.5-5-17.6 0-0.6 0.4-1 0.9-1.1 0.5 0 1 0.3 1.1 0.9 0.5 5.9 2.1 11.6 4.7 17 0.3 0.4 0.1 1-0.4 1.3q-0.2 0.1-0.4 0.1z" fill="#000000"/>
						</g>
						<g id="&lt;Group&gt;">
							<path id="&lt;Path&gt;" class="s7" d="m680.6 670.7q-0.3 0-0.6-0.3c-4.6-3.8-8.5-8.3-11.5-13.2-0.2-0.5-0.1-1.1 0.4-1.4 0.4-0.2 1-0.1 1.3 0.4 2.9 4.7 6.6 9 11 12.8 0.4 0.3 0.5 0.9 0.1 1.3-0.2 0.3-0.4 0.4-0.7 0.4z" fill="#000000"/>
						</g>
						<g id="&lt;Group&gt;">
							<path id="&lt;Path&gt;" class="s7" d="m697.7 680.9q-0.2 0-0.4-0.1c-5-2.1-9.6-4.6-13.6-7.5-0.5-0.3-0.6-0.9-0.3-1.4 0.3-0.4 0.9-0.5 1.4-0.2 3.9 2.8 8.4 5.3 13.3 7.3 0.5 0.2 0.7 0.8 0.5 1.3-0.2 0.4-0.5 0.6-0.9 0.6z" fill="#000000"/>
						</g>
					</g>
					<g id="&lt;Group&gt;">
						<path id="&lt;Path&gt;" class="s7" d="m702.2 678q-0.2 0-0.4 0c-33.2-12.4-36-38.1-35.6-48.6v-0.3c0.2-7.9 6.7-14.3 14.6-14.3q1 0 2 0.2c7.6 1 13 7.3 13.4 15.6 0.4 7.3 2.8 17.4 19.1 20.9 0.6 0.1 0.9 0.6 0.8 1.1-0.1 0.5-0.6 0.9-1.2 0.8-13.2-2.9-20-10.3-20.6-22.7-0.4-7.4-5.1-12.9-11.7-13.8q-0.9-0.1-1.8-0.1c-6.7 0-12.5 5.6-12.7 12.3v0.3c-0.3 10.1 2.3 34.8 34.4 46.8 0.5 0.2 0.8 0.7 0.6 1.2-0.2 0.4-0.5 0.6-0.9 0.6z" fill="#000000"/>
					</g>
					<g id="&lt;Group&gt;">
						<g id="&lt;Group&gt;">
							<path id="&lt;Compound Path&gt;" class="s7" d="m705.7 674.9q-0.1 0-0.3-0.1c-5-1.6-9.7-3.7-13.7-6.3-0.5-0.3-0.6-0.9-0.3-1.3 0.3-0.5 0.9-0.6 1.3-0.3 3.9 2.4 8.4 4.5 13.3 6.1 0.6 0.2 0.8 0.7 0.7 1.2-0.2 0.4-0.5 0.7-1 0.7zm-16.9-8.6q-0.3 0-0.6-0.2c-4.9-3.8-9-8.3-12-13.6-0.2-0.4-0.1-1 0.4-1.3 0.5-0.3 1-0.1 1.3 0.4 2.9 5 6.7 9.3 11.5 12.9 0.4 0.4 0.5 1 0.1 1.4-0.1 0.2-0.4 0.4-0.7 0.4zm25.8-8.1q-0.2 0-0.3 0c-2.4-0.6-4.6-1.2-6.7-2-0.5-0.2-0.7-0.8-0.5-1.3 0.2-0.5 0.7-0.7 1.2-0.5q3 1.1 6.5 1.9c0.5 0.1 0.8 0.6 0.7 1.2-0.1 0.4-0.5 0.7-0.9 0.7zm-10.7-3.8q-0.2 0-0.4-0.1c-4.8-2.6-8.4-6-10.7-10.2-0.3-0.5-0.1-1.1 0.4-1.3 0.4-0.3 1-0.1 1.3 0.3 2.1 3.9 5.4 7.1 9.9 9.5 0.4 0.2 0.6 0.8 0.4 1.3-0.2 0.3-0.5 0.5-0.9 0.5zm-28.6-4.9c-0.4 0-0.8-0.2-0.9-0.6-3-6.4-3.9-12.3-4.2-16.2 0-0.5 0.4-1 0.9-1 0.6 0 1 0.4 1.1 0.9 0.2 3.7 1.1 9.4 3.9 15.5 0.3 0.5 0.1 1.1-0.4 1.3q-0.2 0.1-0.4 0.1zm16.7-8.7c-0.4 0-0.8-0.3-0.9-0.7-1-2.7-1.5-5.7-1.6-9.2q-0.1-1.8-0.7-3.4c-0.2-0.5 0.1-1 0.6-1.2 0.5-0.2 1.1 0.1 1.3 0.6q0.6 1.8 0.7 3.9c0.1 3.3 0.6 6.2 1.5 8.7 0.2 0.5-0.1 1.1-0.6 1.2q-0.2 0.1-0.3 0.1zm-20.9-10.7q0 0-0.1-0.1c-0.5 0-0.9-0.5-0.8-1 0.8-5.9 6.2-10 12-9.2 2.5 0.3 4.6 1.5 6.3 3.3 0.3 0.4 0.3 1-0.1 1.4-0.4 0.4-1 0.3-1.4-0.1-1.3-1.5-3.1-2.4-5.1-2.7-4.7-0.6-9.2 2.7-9.8 7.5-0.1 0.5-0.5 0.9-1 0.9z" fill="#000000"/>
						</g>
					</g>
					<g id="&lt;Group&gt;">
						<path id="&lt;Path&gt;" class="s7" d="m708.8 671.2q-0.1 0-0.2 0c-37.3-10.8-33.7-41.3-33.6-41.6 0.4-3.2 3.4-5.4 6.5-5 2.9 0.4 4.9 2.9 5 6.4 0.3 7.2 3.4 24.5 27 30 0.5 0.1 0.8 0.6 0.7 1.1-0.1 0.6-0.6 0.9-1.1 0.8-24.9-5.8-28.2-24.2-28.5-31.9-0.1-1.8-1-4.2-3.3-4.5-2.1-0.3-4.1 1.2-4.4 3.4 0 0.2-3.2 29.2 32.2 39.4 0.5 0.2 0.8 0.7 0.7 1.2-0.1 0.5-0.5 0.7-1 0.7z" fill="#000000"/>
					</g>
					<g id="&lt;Group&gt;">
						<g id="&lt;Group&gt;">
							<path id="&lt;Path&gt;" class="s7" d="m711.3 667.3q-0.1 0-0.2 0c-3.6-1-7-2.2-10-3.6-0.4-0.2-0.6-0.8-0.4-1.3 0.2-0.4 0.8-0.7 1.3-0.4 2.9 1.3 6.1 2.5 9.6 3.4 0.5 0.2 0.8 0.7 0.6 1.2-0.1 0.4-0.5 0.7-0.9 0.7z" fill="#000000"/>
						</g>
						<g id="&lt;Group&gt;">
							<path id="&lt;Path&gt;" class="s7" d="m698.2 662.1q-0.2 0-0.5-0.1c-5.7-3.3-10.2-7.5-13.2-12.6-0.3-0.4-0.2-1 0.3-1.3 0.4-0.3 1-0.1 1.3 0.3 2.9 4.8 7.2 8.8 12.6 11.9 0.5 0.2 0.6 0.8 0.4 1.3-0.2 0.3-0.5 0.5-0.9 0.5z" fill="#000000"/>
						</g>
						<g id="&lt;Group&gt;">
							<path id="&lt;Path&gt;" class="s7" d="m683.4 646.4c-0.3 0-0.7-0.2-0.8-0.6-3.7-8.2-2.8-15.3-2.8-15.6 0.1-0.5 0.6-0.9 1.1-0.8 0.5 0.1 0.9 0.6 0.8 1.1 0 0.1-0.8 6.8 2.6 14.5 0.2 0.5 0 1.1-0.5 1.3q-0.2 0.1-0.4 0.1z" fill="#000000"/>
						</g>
					</g>
				</g>
			</g>
			<g id="&lt;Group&gt;">
				<path id="&lt;Path&gt;" class="s5" d="m605.2 459.1h-39.3c-3.9 0-7.1-3.2-7.1-7.1v-39.2c0-4 3.2-7.1 7.1-7.1h39.3c3.9 0 7 3.1 7 7.1v39.2c0 3.9-3.1 7.1-7 7.1z" fill="#000000"/>
				<path id="&lt;Path&gt;" class="s2" d="m598.5 432.4c0 7.1-5.8 12.9-13 12.9-7.1 0-12.9-5.8-12.9-12.9 0-7.2 5.8-12.9 12.9-12.9 7.2 0 13 5.7 13 12.9z" fill="#000000"/>
			</g>
		</g>
		<g id="&lt;Group&gt;">
			<path id="&lt;Path&gt;" class="s2" d="m981.9 212c0 0 3.8 27-6.8 44.4 0 0 29 7.4 39.1-5.2 10.1-12.7-6.8-40.9-6.8-40.9" fill="#000000"/>
			<path id="&lt;Path&gt;" class="s11" d="m993.9 760.9v51.3c0 0 26.8 11.1 43.1 2.3l7.1-62.4z" fill="#000000"/>
			<path id="&lt;Path&gt;" class="s11" d="m920.7 764.3l6.6 50.9c0 0 28 7.6 43-3.3l-0.9-62.8z" fill="#000000"/>
			<path id="&lt;Path&gt;" class="s6" d="m957.8 403.4l-3.4 11.7c0 0-8.9 3.3-14.2 21.9-5.4 18.6-41.6 128.7-46.4 158.7-2.7 16.8 27 181.6 27 181.6 0 0 29.1 7.7 50.7-3.3 0 0 16.3-147.8-9.2-178 14.7-29.6 27.7-62.4 39-98.3l2.7 2.9c0 0-9.4 100-11.2 122.4-1.8 22.3-2.1 151.9-2.1 151.9 0 0 30.5 11.3 55.3 3.2 0 0 34.4-289.7 30.4-321.1-3.8-29.9-22.1-46.1-22.1-46.1l-0.2-7.3z" fill="#000000"/>
			<path id="&lt;Path&gt;" class="s11" d="m984.3 273.2c0 0-18.8 7.2-23.9 13.2-5.1 6-25.6 67.8-25.6 67.8l34.2 14.7z" fill="#000000"/>
			<path id="&lt;Path&gt;" class="s2" d="m1002.2 265.4c0 0-5.4 2.6-17.9 7.8-2.8 1.8-7.6 10.9-10.8 19.4-7.5 9-14.3 18.8-14.7 24.9-0.6 8.4 7.8 18.1 8 20.1 0.4 4.5-9 66-9 66 0 0 34 19.7 96.3 0l2-46.8c0 0 30.4-61.4 31.5-77.4 0.6-8.8-1.5-16.5-9.2-19.1-4.9-0.1-21.2 0.3-21.2 0.3z" fill="#000000"/>
			<path id="&lt;Path&gt;" class="s11" d="m1047.5 260.1l-13.2-37.4h-24.9l0.7 39.5-7.9 3.2c0 0-8 10.5-10.6 18.4-4.9 14.9 16 19 32.4 8.4 18.5-12 33.2-31.6 33.2-31.6z" fill="#000000"/>
			<path id="&lt;Path&gt;" class="s2" d="m1036.4 228.7c-3 0.5-5.1 0.9-5.1 0.9 0 0-4.5 20.5-21.3 26.6l-0.6-33.5h24.9z" fill="#000000"/>
			<g id="&lt;Group&gt;">
				<path id="&lt;Path&gt;" class="s11" d="m976.2 188.1c0 0 5.6 61.6 32.1 57.3 26.5-4.3 40.7-35.6 38.9-56.2-3.6-43.3-73-35.1-71-1.1z" fill="#000000"/>
			</g>
			<path id="&lt;Path&gt;" class="s2" d="m1030.3 156c-17.5-8-31.4 5.4-31.4 5.4 0 0-6-3.1-14.1-0.3-11.8 4.1-18.4 23.8-6.8 39.8 0 0-1.5-19.8 17.3-22.8 0 0 9.8 16.4 31.7 22.6 15 33.3 4 52.9 4 52.9 14.8 5.4 41.7-7.3 44.1-21.2 5-28-27.3-68.4-44.8-76.4z" fill="#000000"/>
			<path id="&lt;Path&gt;" class="s7" d="m970.2 799.8c-8.4 0-25.6-0.5-27.5-0.7-5.8-7.4-13-11.1-22-9.9l-5.7 13.7c-6.9-1-22.5-3.8-36.7 0.4-23.5 7-20.4 43.9-20.4 43.9h118.7c8.6-30.1-6.4-47.4-6.4-47.4z" fill="#000000"/>
			<path id="&lt;Path&gt;" class="s7" d="m1038 804.5c7.7 9.4 7.5 27 8.5 42.7h-90.9c0 0-5.4-28.9 10.1-39.8 10.2-7.2 25.4-4 25.4-4 0.4-6.8 0.5-8.6 0.7-13 10.8-3 24.4-2.7 31.8 0 2.1 1.4 6 6.1 7.4 12.1z" fill="#000000"/>
			<path id="&lt;Path&gt;" class="s13" d="m955.6 847.2c0 0-5.4-28.9 10.1-39.8" fill="#000000"/>
			<path id="&lt;Path&gt;" class="s5" d="m998.8 392.6h-65c-2.1 0-4.2-1-5.5-2.7l-59.5-77.7c-1.2-1.6 0-3.9 1.9-3.9h65c2.1 0 4.2 1 5.5 2.7l59.5 77.7c1.2 1.6 0.1 3.9-1.9 3.9z" fill="#000000"/>
			<path id="&lt;Path&gt;" class="s9" d="m996.7 396.4h-64.9c-2.2 0-4.2-1.1-5.5-2.8l-59.5-77.7c-1.2-1.5-0.1-3.8 1.9-3.8h64.9c2.2 0 4.2 1 5.6 2.7l59.4 77.7c1.3 1.6 0.1 3.9-1.9 3.9z" fill="#000000"/>
			<g id="&lt;Group&gt;">
				<path id="&lt;Path&gt;" class="s11" d="m1075.7 260.6c0 0-10.5 1.6-16.8 26.6-5.7 22.8-9.6 52.1-9.6 52.1l-25.3-7.9-19.7-18c0 0-22-20.9-23.3-21.4-1.4-0.5-4.7 2.8-3 7 1 2.4 5.4 7.5 9 11.6l-15.9-2.5c-6.1-1.2-6.8 5.6 0.1 8.4 4.8 1.9 19.2 5 19.2 5q0.3 3.2 1.1 6c-2.8-0.7-6.6-1.6-8.4-1.5-3 0.1-4.6 3.8-2.5 6 2 2.2 12.9 5.9 12.9 5.9 0 0 7 6.1 13.9 5.7q0.1 0 0.1 0c11 9.7 37.5 33.8 58 31.7 16.2-1.6 31.8-74.5 34.8-87.9 2.9-13.3-9.6-29.7-24.6-26.8z" fill="#000000"/>
				<path id="&lt;Path&gt;" class="s13" d="m1051.3 339.7c0 0 9 2.3 15.2 5.6 6.1 3.4 7.7 6.7 7.7 6.7" fill="#000000"/>
				<path id="&lt;Path&gt;" class="s13" d="m991.4 321.7l3.7 0.5c0 0 1.6 15.4 12.9 18.4" fill="#000000"/>
				<path id="&lt;Path&gt;" class="s13" d="m987.8 310.6l13.6 1.8" fill="#000000"/>
			</g>
			<path id="&lt;Path&gt;" class="s19" d="m956.2 416.5c0 0 14.3 5.3 39.8 6.1 25.5 0.7 56.7-10.2 56.7-10.2" fill="#000000"/>
			<path id="&lt;Path&gt;" class="s19" d="m999.7 496.1l-8.3-8.9 6.1-50.1" fill="#000000"/>
			<path id="&lt;Path&gt;" class="s19" d="m1036.1 420.8c0 0 3 21.4 9.7 31.9 6.6 10.5 18.4 8.4 18.4 8.4 0 0-3.7 61.2-5.6 88-2 26.8-5.9 62-5.9 62l-13.8 160.1" fill="#000000"/>
			<g id="&lt;Group&gt;">
				<path id="&lt;Path&gt;" class="s11" d="m932.3 367.8c-2.6 0.9-18.3 10-18.3 10l5.6-6.5c0 0 9.5-2.2 10.7-4.7 1.3-2.5-0.1-6.1-3.3-5.7-3.1 0.4-11.8 1.5-13.2 2.3-1.3 0.8-7 4.9-7 4.9l-1-6.1c0 0 4.2-5.2 6-9.9 2-5.2-2.7-9.5-6-5.4-2 2.6-5.7 6.4-8.2 9.5l-11.8-15.6c0 0-3.2 0.9-1.5 5.7 0.5 1.4 6.8 13 11 20.8 0.4 6.8 1.2 16.2 2 18 1.1 2.5 10.3 9.9 17.3 10.2 7 0.3 8.9-5.3 8.9-5.3l-3.7-4.8c4.3-3 14.3-8.7 16-12.5 1.8-3.9-2.1-5.4-3.5-4.9z" fill="#000000"/>
				<path id="&lt;Path&gt;" class="s13" d="m897.4 356.5c0 0-0.9 1-1.2 1.7-0.3 0.7-0.6 8.2-0.6 8.2" fill="#000000"/>
				<path id="&lt;Path&gt;" class="s13" d="m906.5 368.2l-5.4 4.2" fill="#000000"/>
			</g>
			<path id="&lt;Path&gt;" class="s19" d="m991.4 496.1l-39.6 98.6c0 0-12.5 2.5-16.1 5.3-3.5 2.8 16.9 1.3 16.9 1.3 0 0 11.5 15.6 13.1 42 1.6 26.4-2.4 127.9-2.4 127.9" fill="#000000"/>
		</g>
		<g id="&lt;Group&gt;">
			<g id="&lt;Group&gt;">
				<g id="&lt;Group&gt;" style="opacity: .3">
					<path id="&lt;Path&gt;" class="s20" d="m833 64c0 9.6-7.9 17.5-17.5 17.5-9.7 0-17.5-7.9-17.5-17.5 0-9.7 7.8-17.5 17.5-17.5 9.6 0 17.5 7.8 17.5 17.5z" fill="#000000"/>
				</g>
				<g id="&lt;Group&gt;">
					<path id="&lt;Path&gt;" class="s20" d="m1047.4 70.3c0 12.4-10.1 22.5-22.5 22.5-12.5 0-22.5-10.1-22.5-22.5 0-12.5 10-22.6 22.5-22.6 12.4 0 22.5 10.1 22.5 22.6z" fill="#000000"/>
				</g>
				<g id="&lt;Group&gt;">
					<path id="&lt;Path&gt;" class="s4" d="m154.2 460.3c0 10.9-8.9 19.7-19.8 19.7-10.8 0-19.7-8.8-19.7-19.7 0-10.9 8.9-19.7 19.7-19.7 10.9 0 19.8 8.8 19.8 19.7z" fill="#000000"/>
				</g>
				<g id="&lt;Group&gt;" style="opacity: .3">
					<path id="&lt;Path&gt;" class="s4" d="m1058.1 87.1c0 6.7-5.4 12.1-12.1 12.1-6.7 0-12.1-5.4-12.1-12.1 0-6.7 5.4-12.1 12.1-12.1 6.7 0 12.1 5.4 12.1 12.1z" fill="#000000"/>
				</g>
				<g id="&lt;Group&gt;" style="opacity: .3">
					<path id="&lt;Path&gt;" class="s4" d="m850 40.4c0 3.2-2.6 5.8-5.8 5.8-3.2 0-5.8-2.6-5.8-5.8 0-3.2 2.6-5.8 5.8-5.8 3.2 0 5.8 2.6 5.8 5.8z" fill="#000000"/>
				</g>
				<g id="&lt;Group&gt;">
					<path id="&lt;Path&gt;" class="s20" d="m156.7 210.3c0 12.3-10 22.2-22.3 22.2-12.2 0-22.2-9.9-22.2-22.2 0-12.3 10-22.3 22.2-22.3 12.3 0 22.3 10 22.3 22.3z" fill="#000000"/>
				</g>
				<g id="&lt;Group&gt;">
					<path id="&lt;Path&gt;" class="s4" d="m1106.3 556.7c0 7.3-5.9 13.2-13.2 13.2-7.3 0-13.2-5.9-13.2-13.2 0-7.3 5.9-13.2 13.2-13.2 7.3 0 13.2 5.9 13.2 13.2z" fill="#000000"/>
				</g>
				<g id="&lt;Group&gt;">
					<path id="&lt;Path&gt;" class="s4" d="m179.1 448.2c0 4.2-3.4 7.6-7.5 7.6-4.2 0-7.5-3.4-7.5-7.6 0-4.1 3.3-7.5 7.5-7.5 4.1 0 7.5 3.4 7.5 7.5z" fill="#000000"/>
				</g>
				<g id="&lt;Group&gt;">
					<path id="&lt;Path&gt;" class="s4" d="m1126.8 577.4c0 4.1-3.4 7.5-7.5 7.5-4.1 0-7.5-3.4-7.5-7.5 0-4.1 3.4-7.5 7.5-7.5 4.1 0 7.5 3.4 7.5 7.5z" fill="#000000"/>
				</g>
				<g id="&lt;Group&gt;">
					<path id="&lt;Path&gt;" class="s4" d="m414 45.2c0 4.2-3.4 7.5-7.5 7.5-4.2 0-7.5-3.3-7.5-7.5 0-4.1 3.3-7.5 7.5-7.5 4.1 0 7.5 3.4 7.5 7.5z" fill="#000000"/>
				</g>
				<g id="&lt;Group&gt;" style="opacity: .3">
					<path id="&lt;Path&gt;" class="s4" d="m88.9 714.5c0 8.3-6.7 15-15 15-8.3 0-15-6.7-15-15 0-8.3 6.7-15 15-15 8.3 0 15 6.7 15 15z" fill="#000000"/>
				</g>
				<g id="&lt;Group&gt;" style="opacity: .3">
					<path id="&lt;Path&gt;" class="s4" d="m368.5 74.6c0 18.4-14.9 33.3-33.3 33.3-18.4 0-33.3-14.9-33.3-33.3 0-18.4 14.9-33.3 33.3-33.3 18.4 0 33.3 14.9 33.3 33.3z" fill="#000000"/>
				</g>
				<path id="&lt;Path&gt;" class="s5" d="m518.4 771.2c0 10-8.1 18-18 18-9.9 0-18-8-18-18 0-9.9 8.1-18 18-18 9.9 0 18 8.1 18 18z" fill="#000000"/>
				<g id="&lt;Group&gt;" style="opacity: .3">
					<path id="&lt;Path&gt;" class="s4" d="m672.5 83.1c0 2.6-2.1 4.7-4.7 4.7-2.5 0-4.6-2.1-4.6-4.7 0-2.6 2.1-4.7 4.6-4.7 2.6 0 4.7 2.1 4.7 4.7z" fill="#000000"/>
				</g>
			</g>
			<g id="&lt;Group&gt;">
				<path id="&lt;Path&gt;" class="s5" d="m854 792.3h-113.7c-4.3 0-7.7-3.4-7.7-7.7 0-4.2 3.4-7.6 7.7-7.6h113.7c4.3 0 7.7 3.4 7.7 7.6 0 4.3-3.4 7.7-7.7 7.7z" fill="#000000"/>
				<g id="&lt;Group&gt;">
					<path id="&lt;Path&gt;" class="s21" d="m618 106.8h-156.5c-4.2 0-7.6-3.4-7.6-7.6 0-4.3 3.4-7.7 7.6-7.7h156.5c4.2 0 7.7 3.4 7.7 7.7 0 4.2-3.5 7.6-7.7 7.6z" fill="#000000"/>
					<path id="&lt;Path&gt;" class="s21" d="m645.6 106.8h-5.6c-4.3 0-7.7-3.4-7.7-7.6 0-4.3 3.4-7.7 7.7-7.7h5.6c4.2 0 7.6 3.4 7.6 7.7 0 4.2-3.4 7.6-7.6 7.6z" fill="#000000"/>
				</g>
			</g>
		</g>
		<g id="&lt;Group&gt;">
			<g id="&lt;Group&gt;">
				<path id="&lt;Path&gt;" class="s2" d="m1201.2 855.1h-1171.9v-7.9h1171.9z" fill="#000000"/>
			</g>
			<path id="&lt;Path&gt;" class="s22" d="m815.9 870h295.7" fill="#000000"/>
			<path id="&lt;Path&gt;" class="s22" d="m221.6 870h229.4" fill="#000000"/>
		</g>
	</g>
</svg>