<svg version="1.2" xmlns="http://www.w3.org/2000/svg" viewBox="0 0 1000 1000" width="1000" height="1000">
	<title>2804529</title>
	<defs>
		<clipPath clipPathUnits="userSpaceOnUse" id="cp1">
			<path d="m499 570h-170v-203c0-46.94 38.06-85 85-85 46.94 0 85 38.06 85 85z"/>
		</clipPath>
		<clipPath clipPathUnits="userSpaceOnUse" id="cp2">
			<path d="m499 570h-170v-203c0-46.94 38.06-85 85-85 46.94 0 85 38.06 85 85z"/>
		</clipPath>
		<clipPath clipPathUnits="userSpaceOnUse" id="cp3">
			<path d="m499 570h-170v-203c0-46.94 38.06-85 85-85 46.94 0 85 38.06 85 85z"/>
		</clipPath>
	</defs>
	<style>
		.s0 { fill: #e1e2fe } 
		.s1 { fill: #ecf1f7 } 
		.s2 { fill: #3e479b } 
		.s3 { fill: #f7a9b4 } 
		.s4 { opacity: .58;fill: #ef929c } 
		.s5 { fill: #ffffff } 
		.s6 { opacity: .39;fill: #f7a9b4 } 
		.s7 { opacity: .66;fill: #ffffff } 
		.s8 { opacity: .74;fill: #6d6cd4 } 
		.s9 { fill: #4c65ba } 
		.s10 { fill: #599af2 } 
		.s11 { opacity: .07;fill: #373449 } 
		.s12 { fill: #373449 } 
		.s13 { fill: #6d6cd4 } 
		.s14 { opacity: .56;fill: #3e479b } 
		.s15 { fill: #f28393 } 
		.s16 { opacity: .59;fill: #3e479b } 
	</style>
	<g id="BACKGROUND">
		<g id="&lt;Group&gt;">
		</g>
		<g id="&lt;Group&gt;">
			<g id="&lt;Group&gt;">
				<g id="&lt;Group&gt;" style="opacity: .41">
					<g id="&lt;Group&gt;">
						<g id="&lt;Group&gt;">
							<path id="&lt;Path&gt;" class="s0" d="m985.4 586c1-15.7 0.5-31.5-1.2-47.1-8.3-73.3-45.9-142.4-101.3-191.2-19.7-17.4-42.2-33-55.1-56-21.6-38.6-20-83.1-46.8-121.3-26.9-38.2-66.1-68-110.3-83.3-131.8-45.7-316.3 28.6-299.6 187.4q0 0.9 0.1 2.4c2.3 33-23.6 60.8-56.6 61.5-121.5 2.9-226.2 96.7-248.6 215.4-14.4 76.3 9.2 160 65 214.1 41.7 40.3 97.7 62.4 153.7 77.7 112.2 30.5 230.3 36.9 346 25.2 108.3-10.9 222.5-42.1 292.6-125.4 37.4-44.4 58.8-101.4 62.1-159.4z"/>
						</g>
					</g>
				</g>
				<g id="&lt;Group&gt;" style="opacity: .41">
					<g id="&lt;Group&gt;">
						<g id="&lt;Group&gt;">
							<path id="&lt;Path&gt;" class="s0" d="m890.5 600.6c0.6-11.7 0.3-23.4-1-35-6.2-54.6-34.2-106.1-75.4-142.4-14.7-12.9-31.4-24.6-41-41.7-16.1-28.8-14.9-61.9-34.9-90.3-20-28.5-49.2-50.7-82.1-62.1-98.1-34-235.5 21.4-223.1 139.6q0.1 0.6 0.2 1.8c1.6 24.6-17.7 45.2-42.2 45.8-90.5 2.2-168.4 71.9-185.1 160.3-10.7 56.9 6.8 119.2 48.4 159.4 31.1 30.1 72.7 46.6 114.4 57.9 83.5 22.7 171.5 27.5 257.6 18.8 80.7-8.1 165.7-31.3 217.9-93.4 27.8-33.1 43.8-75.5 46.3-118.7z"/>
						</g>
					</g>
				</g>
				<g id="&lt;Group&gt;" style="opacity: .31">
					<path id="&lt;Path&gt;" class="s0" d="m964.2 206.7c0 21.8-17.7 39.5-39.5 39.5-21.8 0-39.5-17.7-39.5-39.5 0-21.8 17.7-39.4 39.5-39.4 21.8 0 39.5 17.6 39.5 39.4z"/>
				</g>
				<g id="&lt;Group&gt;" style="opacity: .31">
					<path id="&lt;Path&gt;" class="s0" d="m869 153.5c0 7.6-6.1 13.8-13.7 13.8-7.6 0-13.7-6.2-13.7-13.8 0-7.5 6.1-13.7 13.7-13.7 7.6 0 13.7 6.2 13.7 13.7z"/>
				</g>
				<g id="&lt;Group&gt;" style="opacity: .31">
					<path id="&lt;Path&gt;" class="s0" d="m327.7 156.7c0 10.2-8.2 18.4-18.4 18.4-10.1 0-18.4-8.2-18.4-18.4 0-10.1 8.3-18.3 18.4-18.3 10.2 0 18.4 8.2 18.4 18.3z"/>
				</g>
				<g id="&lt;Group&gt;" style="opacity: .31">
					<path id="&lt;Path&gt;" class="s0" d="m220.6 892.1c0 23.1-18.7 41.8-41.8 41.8-23.1 0-41.9-18.7-41.9-41.8 0-23.1 18.8-41.9 41.9-41.9 23.1 0 41.8 18.8 41.8 41.9z"/>
				</g>
			</g>
		</g>
		<g id="&lt;Group&gt;">
			<g id="&lt;Group&gt;">
				<g id="&lt;Group&gt;" style="opacity: .47">
					<path id="&lt;Path&gt;" class="s1" d="m809.5 69.2c-10.6 8-12.7 23-4.8 33.5 8 10.6 28.5 20.1 39 12.1 10.6-7.9-1.3-24.9-3.1-38-2.6-18.2-20.6-15.5-31.1-7.6z"/>
				</g>
				<g id="&lt;Group&gt;" style="opacity: .47">
					<path id="&lt;Path&gt;" class="s0" d="m219.3 141.9c-14.1-20-41.9-24.8-61.9-10.6-20.1 14.1-38.8 51.7-24.6 71.8 14.1 20 46.3-1.1 70.7-3.8 34-3.8 30-37.3 15.8-57.4z"/>
				</g>
			</g>
			<g id="&lt;Group&gt;">
				<g id="&lt;Group&gt;" style="opacity: .47">
					<path id="&lt;Path&gt;" class="s0" d="m945.2 716.7c12.5-20 15.6-44.7 13-68-2.6-23.2-9.7-47.6-19.6-68.7-9.5-20.1-23.1-37.9-27-60.2-5.1-29.5 8.3-57.8 11.4-86.7 6.3-57.5-32.6-108.2-80.8-135.6-39.2-22.2-85.1-30.6-130.2-30-40.5 0.6-81 7.8-120.3 17.4-37.8 9.4-74.8 21.6-114.5 17.8-33-3.3-62.7-17-93.5-27.2-73.3-24.4-162.2-27.8-229.3 9.3-43.1 23.9-73.2 62.6-86.6 104.2-9.8 30.5-12.7 65.5-5.5 96.4 8.1 34.7 23 65.2 19 101.7-3.2 30-14.2 59.2-13.2 89.6 0.8 26.1 29.3 63.7 58.6 73.4 1.6 0.5-1.2 2.7 0 3.9h775.7c16.8-9.1 32.6-21.1 42.8-37.3z"/>
				</g>
				<g id="&lt;Group&gt;">
					<g id="&lt;Group&gt;" style="opacity: .81">
						<path id="&lt;Path&gt;" class="s0" d="m949.1 627.9c-9.2-57.9-70.5-65.8-57.2-103.1 16.8-47.2 16-100.1-4.4-146.2-9.8-22.1-24.2-42.8-43.9-57-30.2-22-69.9-26.8-107.2-24-55.6 4.1-114.1 27.2-170 20.9-30.8-3.5-40.2-35.5-56.1-56.6-18-23.9-42.5-42.7-69.6-55.2-49.9-23-109.8-25.2-160.8-4.3-54.5 22.3-101.9 76.7-98.8 138.2 1.4 28.5 13.3 56.8 7.8 84.7-6.9 35.1-34.4 67.1-54.4 95.7-22 31.6-35.3 69.3-37.9 107.7-3 43.6 7.8 88 30.5 125.3h788.7c10-17.6 47.3-37.3 33.3-126.1z"/>
					</g>
				</g>
			</g>
		</g>
		<g id="&lt;Group&gt;" style="opacity: .58">
			<path id="&lt;Path&gt;" class="s2" d="m878 918.9c0 4.9-4 9-9 9-4.9 0-9-4.1-9-9 0-5 4.1-9 9-9 5 0 9 4 9 9z"/>
		</g>
		<path id="&lt;Path&gt;" class="s3" d="m800.8 892.1c0 3.9-3.1 7-7 7-3.8 0-7-3.1-7-7 0-3.9 3.2-7 7-7 3.9 0 7 3.1 7 7z"/>
		<path id="&lt;Path&gt;" class="s3" d="m286.2 899.1c0 3.9-3.2 7-7 7-3.9 0-7-3.1-7-7 0-3.9 3.1-7 7-7 3.8 0 7 3.1 7 7z"/>
		<path id="&lt;Path&gt;" class="s3" d="m897.8 838.9c0 3.9-3.1 7-7 7-3.9 0-7-3.1-7-7 0-3.8 3.1-7 7-7 3.9 0 7 3.2 7 7z"/>
		<path id="&lt;Path&gt;" class="s3" d="m912.8 91.8c0 3.8-3.2 7-7 7-3.9 0-7-3.2-7-7 0-3.9 3.1-7 7-7 3.8 0 7 3.1 7 7z"/>
		<path id="&lt;Path&gt;" class="s4" d="m148.2 82.8c0 4.9-4 9-9 9-5 0-9-4.1-9-9 0-5 4-9 9-9 5 0 9 4 9 9z"/>
		<g id="&lt;Group&gt;" style="opacity: .58">
			<path id="&lt;Path&gt;" class="s2" d="m249.6 73.8c0 3.8-3.2 7-7 7-3.9 0-7-3.2-7-7 0-3.9 3.1-7 7-7 3.8 0 7 3.1 7 7z"/>
		</g>
		<g id="&lt;Group&gt;" style="opacity: .58">
			<path id="&lt;Path&gt;" class="s2" d="m103.1 823.8c0 3.8-3.2 7-7 7-3.9 0-7-3.2-7-7 0-3.9 3.1-7 7-7 3.8 0 7 3.1 7 7z"/>
		</g>
		<g id="&lt;Group&gt;" style="opacity: .58">
			<path id="&lt;Path&gt;" class="s2" d="m-80 259c0 1.7-1.3 3-3 3-1.7 0-3-1.3-3-3 0-1.7 1.3-3 3-3 1.7 0 3 1.3 3 3z"/>
		</g>
		<path id="&lt;Path&gt;" class="s4" d="m660.9 124.4c-1.2 5.9-7 9.6-12.8 8.3-5.8-1.2-9.6-6.9-8.3-12.8 1.2-5.8 7-9.5 12.8-8.3 5.8 1.3 9.6 7 8.3 12.8z"/>
		<g id="&lt;Group&gt;" style="opacity: .58">
			<path id="&lt;Path&gt;" class="s2" d="m574.7 160.1c-0.4 1.9-2.3 3.1-4.3 2.7-1.9-0.4-3.1-2.3-2.7-4.3 0.4-1.9 2.3-3.1 4.3-2.7 1.9 0.4 3.1 2.3 2.7 4.3z"/>
		</g>
	</g>
	<g id="OBJECTS">
		<g id="&lt;Group&gt;">
			<g id="&lt;Group&gt;">
				<g id="&lt;Group&gt;">
					<path id="&lt;Path&gt;" class="s5" d="m540.7 356h-161.8c-17.8 0-32.2-14.4-32.2-32.1v-176.6c0-17.8 14.4-32.1 32.2-32.1h161.8c17.7 0 32.1 14.3 32.1 32.1v176.6c0 17.7-14.4 32.1-32.1 32.1z"/>
				</g>
				<path id="&lt;Path&gt;" class="s6" d="m540.7 356h-161.8c-17.8 0-32.2-14.4-32.2-32.1v-176.6c0-17.8 14.4-32.1 32.2-32.1h161.8c17.7 0 32.1 14.3 32.1 32.1v176.6c0 17.7-14.4 32.1-32.1 32.1z"/>
				<g id="&lt;Group&gt;">
					<path id="&lt;Path&gt;" class="s3" d="m521.2 115.2h-181.6c-20.9 0-37.8 16.9-37.8 37.8v14.4h183.6v-14.4c0-20.2 15.8-36.7 35.8-37.8z"/>
				</g>
				<path id="&lt;Path&gt;" class="s5" d="m514.2 195h-124.2c-1.1 0-2-0.9-2-2 0-1.1 0.9-2 2-2h124.2c1.1 0 2 0.9 2 2 0 1.1-0.9 2-2 2z"/>
				<path id="&lt;Path&gt;" class="s5" d="m514.2 247.3h-124.2c-1.1 0-2-0.9-2-2 0-1.1 0.9-2 2-2h124.2c1.1 0 2 0.9 2 2 0 1.1-0.9 2-2 2z"/>
				<path id="&lt;Path&gt;" class="s5" d="m456 221.2h-66c-1.1 0-2-0.9-2-2 0-1.1 0.9-2 2-2h66c1.1 0 2 0.9 2 2 0 1.1-0.9 2-2 2z"/>
				<path id="&lt;Path&gt;" class="s5" d="m528 221.2h-56c-1.1 0-2-0.9-2-2 0-1.1 0.9-2 2-2h56c1.1 0 2 0.9 2 2 0 1.1-0.9 2-2 2z"/>
			</g>
			<g id="&lt;Group&gt;">
				<g id="&lt;Group&gt;" style="opacity: .81">
					<path id="&lt;Path&gt;" class="s5" d="m508.1 694.4h-46.2c-1.1 0-2-0.9-2-2 0-1.1 0.9-2 2-2h46.2c1.1 0 2 0.9 2 2 0 1.1-0.9 2-2 2z"/>
					<path id="&lt;Path&gt;" class="s5" d="m508.1 742.4h-46.2c-1.1 0-2-0.9-2-2 0-1.1 0.9-2 2-2h46.2c1.1 0 2 0.9 2 2 0 1.1-0.9 2-2 2z"/>
					<g id="&lt;Group&gt;">
						<g id="&lt;Group&gt;">
							<g id="&lt;Group&gt;">
								<path id="&lt;Compound Path&gt;" fill-rule="evenodd" class="s5" d="m543.4 790.9h-286c-3 0-5.5-2.5-5.5-5.5v-148.8c0-3 2.5-5.5 5.5-5.5h286c3 0 5.4 2.5 5.4 5.5v148.8c0 3-2.4 5.5-5.4 5.5zm-286-155.8c-0.8 0-1.5 0.7-1.5 1.5v148.8c0 0.8 0.7 1.5 1.5 1.5h286c0.8 0 1.4-0.7 1.4-1.5v-148.8c0-0.8-0.6-1.5-1.4-1.5z"/>
								<path id="&lt;Compound Path&gt;" fill-rule="evenodd" class="s7" d="m543.4 790.9h-286c-3 0-5.5-2.5-5.5-5.5v-148.8c0-3 2.5-5.5 5.5-5.5h286c3 0 5.4 2.5 5.4 5.5v148.8c0 3-2.4 5.5-5.4 5.5zm-286-155.8c-0.8 0-1.5 0.7-1.5 1.5v148.8c0 0.8 0.7 1.5 1.5 1.5h286c0.8 0 1.4-0.7 1.4-1.5v-148.8c0-0.8-0.6-1.5-1.4-1.5z"/>
							</g>
						</g>
						<g id="&lt;Group&gt;">
							<path id="&lt;Path&gt;" class="s5" d="m287.1 760.6h72.4c1.4 0 2.5-1.1 2.5-2.5v-97.9c0-1.4-1.1-2.5-2.5-2.5h-72.4c-1.4 0-2.5 1.1-2.5 2.5v97.9c0 1.4 1.1 2.5 2.5 2.5z"/>
						</g>
						<path id="&lt;Path&gt;" class="s5" d="m508.1 671.1h-127c-1.1 0-2-0.9-2-2 0-1.1 0.9-2 2-2h127c1.1 0 2 0.9 2 2 0 1.1-0.9 2-2 2z"/>
						<path id="&lt;Path&gt;" class="s5" d="m508.1 717.7h-127c-1.1 0-2-0.9-2-2 0-1.1 0.9-2 2-2h127c1.1 0 2 0.9 2 2 0 1.1-0.9 2-2 2z"/>
						<path id="&lt;Path&gt;" class="s5" d="m449.6 694.4h-68.5c-1.1 0-2-0.9-2-2 0-1.1 0.9-2 2-2h68.5c1.1 0 2 0.9 2 2 0 1.1-0.9 2-2 2z"/>
						<path id="&lt;Path&gt;" class="s5" d="m449.6 742.4h-68.5c-1.1 0-2-0.9-2-2 0-1.1 0.9-2 2-2h68.5c1.1 0 2 0.9 2 2 0 1.1-0.9 2-2 2z"/>
						<path id="&lt;Path&gt;" class="s5" d="m427.3 764.6h-46.2c-1.1 0-2-0.9-2-2 0-1.1 0.9-2 2-2h46.2c1.1 0 2 0.9 2 2 0 1.1-0.9 2-2 2z"/>
					</g>
				</g>
				<g id="&lt;Group&gt;" style="opacity: .81">
					<path id="&lt;Path&gt;" class="s5" d="m905.8 438.2h-46.2c-1.1 0-2-0.9-2-2 0-1.1 0.9-2 2-2h46.2c1.1 0 2 0.9 2 2 0 1.1-0.9 2-2 2z"/>
					<path id="&lt;Path&gt;" class="s5" d="m905.8 486.2h-46.2c-1.1 0-2-0.9-2-2 0-1.1 0.9-2 2-2h46.2c1.1 0 2 0.9 2 2 0 1.1-0.9 2-2 2z"/>
					<g id="&lt;Group&gt;">
						<g id="&lt;Group&gt;">
							<g id="&lt;Group&gt;">
								<path id="&lt;Compound Path&gt;" fill-rule="evenodd" class="s5" d="m941.1 534.7h-286.1c-3 0-5.4-2.4-5.4-5.4v-148.9c0-3 2.4-5.4 5.4-5.4h286.1c3 0 5.4 2.4 5.4 5.4v148.9c0 3-2.4 5.4-5.4 5.4zm-286.1-155.7c-0.8 0-1.4 0.6-1.4 1.4v148.9c0 0.8 0.6 1.4 1.4 1.4h286.1c0.7 0 1.4-0.6 1.4-1.4v-148.9c0-0.8-0.7-1.4-1.4-1.4z"/>
								<path id="&lt;Compound Path&gt;" fill-rule="evenodd" class="s7" d="m941.1 534.7h-286.1c-3 0-5.4-2.4-5.4-5.4v-148.9c0-3 2.4-5.4 5.4-5.4h286.1c3 0 5.4 2.4 5.4 5.4v148.9c0 3-2.4 5.4-5.4 5.4zm-286.1-155.7c-0.8 0-1.4 0.6-1.4 1.4v148.9c0 0.8 0.6 1.4 1.4 1.4h286.1c0.7 0 1.4-0.6 1.4-1.4v-148.9c0-0.8-0.7-1.4-1.4-1.4z"/>
							</g>
						</g>
						<g id="&lt;Group&gt;">
							<path id="&lt;Path&gt;" class="s5" d="m684.7 504.5h72.5c1.3 0 2.4-1.2 2.4-2.5v-98c0-1.3-1.1-2.4-2.4-2.4h-72.5c-1.3 0-2.4 1.1-2.4 2.4v98c0 1.3 1.1 2.5 2.4 2.5z"/>
						</g>
						<path id="&lt;Path&gt;" class="s5" d="m905.8 414.9h-127c-1.1 0-2-0.9-2-2 0-1.1 0.9-2 2-2h127c1.1 0 2 0.9 2 2 0 1.1-0.9 2-2 2z"/>
						<path id="&lt;Path&gt;" class="s5" d="m905.8 461.5h-127c-1.1 0-2-0.9-2-2 0-1.1 0.9-2 2-2h127c1.1 0 2 0.9 2 2 0 1.1-0.9 2-2 2z"/>
						<path id="&lt;Path&gt;" class="s5" d="m847.3 438.2h-68.5c-1.1 0-2-0.9-2-2 0-1.1 0.9-2 2-2h68.5c1.1 0 2 0.9 2 2 0 1.1-0.9 2-2 2z"/>
						<path id="&lt;Path&gt;" class="s5" d="m847.3 486.2h-68.5c-1.1 0-2-0.9-2-2 0-1.1 0.9-2 2-2h68.5c1.1 0 2 0.9 2 2 0 1.1-0.9 2-2 2z"/>
						<path id="&lt;Path&gt;" class="s5" d="m825 508.5h-46.2c-1.1 0-2-0.9-2-2 0-1.2 0.9-2 2-2h46.2c1.1 0 2 0.8 2 2 0 1.1-0.9 2-2 2z"/>
					</g>
				</g>
				<g id="&lt;Group&gt;">
					<path id="&lt;Path&gt;" class="s3" d="m824.3 639.7h-168.5c-3.6 0-6.6-3-6.6-6.7v-60.9c0-3.7 3-6.7 6.6-6.7h168.5c3.7 0 6.7 3 6.7 6.7v60.9c0 3.7-3 6.7-6.7 6.7z"/>
					<g id="&lt;Group&gt;">
						<g id="&lt;Group&gt;">
							<g id="&lt;Group&gt;">
								<g id="&lt;Group&gt;">
									<path id="&lt;Path&gt;" class="s5" d="m693.6 624h184.8c5.6 0 10.1 4.6 10.1 10.1v56.6c0 5.6-4.5 10.2-10.1 10.2h-184.8c-5.6 0-10.1-4.6-10.1-10.2v-56.6c0-5.5 4.5-10.1 10.1-10.1z"/>
								</g>
								<path id="&lt;Path&gt;" class="s8" d="m693.6 624h184.8c5.6 0 10.1 4.6 10.1 10.1v56.6c0 5.6-4.5 10.2-10.1 10.2h-184.8c-5.6 0-10.1-4.6-10.1-10.2v-56.6c0-5.5 4.5-10.1 10.1-10.1z"/>
							</g>
							<g id="&lt;Group&gt;">
								<g id="&lt;Group&gt;">
									<path id="&lt;Compound Path&gt;" fill-rule="evenodd" class="s5" d="m823.4 671.3c-4.8 0-8.7-3.9-8.7-8.8 0-4.8 3.9-8.8 8.7-8.8 4.9 0 8.8 4 8.8 8.8 0 4.9-3.9 8.8-8.8 8.8zm0-15.6c-3.7 0-6.7 3.1-6.7 6.8 0 3.8 3 6.8 6.7 6.8 3.8 0 6.8-3 6.8-6.8 0-3.7-3-6.8-6.8-6.8z"/>
									<path id="&lt;Compound Path&gt;" fill-rule="evenodd" class="s5" d="m786.7 671.3c-4.9 0-8.8-3.9-8.8-8.8 0-4.8 3.9-8.8 8.8-8.8 4.8 0 8.8 4 8.8 8.8 0 4.9-4 8.8-8.8 8.8zm0-15.6c-3.8 0-6.8 3.1-6.8 6.8 0 3.8 3 6.8 6.8 6.8 3.7 0 6.8-3 6.8-6.8 0-3.7-3.1-6.8-6.8-6.8z"/>
									<path id="&lt;Compound Path&gt;" fill-rule="evenodd" class="s5" d="m752.4 671.3c-4.8 0-8.8-3.9-8.8-8.8 0-4.8 4-8.8 8.8-8.8 4.9 0 8.8 4 8.8 8.8 0 4.9-3.9 8.8-8.8 8.8zm0-15.6c-3.7 0-6.8 3.1-6.8 6.8 0 3.8 3.1 6.8 6.8 6.8 3.8 0 6.8-3 6.8-6.8 0-3.7-3-6.8-6.8-6.8z"/>
								</g>
							</g>
						</g>
					</g>
				</g>
				<g id="&lt;Group&gt;">
					<path id="&lt;Path&gt;" class="s5" d="m170.7 456.2h-2c-0.6 0-1-0.4-1-1 0-0.6 0.4-1 1-1h2c0.5 0 1 0.4 1 1 0 0.6-0.5 1-1 1z"/>
					<path id="&lt;Compound Path&gt;" class="s5" d="m745.6 786h-4c-0.5 0-1-0.5-1-1 0-0.6 0.5-1 1-1h4c0.6 0 1 0.4 1 1 0 0.5-0.4 1-1 1zm-43.6 0h-3.9c-0.6 0-1-0.5-1-1 0-0.6 0.4-1 1-1h3.9c0.6 0 1 0.4 1 1 0 0.5-0.4 1-1 1zm-43.5 0h-4c-0.5 0-1-0.5-1-1 0-0.6 0.5-1 1-1h4c0.5 0 1 0.4 1 1 0 0.5-0.5 1-1 1zm-43.6 0h-4c-0.5 0-1-0.5-1-1 0-0.6 0.5-1 1-1h4c0.6 0 1 0.4 1 1 0 0.5-0.4 1-1 1zm-43.6 0h-3.9c-0.6 0-1-0.5-1-1 0-0.6 0.4-1 1-1h3.9c0.6 0 1 0.4 1 1 0 0.5-0.4 1-1 1zm-43.5 0h-4c-0.5 0-1-0.5-1-1 0-0.6 0.5-1 1-1h4c0.5 0 1 0.4 1 1 0 0.5-0.5 1-1 1zm-43.6 0h-4c-0.5 0-1-0.5-1-1 0-0.6 0.5-1 1-1h4c0.6 0 1 0.4 1 1 0 0.5-0.4 1-1 1zm-43.6 0h-3.9c-0.6 0-1-0.5-1-1 0-0.6 0.4-1 1-1h3.9c0.6 0 1 0.4 1 1 0 0.5-0.4 1-1 1zm-43.5 0h-1.2q-1.5 0-2.9-0.2c-0.5 0-0.9-0.5-0.9-1.1 0.1-0.5 0.5-0.9 1.1-0.9q1.3 0.2 2.7 0.2h1.2c0.5 0 1 0.4 1 1 0 0.5-0.5 1-1 1zm379.2-20.2q-0.1 0-0.3-0.1c-0.5-0.2-0.8-0.7-0.6-1.3q0.6-1.8 0.9-3.7c0.1-0.5 0.7-0.9 1.2-0.8 0.6 0.2 0.9 0.7 0.8 1.2q-0.4 2-1 4c-0.2 0.4-0.6 0.7-1 0.7zm-409.7-5.3c-0.5 0-0.9-0.4-1-0.9q-0.3-2-0.3-4.1c0-0.5 0.5-1 1-1q0 0 0 0c0.6 0 1 0.5 1 1q0 1.9 0.3 3.8c0.1 0.6-0.3 1.1-0.9 1.2q0 0-0.1 0zm-0.4-43.6c-0.5 0-1-0.4-1-0.9q-0.2-1.9-0.7-3.7c-0.1-0.6 0.3-1.1 0.8-1.2 0.5-0.2 1.1 0.2 1.2 0.7q0.5 2 0.7 4c0 0.6-0.4 1.1-0.9 1.1q-0.1 0-0.1 0zm-29.5-26.6h-4c-0.5 0-1-0.4-1-1 0-0.5 0.5-1 1-1h4c0.6 0 1 0.5 1 1 0 0.6-0.4 1-1 1zm-43.6 0h-3.9c-0.6 0-1-0.4-1-1 0-0.5 0.4-1 1-1h3.9c0.6 0 1 0.5 1 1 0 0.6-0.4 1-1 1zm-43.5 0h-4c-0.5 0-1-0.4-1-1 0-0.5 0.5-1 1-1h4c0.5 0 1 0.5 1 1 0 0.6-0.5 1-1 1zm-43.6 0h-4c-0.5 0-1-0.4-1-1 0-0.5 0.5-1 1-1h4c0.6 0 1 0.5 1 1 0 0.6-0.4 1-1 1zm-43.6 0h-3.9c-0.6 0-1-0.4-1-1 0-0.5 0.4-1 1-1h3.9c0.6 0 1 0.5 1 1 0 0.6-0.4 1-1 1zm-39.5-12.4c-0.3 0-0.6-0.1-0.8-0.4q-1.2-1.7-2.1-3.5c-0.3-0.5-0.1-1.1 0.4-1.3 0.5-0.3 1.1-0.1 1.3 0.4q0.9 1.7 2 3.2c0.4 0.5 0.3 1.1-0.2 1.4q-0.3 0.2-0.6 0.2zm-5.5-42.4c-0.5 0-1-0.5-1-1v-4c0-0.5 0.5-1 1-1 0.6 0 1 0.5 1 1v4c0 0.5-0.4 1-1 1zm0-43.6c-0.5 0-1-0.4-1-1v-3.9c0-0.6 0.5-1 1-1 0.6 0 1 0.4 1 1v3.9c0 0.6-0.4 1-1 1zm0-43.5c-0.5 0-1-0.5-1-1v-4c0-0.6 0.5-1 1-1 0.6 0 1 0.4 1 1v4c0 0.5-0.4 1-1 1zm0-43.6c-0.5 0-1-0.5-1-1v-4c0-0.5 0.5-1 1-1 0.6 0 1 0.5 1 1v4c0 0.5-0.4 1-1 1zm9.6-40.9c-0.2 0-0.5-0.1-0.7-0.3-0.4-0.4-0.3-1 0.1-1.4q1.5-1.4 3.2-2.5c0.4-0.4 1-0.2 1.4 0.2 0.3 0.5 0.2 1.1-0.3 1.4q-1.6 1.1-3 2.4-0.3 0.2-0.7 0.2z"/>
					<path id="&lt;Path&gt;" class="s5" d="m777.8 722.2c-0.5 0-1-0.4-1-1v-2c0-0.5 0.5-1 1-1 0.6 0 1 0.5 1 1v2c0 0.6-0.4 1-1 1z"/>
				</g>
			</g>
		</g>
		<g id="&lt;Group&gt;">
			<g id="&lt;Group&gt;">
				<g id="&lt;Group&gt;">
					<g id="&lt;Clip Group&gt;" clip-path="url(#cp1)">
					</g>
				</g>
			</g>
			<g id="&lt;Group&gt;">
				<g id="&lt;Group&gt;">
					<path id="&lt;Path&gt;" class="s2" d="m602.4 855h-55.2c-7.3 0-13.2-5.9-13.2-13.2v-295.8h86v291.4c0 9.7-7.9 17.6-17.6 17.6z"/>
					<g id="&lt;Group&gt;">
						<path id="&lt;Path&gt;" class="s9" d="m607.3 855h-35.3v-309h48v296.3c0 7-5.7 12.7-12.7 12.7z"/>
					</g>
				</g>
				<g id="&lt;Group&gt;">
					<g id="&lt;Group&gt;">
						<path id="&lt;Path&gt;" class="s10" d="m424.6 262h275.1c61.5 0 111.3 49.8 111.3 111.3v195.6c0 4.5-3.6 8.1-8.1 8.1h-483c-0.5 0-0.9-0.4-0.9-0.9v-208.5c0-58.3 47.3-105.6 105.6-105.6z"/>
					</g>
					<g id="&lt;Group&gt;" style="opacity: .07">
						<path id="&lt;Path&gt;" class="s1" d="m458.6 305h207.9c61.5 0 111.3 49.8 111.3 111.3v152.6c0 4.5-3.6 8.1-8.1 8.1h-415.8c-0.5 0-0.9-0.4-0.9-0.9v-165.5c0-58.3 47.3-105.6 105.6-105.6z"/>
					</g>
					<g id="&lt;Group&gt;" style="opacity: .65">
						<path id="&lt;Path&gt;" class="s9" d="m801.8 578h-303.8v-26h313v16.8c0 5.1-4.1 9.2-9.2 9.2z"/>
					</g>
					<g id="&lt;Group&gt;" style="opacity: .65">
						<path id="&lt;Path&gt;" class="s9" d="m801.8 578h-303.8v-26h313v16.8c0 5.1-4.1 9.2-9.2 9.2z"/>
					</g>
					<path id="&lt;Path&gt;" class="s2" d="m804.1 577h-138.3v-24.2h145.2v17.3c0 3.8-3.1 6.9-6.9 6.9z"/>
					<path id="&lt;Path&gt;" class="s11" d="m811 552h-298v-178h298z"/>
				</g>
				<g id="&lt;Group&gt;">
					<g id="&lt;Group&gt;">
						<path id="&lt;Path&gt;" class="s9" d="m501 570h-170c-6.6 0-12-5.4-12-12v-193c0-53.6 43.4-97 97-97 53.6 0 97 43.4 97 97v193c0 6.6-5.4 12-12 12z"/>
					</g>
					<path id="&lt;Path&gt;" class="s12" d="m499 570h-170v-203c0-46.9 38.1-85 85-85 46.9 0 85 38.1 85 85z"/>
					<g id="&lt;Clip Group&gt;" clip-path="url(#cp2)">
						<g id="&lt;Group&gt;">
							<path id="&lt;Path&gt;" class="s13" d="m505.8 544h-140.8c-5.1 0-9.2-4.1-9.2-9.2v-84.7c0-6.4 5.1-11.5 11.5-11.5h133.8c7.7 0 13.9 6.2 13.9 13.9v82.3c0 5.1-4.1 9.2-9.2 9.2z"/>
							<path id="&lt;Path&gt;" class="s14" d="m507.8 544h-72.4-72.4c-4 0-7.2-3.2-7.2-7.2v-88.1c0-1.1 0.4-2.2 1.1-3 0.8-0.9 2.3-1 3.2-0.2l55.4 45.8 11.4 9.5c4.9 4 12 4 16.9-0.2l67.9-57.6c4.3 4 3.3 8.1 3.3 8.1v85.7c0 4-3.2 7.2-7.2 7.2z"/>
							<path id="&lt;Path&gt;" class="s13" d="m359.1 544.9c-0.6 0-1.1-0.2-1.5-0.7-0.8-0.8-0.7-2.1 0.1-2.8l59.8-53.1c0.8-0.7 2-0.7 2.8 0.2 0.7 0.8 0.6 2-0.2 2.8l-59.7 53.1c-0.4 0.3-0.9 0.5-1.3 0.5z"/>
							<path id="&lt;Path&gt;" class="s13" d="m509.5 544.9c-0.4 0-0.9-0.2-1.3-0.5l-58-51.4c-0.8-0.8-0.9-2-0.2-2.9 0.8-0.8 2-0.9 2.9-0.1l58 51.4c0.8 0.7 0.9 2 0.1 2.8-0.4 0.5-0.9 0.7-1.5 0.7z"/>
						</g>
						<path id="&lt;Path&gt;" class="s15" d="m500 570h-158v-9.8c0-8.9 7.3-16.2 16.2-16.2h141.8z"/>
					</g>
				</g>
				<g id="&lt;Group&gt;">
					<g id="&lt;Group&gt;">
						<path id="&lt;Path&gt;" class="s10" d="m494.2 606h-285.7c-10.8 0-19.5-8.7-19.5-19.5v-16.5h328v13.2c0 12.6-10.2 22.8-22.8 22.8z"/>
					</g>
					<g id="&lt;Group&gt;">
						<path id="&lt;Path&gt;" class="s9" d="m494.2 606h-89.7c-10.8 0-19.5-8.7-19.5-19.5v-16.5h132v13.2c0 12.6-10.2 22.8-22.8 22.8z"/>
					</g>
				</g>
				<g id="&lt;Group&gt;">
					<path id="&lt;Path&gt;" class="s2" d="m619 380c0 15.5-12.5 28-28 28-15.5 0-28-12.5-28-28 0-15.5 12.5-28 28-28 15.5 0 28 12.5 28 28z"/>
					<path id="&lt;Path&gt;" class="s2" d="m591 389c-5 0-9-4-9-9v-178c0-5 4-9 9-9 5 0 9 4 9 9v178c0 5-4 9-9 9z"/>
					<g id="&lt;Group&gt;">
						<path id="&lt;Path&gt;" class="s9" d="m619 380c0 13.3-10.7 24-24 24-13.3 0-24-10.7-24-24 0-13.3 10.7-24 24-24 13.3 0 24 10.7 24 24z"/>
					</g>
					<path id="&lt;Path&gt;" class="s13" d="m603 245.3v-43.3h82.1z"/>
					<path id="&lt;Path&gt;" class="s13" d="m603 245.3v-43.3h82.1z"/>
					<g id="&lt;Group&gt;">
						<path id="&lt;Path&gt;" class="s9" d="m595 389c-5 0-9-4-9-9v-178c0-5 4-9 9-9 5 0 9 4 9 9v178c0 5-4 9-9 9z"/>
					</g>
					<path id="&lt;Compound Path&gt;" fill-rule="evenodd" class="s2" d="m595 394c-8 0-14.5-6.5-14.5-14.5 0-8 6.5-14.5 14.5-14.5 8 0 14.5 6.5 14.5 14.5 0 8-6.5 14.5-14.5 14.5zm0-27c-6.9 0-12.5 5.6-12.5 12.5 0 6.9 5.6 12.5 12.5 12.5 6.9 0 12.5-5.6 12.5-12.5 0-6.9-5.6-12.5-12.5-12.5z"/>
				</g>
			</g>
			<g id="&lt;Group&gt;">
				<g id="&lt;Group&gt;">
					<g id="&lt;Clip Group&gt;" clip-path="url(#cp3)">
					</g>
				</g>
			</g>
		</g>
		<g id="&lt;Group&gt;">
			<g id="&lt;Group&gt;">
				<path id="&lt;Path&gt;" class="s13" d="m286.7 384.5h-165.7c-5.1 0-9.2-4.2-9.2-9.3v-101.1c0-6.4 5.1-11.5 11.5-11.5h158.6c7.7 0 14 6.2 14 13.9v98.7c0 5.1-4.1 9.3-9.2 9.3z"/>
				<path id="&lt;Path&gt;" class="s16" d="m287.5 384.5h-83.7-83.7c-4.6 0-8.3-3.8-8.3-8.4v-101.8c0-1.3 0.4-2.5 1.3-3.4 0.9-1.2 2.6-1.3 3.7-0.4l64 53 13.3 11c5.6 4.6 13.8 4.6 19.4-0.2l78.6-66.7c4.9 4.7 3.8 9.4 3.8 9.4v99.1c0 4.6-3.8 8.4-8.4 8.4z"/>
				<path id="&lt;Path&gt;" class="s13" d="m117.4 383.5c-0.5 0-1.1-0.2-1.4-0.6-0.8-0.9-0.7-2.1 0.1-2.9l67.2-59.7c0.8-0.8 2.1-0.7 2.8 0.1 0.7 0.9 0.7 2.1-0.2 2.9l-67.1 59.7c-0.4 0.4-0.9 0.5-1.4 0.5z"/>
				<path id="&lt;Path&gt;" class="s13" d="m289.5 384.1c-0.4 0-0.9-0.2-1.3-0.5l-67-58.4c-0.9-0.7-1-1.9-0.2-2.8 0.7-0.8 1.9-0.9 2.8-0.2l67.1 58.3c0.8 0.8 0.9 2 0.2 2.9-0.4 0.4-1 0.7-1.6 0.7z"/>
			</g>
			<g id="&lt;Group&gt;">
				<path id="&lt;Path&gt;" class="s15" d="m327 263.1c0 17.7-14.4 32.1-32.1 32.1-17.7 0-32.1-14.4-32.1-32.1 0-17.7 14.4-32.1 32.1-32.1 17.7 0 32.1 14.4 32.1 32.1z"/>
				<g id="&lt;Group&gt;">
					<g id="&lt;Group&gt;">
						<path id="&lt;Compound Path&gt;" class="s5" d="m287.8 275.5h-3.5v-21.3l-3.6 2.2v-3.6l3.6-2.4h3.5z"/>
						<path id="&lt;Compound Path&gt;" fill-rule="evenodd" class="s5" d="m295.3 273.9q-1.8-1.9-1.8-5.3v-11.4q0-3.3 1.8-5.2 1.9-1.9 5.4-1.9 3.5 0 5.3 1.9 1.8 1.8 1.8 5.2v11.4q0 3.4-1.8 5.3-1.9 1.8-5.3 1.8-3.6 0-5.4-1.8zm8.1-2.5q0.9-0.9 0.9-2.8v-11.4q0-1.8-0.9-2.8-0.9-0.9-2.7-0.9-1.9 0-2.8 0.9-0.9 1-0.9 2.8v11.4q0 1.9 0.9 2.8 0.9 1 2.8 1 1.8 0 2.7-1z"/>
					</g>
				</g>
			</g>
			<g id="&lt;Group&gt;">
				<path id="&lt;Path&gt;" class="s3" d="m411.4 496.9h-214.3c-6.3 0-11.3-5.1-11.3-11.3v-132.3c0-7.1 5.7-12.7 12.7-12.7h208.2c8.4 0 15.2 6.7 15.2 15.1v130.7c0 5.8-4.7 10.5-10.5 10.5z"/>
				<path id="&lt;Path&gt;" class="s15" d="m411.1 496.9h-107.3-107.3c-5.9 0-10.7-4.8-10.7-10.8v-130.5c0-1.6 0.6-3.2 1.6-4.4 1.3-1.4 3.4-1.6 4.9-0.4l82 67.9 17 14.1c7.2 6 17.7 5.9 24.9-0.2l100.8-85.5c6.3 6 4.9 12 4.9 12v127c0 6-4.8 10.8-10.8 10.8z"/>
				<path id="&lt;Path&gt;" class="s3" d="m192 495.9c-0.6 0-1.1-0.2-1.5-0.7-0.7-0.8-0.7-2.1 0.2-2.8l87.1-77.4c0.9-0.7 2.1-0.7 2.9 0.2 0.7 0.8 0.6 2.1-0.2 2.8l-87.2 77.4c-0.4 0.3-0.8 0.5-1.3 0.5z"/>
				<path id="&lt;Path&gt;" class="s3" d="m414 496.1c-0.5 0-0.9-0.2-1.3-0.5l-86.3-75.1c-0.8-0.7-0.9-2-0.2-2.8 0.7-0.9 2-0.9 2.8-0.2l86.3 75.1c0.8 0.7 0.9 2 0.2 2.8-0.4 0.5-0.9 0.7-1.5 0.7z"/>
			</g>
		</g>
		<g id="&lt;Group&gt;">
			<path id="&lt;Path&gt;" class="s2" d="m873.9 320.6c0 24.3-19.7 44-44 44-24.3 0-44-19.7-44-44 0-24.3 19.7-44 44-44 24.3 0 44 19.7 44 44z"/>
			<path id="&lt;Path&gt;" class="s15" d="m841.6 258.6c0 39.7-32.1 71.8-71.7 71.8-39.7 0-71.8-32.1-71.8-71.8 0-39.6 32.1-71.7 71.8-71.7 39.6 0 71.7 32.1 71.7 71.7z"/>
			<g id="&lt;Group&gt;">
				<g id="&lt;Group&gt;">
					<g id="&lt;Group&gt;">
						<path id="&lt;Compound Path&gt;" fill-rule="evenodd" class="s5" d="m769.9 306.3c-8.1 0-14.9-6.1-15.8-14.1l-0.2-1.1h31.9l-0.1 1.1c-1 8-7.8 14.1-15.8 14.1zm-13.7-13.2c1.3 6.4 7 11.2 13.7 11.2 6.6 0 12.3-4.8 13.6-11.2z"/>
						<path id="&lt;Compound Path&gt;" fill-rule="evenodd" class="s5" d="m799.3 276.4h-58.9v-26.9c0-15.5 12.7-28.2 28.2-28.2h2.5c15.5 0 28.2 12.7 28.2 28.2zm-56.9-2h54.9v-24.9c0-14.5-11.8-26.2-26.2-26.2h-2.5c-14.4 0-26.2 11.7-26.2 26.2z"/>
						<path id="&lt;Compound Path&gt;" fill-rule="evenodd" class="s5" d="m798.3 293.1h-56.9c-4.9 0-9-4-9-9v-0.7c0-4.9 4.1-9 9-9h56.9c5 0 9 4.1 9 9v0.7c0 5-4 9-9 9zm-56.9-16.7c-3.8 0-7 3.2-7 7v0.7c0 3.9 3.2 7 7 7h56.9c3.9 0 7-3.1 7-7v-0.7c0-3.8-3.1-7-7-7z"/>
					</g>
					<path id="&lt;Path&gt;" class="s5" d="m763.8 267.9h-22.4c-0.5 0-1-0.4-1-1 0-0.5 0.5-1 1-1h22.4c0.6 0 1 0.5 1 1 0 0.6-0.4 1-1 1z"/>
				</g>
				<path id="&lt;Path&gt;" class="s5" d="m767.2 267.9q-0.4 0-0.7-0.3-0.2-0.1-0.2-0.3-0.1-0.2-0.1-0.4 0-0.2 0.1-0.4 0-0.2 0.2-0.3 0.1-0.1 0.3-0.2c0.4-0.2 0.8-0.1 1.1 0.2q0.1 0.1 0.2 0.3 0.1 0.2 0.1 0.4 0 0.2-0.1 0.4-0.1 0.2-0.2 0.3-0.2 0.1-0.3 0.2-0.2 0.1-0.4 0.1z"/>
			</g>
			<g id="&lt;Group&gt;">
				<path id="&lt;Path&gt;" class="s5" d="m770.2 215.9c-0.6 0-1-0.5-1-1v-14.7c0-0.6 0.4-1 1-1 0.5 0 1 0.4 1 1v14.7c0 0.5-0.5 1-1 1z"/>
				<path id="&lt;Path&gt;" class="s5" d="m789.7 220.1q-0.3 0-0.6-0.2c-0.4-0.3-0.5-0.9-0.2-1.4l4.1-6c0.3-0.5 0.9-0.6 1.4-0.3 0.5 0.3 0.6 0.9 0.3 1.4l-4.2 6.1c-0.2 0.3-0.5 0.4-0.8 0.4z"/>
				<path id="&lt;Path&gt;" class="s5" d="m750 220.1c-0.3 0-0.6-0.1-0.8-0.4l-4.2-6.1c-0.3-0.5-0.1-1.1 0.3-1.4 0.5-0.3 1.1-0.2 1.4 0.3l4.1 6c0.3 0.5 0.2 1.1-0.2 1.4q-0.3 0.2-0.6 0.2z"/>
			</g>
		</g>
	</g>
</svg>